<svg width="361" height="281" viewBox="0 0 361 281" fill="none" xmlns="http://www.w3.org/2000/svg">
<path d="M350.872 280.132C345.914 280.132 341.508 276.275 341.508 270.766C341.508 265.257 345.363 261.401 350.872 261.401C355.829 261.401 360.235 265.257 360.235 270.766C360.235 276.275 356.38 280.132 350.872 280.132Z" fill="black"/>
<path d="M326.083 280.132C321.125 280.132 316.719 276.275 316.719 270.766C316.719 265.257 320.574 261.401 326.083 261.401C331.04 261.401 335.446 265.257 335.446 270.766C335.446 276.275 331.04 280.132 326.083 280.132Z" fill="black"/>
<path d="M301.297 280.132C296.34 280.132 291.934 276.275 291.934 270.766C291.934 265.257 295.789 261.401 301.297 261.401C306.255 261.401 310.661 265.257 310.661 270.766C310.661 276.275 306.255 280.132 301.297 280.132Z" fill="black"/>
<path d="M314.518 49.3051C313.967 49.3051 313.416 49.3049 312.865 48.754C311.764 47.6522 311.764 46.5505 312.865 45.4487L335.449 20.6584C336.55 19.5566 337.652 19.5566 338.754 20.6584C339.855 21.7602 339.855 22.8618 338.754 23.9636L316.17 48.754C316.17 49.3049 315.619 49.3051 314.518 49.3051Z" fill="black"/>
<path d="M304.053 39.9398C303.502 39.9398 302.951 39.9396 302.4 39.3887C301.299 38.287 301.299 37.1853 302.4 36.0835L324.984 11.2931C326.086 10.1913 327.187 10.1913 328.289 11.2931C329.39 12.3949 329.39 13.4966 328.289 14.5984L305.705 39.3887C305.705 39.9396 304.604 39.9398 304.053 39.9398Z" fill="black"/>
<path d="M297.444 29.473C296.893 29.473 296.342 29.4732 295.791 28.9223C294.689 27.8205 294.689 26.7185 295.791 25.6167L318.375 0.826345C319.476 -0.275448 320.578 -0.275448 321.679 0.826345C322.781 1.92814 322.781 3.03013 321.679 4.13193L299.096 28.9223C298.545 28.9223 297.994 29.473 297.444 29.473Z" fill="black"/>
<g opacity="0.4">
<mask id="mask0_1080_12400" style="mask-type:luminance" maskUnits="userSpaceOnUse" x="45" y="39" width="152" height="221">
<path d="M196.091 39.9404H45.7188V259.748H196.091V39.9404Z" fill="white"/>
</mask>
<g mask="url(#mask0_1080_12400)">
<path d="M176.261 95.0301C176.261 125.329 151.474 150.12 121.179 150.12C90.8843 150.12 66.0977 125.329 66.0977 95.0301C66.0977 64.7308 90.8843 39.9404 121.179 39.9404C151.474 39.9404 176.261 64.7308 176.261 95.0301Z" fill="#00979B"/>
</g>
<mask id="mask1_1080_12400" style="mask-type:luminance" maskUnits="userSpaceOnUse" x="45" y="39" width="152" height="221">
<path d="M196.091 39.9404H45.7188V259.748H196.091V39.9404Z" fill="white"/>
</mask>
<g mask="url(#mask1_1080_12400)">
<path d="M196.091 259.748H45.7188V225.593C45.7188 192.539 72.7086 165.545 105.758 165.545H136.052C169.101 165.545 196.091 192.539 196.091 225.593V259.748Z" fill="#00979B"/>
</g>
</g>
<path d="M134.953 138.551C103.005 138.551 77.1172 112.658 77.1172 80.7065C77.1172 48.7545 103.005 22.8623 134.953 22.8623C166.9 22.8623 192.788 48.7545 192.788 80.7065C192.788 112.658 166.349 138.551 134.953 138.551ZM134.953 28.3713C105.76 28.3713 82.0745 52.06 82.0745 81.2576C82.0745 110.455 105.76 134.144 134.953 134.144C164.146 134.144 187.831 110.455 187.831 81.2576C187.831 52.06 164.146 28.3713 134.953 28.3713Z" fill="black"/>
<path d="M209.861 248.179H59.4885C58.3868 248.179 57.2852 247.077 57.2852 245.975V200.251C57.2852 172.155 80.4194 149.018 108.511 149.018H161.389C189.481 149.018 212.615 172.155 212.615 200.251V245.975C212.615 247.077 211.513 248.179 209.861 248.179ZM61.6917 243.772H207.658V200.251C207.658 174.91 186.727 153.976 161.389 153.976H108.511C83.1735 153.976 62.2425 174.91 62.2425 200.251V243.772H61.6917Z" fill="black"/>
<path d="M307.908 119.27C306.806 119.27 305.705 118.169 305.705 117.067L303.501 97.7853L284.223 99.9887C283.121 99.9887 282.02 99.438 281.469 97.7853C281.469 96.6835 282.02 95.5817 283.672 95.0309L305.154 92.2764C305.705 92.2764 306.255 92.2762 306.806 92.8271C307.357 93.378 307.357 93.9289 307.908 94.4798L310.662 115.965C310.662 117.618 309.56 118.719 307.908 119.27Z" fill="black"/>
<path d="M206.006 171.053C205.456 171.053 204.905 171.054 204.354 170.503C203.252 169.952 203.252 168.299 203.803 167.197L228.039 138C228.59 137.449 229.141 137.449 229.691 136.898C230.242 136.898 230.793 136.898 231.344 137.449L250.622 155.077L302.399 94.4787C303.501 93.3769 304.602 93.3769 305.704 94.4787C306.806 95.5805 306.806 96.6825 305.704 97.7843L252.275 160.036C251.724 160.586 251.173 160.586 250.622 160.586C250.072 160.586 249.521 160.586 248.97 160.036L229.691 142.407L207.108 169.401C207.659 171.054 206.557 171.053 206.006 171.053Z" fill="black"/>
<path d="M159.188 153.976C158.086 153.976 156.984 152.874 156.984 151.772V130.838C156.984 129.737 158.086 128.635 159.188 128.635C160.289 128.635 161.391 129.737 161.391 130.838V151.772C161.391 152.874 160.289 153.976 159.188 153.976Z" fill="black"/>
<path d="M333.794 201.904H210.411C209.31 201.904 208.208 200.802 208.208 199.701C208.208 198.599 209.31 197.497 210.411 197.497H333.794C341.505 197.497 348.115 190.886 348.115 183.174V96.6828C348.115 88.9702 341.505 82.3596 333.794 82.3596H190.582C189.481 82.3596 188.379 81.2577 188.379 80.1559C188.379 79.0541 189.481 77.9521 190.582 77.9521H333.794C344.26 77.9521 352.522 86.2157 352.522 96.6828V183.174C352.522 193.641 343.709 201.904 333.794 201.904Z" fill="black"/>
<path d="M251.172 234.957C250.07 234.957 248.969 233.855 248.969 232.754V199.7C248.969 198.598 250.07 197.496 251.172 197.496C252.274 197.496 253.375 198.598 253.375 199.7V232.754C253.926 233.855 252.825 234.957 251.172 234.957Z" fill="black"/>
<path d="M251.172 83.4611C250.07 83.4611 248.969 82.3595 248.969 81.2577V55.9163C248.969 54.8145 250.07 53.7129 251.172 53.7129C252.274 53.7129 253.375 54.8145 253.375 55.9163V81.2577C253.926 82.9104 252.825 83.4611 251.172 83.4611Z" fill="black"/>
<path d="M230.791 248.179C230.24 248.179 229.69 248.179 229.139 247.628C228.037 246.527 228.037 245.425 229.139 244.323L249.519 223.94C250.62 222.838 251.722 222.838 252.824 223.94L271.551 242.67C272.653 243.772 272.653 244.874 271.551 245.975C270.45 247.077 269.348 247.077 268.247 245.975L251.171 228.898L232.444 247.628C231.893 248.179 231.342 248.179 230.791 248.179Z" fill="black"/>
<path d="M30.8457 160.587C29.1932 160.587 27.5407 160.036 25.8883 159.486L4.9573 147.366C2.20323 145.713 0 142.408 0 139.102C0 135.797 1.65241 132.491 4.9573 130.839L25.8883 118.719C28.6423 117.066 32.498 117.066 35.2521 118.719C38.0062 120.372 40.2095 123.677 40.2095 126.982V151.222C40.2095 154.527 38.557 157.833 35.2521 159.486C34.1505 160.036 32.4981 160.587 30.8457 160.587ZM30.8457 121.473C29.744 121.473 29.1932 121.473 28.6423 122.024L7.71137 134.144C6.05893 135.246 5.50815 136.898 5.50815 138.551C5.50815 140.204 6.60974 141.857 7.71137 142.959L28.6423 155.078C30.2948 156.18 31.9473 156.18 33.5997 155.078C35.2522 153.976 35.803 152.324 35.803 150.671V126.432C35.803 124.779 34.7014 123.126 33.5997 122.024C32.4981 121.473 31.9473 121.473 30.8457 121.473Z" fill="black"/>
</svg>
