<svg width="512" height="512" viewBox="0 0 512 512" fill="none" xmlns="http://www.w3.org/2000/svg">
<path d="M256 0.000976562C114.842 0.000976562 0.000976562 114.842 0.000976562 256C0.000976562 397.158 114.842 511.999 256 511.999C397.158 511.999 511.999 397.158 511.999 256C511.999 114.842 397.158 0.000976562 256 0.000976562ZM256 479.999C132.486 479.999 32.001 379.514 32.001 256C32.001 132.486 132.486 32.001 256 32.001C379.514 32.001 479.999 132.486 479.999 256C479.999 379.514 379.514 479.999 256 479.999ZM308.001 389.648C308.001 398.485 300.838 405.648 292.001 405.648H219.999C211.162 405.648 203.999 398.485 203.999 389.648C203.999 380.811 211.162 373.648 219.999 373.648H239.984L239.449 192.648H220C211.163 192.648 204 185.485 204 176.648C204 167.811 211.163 160.648 220 160.648H255.4C264.218 160.648 271.374 167.783 271.4 176.6L271.983 373.648H292C300.838 373.648 308.001 380.812 308.001 389.648ZM239.587 122.351C239.587 113.514 246.75 106.351 255.587 106.351H256.412C265.249 106.351 272.412 113.514 272.412 122.351C272.412 131.188 265.249 138.351 256.412 138.351H255.587C246.75 138.351 239.587 131.188 239.587 122.351Z" fill="white"/>
</svg>
