<svg width="361" height="122" viewBox="0 0 361 122" fill="none" xmlns="http://www.w3.org/2000/svg">
<path d="M75.7633 10.0894V12.9532H62.1844V22.175H75.193V25.0388H62.1301V34.6042H76.0349V37.4681H58.7625V10.0894H75.7633ZM36.0042 34.6329C36.6393 34.7247 37.286 34.6594 37.893 34.442C38.4999 34.2246 39.0506 33.8611 39.5012 33.3803C39.9518 32.8995 40.2901 32.3147 40.4892 31.6721C40.6883 31.0296 40.7427 30.3469 40.6482 29.6783C40.6482 26.4421 38.5842 24.8384 34.4291 24.8384H32.9626V22.49C37.9324 21.774 40.431 19.8838 40.431 16.7622C40.431 14.242 39.0731 12.9819 36.3573 12.9819H28.8617V34.6329H36.0042ZM25.4941 37.5254V10.0894H36.5745C41.5444 10.0894 43.9886 12.2373 43.9886 16.4758C43.9875 18.0089 43.5044 19.4982 42.615 20.7109C41.7255 21.9235 40.4799 22.7909 39.0731 23.1773C39.8156 23.1976 40.5463 23.3783 41.22 23.7082C41.8937 24.0381 42.4961 24.5103 42.9899 25.0954C43.4837 25.6806 43.8584 26.3663 44.0909 27.1102C44.3235 27.8542 44.4088 28.6405 44.3417 29.4206C44.3417 34.8047 41.6259 37.5254 36.1943 37.5254H25.4941Z" fill="black"/>
<path d="M239.756 36.3777V33.1129C242.6 34.1636 245.595 34.6868 248.609 34.6594C253.09 34.6594 255.317 32.9124 255.317 29.4757C255.317 26.6119 253.66 25.0654 250.374 25.0654H247.007C241.575 25.0654 238.859 22.5738 238.859 17.562C238.859 12.5502 242.336 9.62901 249.315 9.62901C252.167 9.59952 255.009 9.98501 257.761 10.7746V14.1253C255.063 13.0455 252.201 12.4923 249.315 12.4929C244.59 12.4929 242.227 14.154 242.227 17.4474C242.227 20.7409 243.829 21.8864 247.007 21.8864H250.374C255.914 21.8864 258.685 24.378 258.685 29.3612C258.685 34.7262 255.326 37.4087 248.609 37.4087C245.623 37.4375 242.646 37.0524 239.756 36.2632M202.386 37.2082V9.9154H205.754L221.668 31.996V9.9154H224.846V37.3228H221.478L205.591 15.0418V37.3228L202.386 37.2082ZM186.58 37.2082H183.213V9.9154H186.58V37.2082ZM147.718 37.3228H144.16L155.213 9.9154H158.934L170.014 37.3228H166.294L162.926 28.7311H154.317L155.24 25.8673H161.812L156.951 13.4093L147.718 37.3228ZM132.21 36.2632C130.039 37.116 127.738 37.5431 125.421 37.5233C116.024 37.5233 111.299 32.7692 111.299 23.2038C111.299 14.173 115.825 9.6672 124.878 9.68629C127.346 9.65773 129.803 10.0444 132.156 10.8318V13.9248C129.959 13.0077 127.621 12.5223 125.258 12.4929C118.143 12.4929 114.612 16.0155 114.612 23.1179C114.612 30.755 118.097 34.5735 125.068 34.5735C126.289 34.573 127.508 34.4483 128.707 34.2012V24.8649H132.075L132.21 36.2632Z" fill="black"/>
<path d="M80.2755 37.5299V34.6374H93.9087V25.4443H80.9273V22.5805H93.9087V12.9864H80.0039V10.1226H97.2763V37.5299H80.2755Z" fill="#F59120"/>
<path d="M71.1638 0.817547L68.1582 2.04443L70.6317 8.78287L73.6373 7.55598L71.1638 0.817547Z" fill="black"/>
<path d="M84.287 1.03263L81.8438 7.80469L84.8643 9.01657L87.3076 2.24451L84.287 1.03263Z" fill="black"/>
<path d="M79.4544 39.9561H76.2227V44.796H79.4544V39.9561Z" fill="black"/>
<path d="M13.1127 102.523H1.94576L22.2775 44.7712H35.1928L55.5527 102.523H44.3858L28.9607 56.6149H28.5095L13.1127 102.523ZM13.4793 79.8794H43.9346V88.2828H13.4793V79.8794ZM80.2836 103.369C75.9597 103.369 72.2467 102.42 69.1448 100.521C66.0617 98.6225 63.6835 96 62.0104 92.6537C60.356 89.2885 59.5288 85.4158 59.5288 81.0355C59.5288 76.6364 60.3748 72.7543 62.0668 69.3892C63.7587 66.0053 66.1463 63.3733 69.2294 61.4934C72.3313 59.5946 75.9973 58.6452 80.2272 58.6452C83.7427 58.6452 86.854 59.2938 89.5611 60.591C92.2871 61.8694 94.4584 63.6835 96.0752 66.0335C97.692 68.3646 98.6131 71.0906 98.8387 74.2113H89.0818C88.687 72.1245 87.747 70.3856 86.2618 68.9944C84.7955 67.5844 82.8309 66.8795 80.3682 66.8795C78.2814 66.8795 76.4484 67.4434 74.8693 68.5714C73.2901 69.6806 72.0587 71.2786 71.1752 73.3653C70.3104 75.4521 69.878 77.9524 69.878 80.8663C69.878 83.8179 70.3104 86.3558 71.1752 88.4802C72.0399 90.5857 73.2525 92.2119 74.8129 93.3586C76.392 94.4866 78.2438 95.0506 80.3682 95.0506C81.8721 95.0506 83.2163 94.7686 84.4007 94.2046C85.6038 93.6218 86.6096 92.7853 87.418 91.6949C88.2264 90.6045 88.781 89.2791 89.0818 87.7188H98.8387C98.5943 90.7831 97.692 93.4996 96.1316 95.8684C94.5712 98.2183 92.4469 100.061 89.7585 101.395C87.0702 102.711 83.9119 103.369 80.2836 103.369ZM119.685 103.398C116.94 103.398 114.468 102.909 112.269 101.931C110.088 100.935 108.358 99.4685 107.08 97.5322C105.82 95.5958 105.191 93.2083 105.191 90.3695C105.191 87.9256 105.642 85.9046 106.544 84.3067C107.447 82.7087 108.678 81.4303 110.238 80.4715C111.799 79.5128 113.556 78.789 115.512 78.3002C117.486 77.7926 119.525 77.426 121.631 77.2004C124.169 76.9372 126.227 76.7022 127.807 76.4954C129.386 76.2698 130.532 75.9314 131.247 75.4803C131.98 75.0103 132.347 74.2865 132.347 73.3089V73.1397C132.347 71.0154 131.717 69.3704 130.457 68.2048C129.198 67.0393 127.384 66.4565 125.015 66.4565C122.514 66.4565 120.531 67.0017 119.065 68.092C117.617 69.1824 116.64 70.4702 116.132 71.9553L106.601 70.6018C107.353 67.9698 108.593 65.7703 110.323 64.0031C112.052 62.2172 114.167 60.8824 116.668 59.9988C119.168 59.0964 121.932 58.6452 124.958 58.6452C127.045 58.6452 129.122 58.8896 131.19 59.3784C133.258 59.8672 135.148 60.6756 136.859 61.8036C138.569 62.9127 139.942 64.4261 140.976 66.3437C142.028 68.2612 142.555 70.6582 142.555 73.5345V102.523H132.741V96.5734H132.403C131.783 97.7765 130.908 98.9045 129.78 99.9573C128.671 100.991 127.271 101.828 125.579 102.467C123.906 103.087 121.941 103.398 119.685 103.398ZM122.336 95.8966C124.385 95.8966 126.162 95.4924 127.666 94.684C129.169 93.8568 130.326 92.7665 131.134 91.4129C131.961 90.0593 132.375 88.5836 132.375 86.9856V81.8815C132.055 82.1447 131.51 82.3891 130.739 82.6147C129.987 82.8403 129.141 83.0377 128.201 83.2069C127.261 83.3761 126.331 83.5265 125.41 83.6581C124.488 83.7897 123.689 83.9025 123.013 83.9965C121.49 84.2033 120.127 84.5416 118.924 85.0116C117.721 85.4816 116.771 86.1396 116.076 86.9856C115.38 87.8128 115.032 88.8843 115.032 90.2003C115.032 92.0803 115.718 93.4996 117.091 94.4584C118.463 95.4172 120.211 95.8966 122.336 95.8966ZM168.893 103.285C165.49 103.285 162.445 102.411 159.756 100.662C157.068 98.9139 154.944 96.376 153.383 93.0485C151.823 89.7209 151.043 85.679 151.043 80.9227C151.043 76.11 151.832 72.0493 153.412 68.7406C155.009 65.4131 157.162 62.9033 159.869 61.2114C162.576 59.5006 165.594 58.6452 168.921 58.6452C171.459 58.6452 173.546 59.0776 175.181 59.9424C176.817 60.7884 178.114 61.813 179.073 63.0161C180.032 64.2005 180.774 65.3191 181.301 66.3719H181.724V44.7712H191.96V102.523H181.921V95.6992H181.301C180.774 96.752 180.013 97.8705 179.017 99.0549C178.02 100.22 176.704 101.217 175.069 102.044C173.433 102.871 171.375 103.285 168.893 103.285ZM171.741 94.9096C173.903 94.9096 175.745 94.3268 177.268 93.1613C178.791 91.9769 179.947 90.3319 180.737 88.2264C181.526 86.1208 181.921 83.6675 181.921 80.8663C181.921 78.0652 181.526 75.6307 180.737 73.5627C179.966 71.4947 178.819 69.8874 177.296 68.7406C175.792 67.5938 173.941 67.0205 171.741 67.0205C169.466 67.0205 167.568 67.6126 166.045 68.797C164.522 69.9814 163.375 71.6169 162.605 73.7037C161.834 75.7904 161.448 78.178 161.448 80.8663C161.448 83.5735 161.834 85.9892 162.605 88.1136C163.394 90.2191 164.55 91.8829 166.073 93.1049C167.615 94.308 169.504 94.9096 171.741 94.9096ZM222.014 103.369C217.671 103.369 213.92 102.467 210.762 100.662C207.622 98.8387 205.207 96.2632 203.515 92.9357C201.823 89.5893 200.977 85.6508 200.977 81.1201C200.977 76.6646 201.823 72.7543 203.515 69.3892C205.225 66.0053 207.613 63.3733 210.677 61.4934C213.742 59.5946 217.342 58.6452 221.478 58.6452C224.147 58.6452 226.666 59.0776 229.035 59.9424C231.423 60.7884 233.528 62.1044 235.352 63.8903C237.194 65.6763 238.642 67.951 239.695 70.7146C240.747 73.4593 241.274 76.7304 241.274 80.5279V83.6581H205.771V76.7774H231.488C231.47 74.8223 231.047 73.0833 230.22 71.5605C229.392 70.019 228.236 68.8064 226.751 67.9228C225.285 67.0393 223.574 66.5975 221.619 66.5975C219.532 66.5975 217.699 67.105 216.12 68.1202C214.541 69.1166 213.309 70.4326 212.426 72.0681C211.561 73.6849 211.119 75.4615 211.1 77.3978V83.4043C211.1 85.9234 211.561 88.0854 212.482 89.8901C213.403 91.6761 214.691 93.0485 216.345 94.0072C218 94.9472 219.936 95.4172 222.155 95.4172C223.64 95.4172 224.984 95.2104 226.187 94.7968C227.39 94.3644 228.434 93.7346 229.317 92.9075C230.201 92.0803 230.868 91.0557 231.319 89.8337L240.851 90.9053C240.249 93.4244 239.102 95.624 237.41 97.504C235.737 99.3651 233.594 100.813 230.981 101.847C228.368 102.862 225.379 103.369 222.014 103.369ZM249.91 102.523V59.2092H259.667V66.5693H260.174C261.077 64.0877 262.571 62.1514 264.658 60.7602C266.745 59.3502 269.236 58.6452 272.131 58.6452C275.064 58.6452 277.536 59.3596 279.547 60.7884C281.578 62.1984 283.006 64.1253 283.834 66.5693H284.285C285.244 64.1629 286.86 62.2454 289.135 60.8166C291.429 59.369 294.145 58.6452 297.285 58.6452C301.27 58.6452 304.522 59.9048 307.042 62.424C309.561 64.9431 310.82 68.6184 310.82 73.4499V102.523H300.584V75.0291C300.584 72.3407 299.87 70.3762 298.441 69.1354C297.012 67.8758 295.264 67.246 293.196 67.246C290.733 67.246 288.806 68.0168 287.415 69.5584C286.042 71.0812 285.356 73.0645 285.356 75.5085V102.523H275.346V74.6061C275.346 72.3689 274.669 70.583 273.315 69.2482C271.98 67.9134 270.232 67.246 268.07 67.246C266.604 67.246 265.269 67.622 264.066 68.374C262.863 69.1072 261.904 70.1506 261.189 71.5041C260.475 72.8389 260.118 74.3993 260.118 76.1852V102.523H249.91ZM325.97 118.766C324.579 118.766 323.291 118.653 322.107 118.428C320.942 118.221 320.011 117.977 319.315 117.695L321.684 109.742C323.169 110.175 324.495 110.382 325.66 110.363C326.826 110.344 327.85 109.977 328.734 109.263C329.636 108.567 330.398 107.402 331.018 105.766L331.892 103.426L316.185 59.2092H327.014L336.996 91.9205H337.448L347.458 59.2092H358.315L340.972 107.769C340.164 110.062 339.093 112.027 337.758 113.662C336.423 115.317 334.787 116.576 332.851 117.441C330.934 118.324 328.64 118.766 325.97 118.766Z" fill="#F59120"/>
</svg>
