<svg width="761" height="647" viewBox="0 0 761 647" fill="none" xmlns="http://www.w3.org/2000/svg">
<path d="M411.724 338.701C400.023 407.979 400.666 465.866 400.666 465.866L568.903 462.707L558.93 363.175L411.724 338.701Z" fill="#282828"/>
<path d="M393.404 192.76C388.41 214.655 374.468 251.123 374.468 251.123C374.468 251.123 374.224 268.375 374.154 269.854C374.085 271.333 396.717 291.311 396.717 291.311C396.717 291.311 428 274.588 428.311 270.775C428.526 268.136 393.404 192.76 393.404 192.76Z" fill="#AC6132"/>
<path d="M409.093 128.639L400.247 133.016C400.247 133.016 387.338 189.567 386.976 191.567C386.614 193.567 374.891 215.974 374.891 215.974C374.891 215.974 385.891 233.161 390.5 235.523C395.11 237.885 421.23 247.807 421.23 247.807C421.23 247.807 426.224 150.955 425.071 149.065C423.919 147.175 409.093 128.639 409.093 128.639Z" fill="#C2BBA5"/>
<path d="M401.642 203.828C403.138 212.276 407.728 212.213 410.362 219.919C409.254 148.807 413.239 142.447 405.956 131.643C402.782 150.825 398.058 184.492 401.642 203.828Z" fill="#282828"/>
<path d="M420.77 238.333C418.83 235.526 416.904 232.501 415.076 229.423C415.482 229.71 415.694 229.86 415.694 229.86C405.819 215.228 399.439 196.351 395.765 179.209C397.828 195.853 404.104 213.512 413.145 227.798C407.446 223.181 401.16 215.491 396.5 206.722C397.913 210.746 399.527 215.311 399.127 219.731C395.719 215.695 391.529 210.385 388.151 206.325C390.448 214.654 392.617 222.74 395.034 230.841C388.97 223.435 385.367 219.036 385.367 219.036C388.001 222.599 393.331 229.726 396.592 233.957C394.906 227.359 392.632 218.6 390.749 211.385C393.82 215.168 396.891 218.948 400.003 222.645C400.37 219.711 400.391 216.658 399.717 213.789C404.705 220.879 408.419 224.288 413.401 228.203C415.843 232.181 419.555 237.22 422.273 240.518C422.273 240.518 421.738 239.74 420.77 238.333Z" fill="#282828"/>
<path d="M518.175 105.482L529.525 116.941C529.525 116.941 551.794 134.108 555.36 134.09C558.927 134.073 587.15 141.547 587.15 141.547L585.538 220.254C585.538 220.254 563.529 283.582 566.073 287.57L567.877 321.499L559.168 337.131C559.168 337.131 563.339 352.233 563.748 357.922C564.157 363.611 566.372 407.609 566.372 407.609C566.372 407.609 490.198 422.724 476.511 419.819C462.824 416.913 395.387 393.437 395.387 393.437C395.387 393.437 399.847 346.185 401.088 342.761C402.33 339.336 403.795 305.839 403.795 305.839L409.281 287.379C409.281 287.379 408.475 250.355 409.075 245.378C409.675 240.401 406.321 217.607 405.363 215.673C404.405 213.739 402.532 150.655 408.437 129.046C408.437 129.046 430.486 126.381 432.269 126.372C434.052 126.363 450.291 120.85 450.291 120.85L518.175 105.482Z" fill="#C2BBA5"/>
<path d="M575.674 145.599C562.387 143.452 549.068 138.87 537 132.195C539.258 130.304 541.376 128.523 543.325 126.878C543.124 126.734 542.922 126.591 542.721 126.447C540.679 128.066 538.467 129.827 536.114 131.707C527.729 127.106 519.139 120.671 512.433 114.348C518.668 121.023 526.947 127.737 535.171 132.461C522.097 142.612 478.983 178.872 480.593 177.738C479.27 179.009 523.542 143.776 536.064 132.978C548.44 140.139 562.447 144.601 576.337 146.061C565.174 150.25 553.848 155.246 551.961 156.084C552.482 154.089 554.368 148.223 554.664 147.289C550.662 157.563 547.098 170.011 545.186 181.313L540.09 170.361L540.985 194.968L536.113 200.263C535.406 190.588 534.825 179.382 534.465 170.953C534.304 179.738 534.488 191.389 535.078 201.388L530.694 206.153L504.298 181.545C504.298 181.545 521.746 286.237 522.641 288.026C523.458 289.661 545.689 302.982 550.53 304.546C540.384 311.891 529.574 318.869 519.192 324.919C535.416 316.824 552.051 305.833 566.233 293.816L565.949 287.937C563.425 283.937 585.744 220.718 585.744 220.718L587.736 142.243C583.942 143.546 579.663 145.072 575.674 145.599ZM548.413 170.122C548.841 168.237 549.277 166.261 549.718 164.448C549.825 164.032 549.929 163.63 550.033 163.227L548.413 170.122Z" fill="#282828"/>
<path d="M502.434 349.936C510.373 350.295 527.31 351.118 538.076 351.563C510.603 360.777 481.142 363.136 452.799 358.934C483.247 364.288 515.153 361.261 544.475 350.673C536.027 350.296 520.899 349.56 511.324 349.197C512.787 348.85 514.248 348.461 515.684 348.103C533.429 343.653 551.53 334.75 566.355 324.061L566.722 323.408C548.113 336.4 524.764 346.204 502.434 349.936Z" fill="#282828"/>
<path d="M418.526 319.143C424.267 322.991 430.742 327.332 437.801 332.064C426.794 332.27 414.098 329.678 403.833 325.977C426.766 340.827 453.613 350.404 479.373 353.182C457.149 350.073 433.318 342.115 412.824 330.022C422.284 332.615 431.86 333.475 441.317 333.086C430.856 326.227 415.778 316.416 403.428 308.432C403.42 308.593 403.411 308.759 403.402 308.931C409.061 312.761 414.976 316.758 418.526 319.143Z" fill="#282828"/>
<path d="M402.638 342.458C418.764 364.163 441.326 383.38 465.13 395.894C441.219 381.772 418.629 361.866 401.185 339.711C401.153 339.952 401.121 340.178 401.09 340.393C401.634 341.138 402.156 341.838 402.638 342.458Z" fill="#282828"/>
<path d="M398.715 374.979C433.033 400.481 479.566 413.438 522.125 409.342C522.451 409.331 516.134 409.53 514.248 409.597C474.09 410.274 431.769 397.573 398.715 374.979Z" fill="#282828"/>
<path d="M563.517 362.545C563.493 362.088 563.471 361.658 563.449 361.256C534.8 373.828 502.28 381.068 472.578 381.847C502.27 381.82 534.839 375.071 563.517 362.545Z" fill="#282828"/>
<path d="M517.744 387.564C533.13 384.896 549.456 378.021 563.813 368.478C563.797 368.144 563.781 367.815 563.765 367.492C549.512 377.29 532.901 384.433 517.744 387.564Z" fill="#282828"/>
<path d="M564.454 381.904C543.304 394.737 516.909 401.352 492.365 399.945C516.854 402.866 543.758 396.202 564.476 382.375C564.469 382.218 564.461 382.062 564.454 381.904Z" fill="#282828"/>
<path d="M453.323 131.279C438.599 135.488 422.685 137.917 407.171 138.526C407.139 138.757 407.108 138.996 407.076 139.23C422.696 139.13 438.742 136.82 453.689 132.307C458.681 146.014 465.702 158.841 474.116 170.112C466.43 158.436 459.835 145.571 454.845 131.96C465.015 128.937 476.239 124.148 485.166 119.309C476.006 123.68 464.693 128.098 454.48 130.952C453.251 127.556 452.126 124.104 451.1 120.626L450.986 120.651C450.986 120.651 450.648 120.764 450.08 120.952C451.036 124.434 452.115 127.886 453.323 131.279Z" fill="#282828"/>
<path d="M526.306 306.209C500.084 277.597 476.859 242.228 461.025 206.795C474.61 240.828 496.024 274.323 521.293 301.015C522.5 302.273 526.495 306.404 526.306 306.209Z" fill="#282828"/>
<path d="M407.715 291.749C417.218 293.232 432.703 296.045 448.958 299.104C449.543 302.359 449.866 304.147 449.866 304.147C449.866 304.147 449.604 302.37 449.128 299.136C460.448 301.267 472.129 303.514 482.414 305.511C485.676 313.611 490.771 325.219 494.014 332.179C491.061 325.243 486.339 313.716 483.265 305.676C500.848 309.093 514.139 311.738 514.139 311.738L511.839 296.544L474.95 282.945C463.929 251.533 454.524 217.185 447.923 185.176C453.473 217.163 462.392 251.32 473.626 282.457L445.496 272.088C440.855 234.274 438.301 192.638 438.128 154.836C437.058 192.521 439.313 234.145 444.631 271.769L408.882 258.591C408.89 270.97 409.159 286.976 409.159 286.976L407.715 291.749Z" fill="#282828"/>
<path d="M515.207 82.1504C517.465 88.4834 520.159 113.49 520.159 113.49L528.345 126.271L497.141 155.804L477.44 171.309L459.064 154.197L465.429 134.547L467.019 100.508L515.207 82.1504Z" fill="#AC6132"/>
<path d="M515.207 82.1504C517.465 88.4834 520.159 113.49 520.159 113.49L497.141 155.804L477.44 171.309L459.064 154.197L465.429 134.547L467.019 100.508L515.207 82.1504Z" fill="#883F2E"/>
<path d="M436.425 46.1138C436.002 61.7154 434.146 78.3555 434.146 78.3555L441.43 85.6866L440.789 97.9451L461.643 137.714L477.421 138.908C477.421 138.908 508.504 118.859 511.556 111.304C514.607 103.748 517.111 92.4824 517.111 92.4824C517.111 92.4824 524.825 83.6404 526.095 81.2628C527.366 78.8853 524.747 54.8758 524.747 54.8758L518.134 55.1413C518.134 55.1413 518.178 20.4124 510.667 19.7866C503.157 19.1607 458.72 24.1678 455.59 24.1678C452.462 24.1682 436.425 46.1138 436.425 46.1138Z" fill="#CA7546"/>
<path d="M445.522 93.6505C442.687 91.8445 441.731 87.0022 443.627 84.2656C446.462 86.0716 447.418 90.9144 445.522 93.6505Z" fill="#282828"/>
<path d="M472.519 94.7472C469.817 92.9492 469.195 88.442 471.271 85.9844C473.973 87.7828 474.595 92.2896 472.519 94.7472Z" fill="#282828"/>
<path d="M462.284 109.588C458.991 110.421 453.797 111.116 449.978 111.022C452.014 101.062 452.5 89.35 450.843 80.5703C450.37 90.1841 449.077 102.488 447.053 113.278C452.746 113.357 459.439 111.703 464.11 109.122C463.661 109.238 463.017 109.412 462.284 109.588Z" fill="#282828"/>
<path d="M448.842 77.5139C449.854 77.7221 451.387 78.2017 452.212 78.4795C449.143 71.8379 438.486 71.0523 434.475 77.1699C439.064 76.2802 444.239 76.6258 448.842 77.5139Z" fill="#282828"/>
<path d="M483.773 77.636C477.901 71.4176 466.58 71.3813 460.734 77.6081C468.341 76.1515 476.972 76.436 484.465 78.3913C484.465 78.3913 484.232 78.1152 483.773 77.636Z" fill="#282828"/>
<path d="M481.118 112.164C475.163 118.717 464.863 121.742 456.311 119.453C464.845 119.998 474.234 117.24 481.118 112.164Z" fill="#282828"/>
<path d="M518.402 32.5156C519.111 42.6921 517.736 55.2418 518.134 55.1423L508.935 77.8369L508.881 90.7883L504.351 93.5848L502.295 74.1444L492.57 60.4048L502.868 34.5791L518.402 32.5156Z" fill="#282828"/>
<path d="M436.067 54.6817C426.511 53.9803 419 42.0889 419 42.0889L428.146 38.0209L426.494 18.6555C426.494 18.6555 433.395 20.1838 438.402 17.0543C443.409 13.9249 461.559 -1.7218 476.58 0.155857C491.601 2.03351 512.881 6.4147 512.881 6.4147L509.658 12.0477L513.975 11.1225L521.386 29.4545V40.8384C521.386 40.8384 508.5 46.4705 505.997 49.6C503.493 52.7294 492.57 60.4048 492.57 60.4048L484.091 47.0964C484.091 47.0964 466.904 60.3901 436.067 54.6817Z" fill="#282828"/>
<path d="M522.877 74.6595C522.73 72.247 520.688 70.1531 518.52 70.559C518.521 70.556 518.522 70.5539 518.522 70.5539C518.522 70.556 518.511 70.5703 518.504 70.5686C519.072 66.646 520.552 61.3405 521.549 58.1314C521.798 60.0146 521.907 60.56 521.907 60.56C521.924 60.9245 521.898 58.3245 521.818 56.4102C518.611 60.737 516.062 69.5546 515.398 75.8307C515.409 75.7561 515.428 75.6322 515.439 75.5568C515.038 78.2074 514.627 80.9293 514.398 82.4415C515.695 79.3652 516.832 76.1578 518.363 73.226C519.057 72.8948 519.964 73.0229 520.422 73.7415C522.899 78.352 516.456 83.2996 517.749 87.8536C517.791 83.1496 523.585 79.9797 522.877 74.6595Z" fill="#282828"/>
<path d="M380.064 221.377L378.889 224.442L509.645 298.708L510.429 294.629L487.531 234.247L380.064 221.377Z" fill="#6A767B"/>
<path d="M378.889 224.443L407.327 286.492L509.645 298.709L486.355 237.314L378.889 224.443Z" fill="#282828"/>
<path d="M380.49 247.326L387.68 240.536L400.206 236.643L423.776 244.357C423.776 244.357 418.707 247.094 412.625 249.096L421.479 253.523C421.479 253.523 420.263 256.46 417.643 258.012L411.679 260.717L421.708 263.669C421.708 263.669 421.086 265.464 417.46 267.633C413.835 269.802 411.263 269.071 411.263 269.071L421.991 273.147C421.991 273.147 409.361 277.345 404.828 277.444C400.294 277.544 395.165 278.547 395.165 278.547L394.757 271.902L389.648 268.395L389.25 260.416L383.101 258.611L383.406 252.102L380.49 247.326Z" fill="#CA7546"/>
<path d="M395.666 247.328C397.222 246.651 398.922 245.617 400.594 245.222C404.139 244.784 410.884 249.412 413.436 249.92C400.368 240.893 400.297 243.084 387.643 250.761C388.377 250.514 393.684 248.281 395.666 247.328Z" fill="#282828"/>
<path d="M409.403 260.633C410.573 260.362 411.687 260.001 412.396 259.755C407.255 260.266 396.585 260.202 391.451 259.631C396.088 261.578 404.477 262.069 409.403 260.633Z" fill="#282828"/>
<path d="M411.952 269.407C407.226 270.768 401.406 270.956 396.516 271.114C401.63 272.763 407.503 272.713 407.503 272.713C407.503 272.713 412.395 269.29 411.952 269.407Z" fill="#282828"/>
<path d="M585.026 141.288C582.542 140.63 556.584 155.803 554.801 158.775C553.017 161.747 540.789 204.668 540.789 204.668L525.078 231.298C525.078 231.298 550.64 275.882 552.423 275.882C554.206 275.882 564.907 285.393 564.907 285.393L581.675 253.856L582.146 242.592C582.146 242.592 594.885 220.657 593.44 215.842C591.996 211.027 594.629 182.553 595.224 177.797C595.818 173.042 591.657 145.697 591.657 145.697L585.026 141.288Z" fill="#C2BBA5"/>
<path d="M570.849 248.727C570.712 247.398 570.561 246.071 570.384 244.747C569.896 244.4 569.453 243.989 568.99 243.609C569.659 245.261 570.286 246.984 570.849 248.727Z" fill="#282828"/>
<path d="M578.714 220.547C568.307 216.098 550.21 211.601 535.688 213.317L535.09 214.33C549.644 212.966 568.008 217.115 578.714 220.547Z" fill="#282828"/>
<path d="M544.346 223.088C541.129 220.377 537.932 217.643 534.778 214.861L532.315 219.034L531.876 219.779L525.08 231.297C531.599 241.964 544.099 265.577 552.424 275.882C555.519 276.853 562.708 283.599 564.908 285.393L569.424 276.9L571.786 272.458C571.781 265.024 571.981 257.447 570.514 250.18C572.104 256.679 572.936 263.376 573.049 270.082C576.588 263.589 570.198 245.707 566.976 239.109C567.513 240.448 568.009 241.803 568.473 243.169C560.135 236.249 552.201 228.498 542.639 223.651C554.768 228.655 566.32 235.654 575.965 243.974C567.239 235.214 556.171 227.962 544.346 223.088Z" fill="#282828"/>
<path d="M581.736 252.451L581.95 247.338C580.172 238.516 576.526 229.852 571.477 222.803C576.487 231.69 580.027 242.04 581.736 252.451Z" fill="#282828"/>
<path d="M590.642 226.114C590.836 225.672 591.025 225.234 591.207 224.802C585.966 205.303 576.808 186.325 564.941 170.564C575.949 187.154 584.848 206.491 590.642 226.114Z" fill="#282828"/>
<path d="M581.168 147.125C586.052 167.159 590.195 189.283 593.017 210.651C592.854 189.31 586.71 166.665 581.168 147.125Z" fill="#282828"/>
<path d="M547.041 192.801C551.227 187.111 555.779 180.935 558.276 177.439C554.945 181.459 547.949 190.065 544.078 195.054C547.889 193.598 553.709 191.169 557.796 189.636C553.807 192.791 546.389 198.836 541.242 203.097C541.179 203.316 541.123 203.514 541.072 203.69C550.173 196.97 556.767 191.89 565.274 185.255C559.922 187.455 552.56 190.349 547.041 192.801Z" fill="#282828"/>
<path d="M552.723 164.499C552.541 165.059 552.353 165.648 552.156 166.268C560.936 159.493 571.313 154.41 581.812 151.863C571.458 153.253 561.158 157.832 552.723 164.499Z" fill="#282828"/>
<path d="M492.63 136.449C469.559 134.129 462.915 134.921 462.915 134.921L465.761 140.315L461.88 139.414L461.701 152.68L469.178 170.6C469.178 170.6 482.326 190.873 482.338 188.828C482.349 186.784 479.156 150.864 479.156 150.864L492.63 136.449Z" fill="#282828"/>
<path d="M501.189 146.211L494.565 142.557L492.63 136.449L466.548 136.785L470.245 147.649L464.787 155.86L467.562 161.016L467.549 163.919L472.833 169.686L470.424 173.994L478.433 179.618L484.452 193.812L495.327 196.691C495.327 196.691 500.739 205.07 501.307 206.331C501.875 207.593 526.669 276.126 533.367 279.97C540.066 283.814 559.335 286.458 561.941 287.177C564.547 287.896 571.271 259.704 569.881 253.728C568.491 247.752 517.189 196.318 515.562 194.614C513.934 192.91 510.116 175.291 510.116 175.291L505.955 167.335L506.409 159.406L502.304 153.017L501.189 146.211Z" fill="#CA7546"/>
<path d="M479.956 146.647C483.8 145.742 486.274 144.788 489.104 143.216C486.234 143.991 483.855 144.521 480.375 145.293C478.737 144.426 475.666 143.023 474.052 142.385C474.739 143.675 477.087 145.424 478.876 145.628C476.074 146.249 472.003 147.222 470.244 147.651C472.441 147.729 476.683 147.407 479.956 146.647Z" fill="#282828"/>
<path d="M494.946 147.119C495.227 146.285 468.352 159.126 469.191 159.423C468.911 160.258 495.786 147.416 494.946 147.119Z" fill="#282828"/>
<path d="M492.956 160.044C495.087 159.154 496.409 158.602 496.409 158.602C489.077 159.887 479.02 164.294 473.105 168.813C477.768 166.631 487.83 162.16 492.956 160.044Z" fill="#282828"/>
<path d="M490.224 173.103C482.891 176.503 482.567 171.696 484.222 178.995C482.606 178.751 479.121 178.078 477.959 178.006C479.234 178.531 482.679 179.718 484.445 180.186C484.277 182.462 486.288 190.813 486.472 190.635C486.673 190.846 486.199 182.621 485.393 180.445C485.491 180.472 485.585 180.497 485.685 180.524C485.448 179.124 485.028 177.127 484.748 175.683C487.074 175.343 489.381 174.197 490.908 172.77C490.74 172.852 490.501 172.977 490.224 173.103Z" fill="#282828"/>
<path d="M494.17 201.576L513.803 186.43L524.549 201.002L503.256 215.716L494.17 201.576Z" fill="#282828"/>
<path d="M354.795 319.95C355.844 325.249 359.139 340.415 359.139 340.415C359.139 340.415 358.521 357.712 362.268 367.308C367.813 381.504 372.758 392.397 380.195 425.32C380.991 428.842 378.708 433.722 378.708 433.722C378.708 433.722 382.996 440.924 386.382 442.124C389.769 443.324 406.318 443.724 406.318 443.724L419.541 443.324L410.816 440.124L421.328 436.923C421.328 436.923 433.477 441.499 439.612 439.724C445.746 437.948 448.526 437.989 448.526 437.989C448.526 437.989 433.474 436.017 429.958 433.669C426.442 431.322 416.604 427.287 416.604 427.287L397.273 420.859L384.637 332.405L382.768 307.996L354.795 319.95Z" fill="#E99861"/>
<path d="M439.611 439.722C445.745 437.947 448.525 437.988 448.525 437.988C448.525 437.988 438.836 436.717 433.19 435.003C433.182 435.001 433.168 434.998 433.161 434.996C431.826 434.616 420.637 431.96 420.637 431.96L410.934 434.237C410.934 434.237 400.246 432.274 399.348 431.054C398.626 430.073 385.723 432.393 379.086 432.819C378.867 433.381 378.709 433.721 378.709 433.721C378.709 433.721 382.996 440.922 386.383 442.122C389.769 443.323 406.318 443.723 406.318 443.723L419.541 443.323L410.816 440.122L421.328 436.921C421.327 436.922 433.476 441.498 439.611 439.722Z" fill="#CA7546"/>
<path d="M382.767 307.996L354.795 319.951C355.844 325.25 359.139 340.415 359.139 340.415C359.139 340.415 358.745 351.5 360.511 360.846C367.749 351.632 377.174 339.243 384.41 329.455L382.767 307.996Z" fill="#CA7546"/>
<path d="M356.06 224.674C364.763 225.45 381.873 234.685 380.996 236.39C380.119 238.096 379.137 254.83 379.137 254.83C379.137 254.83 394.075 291.895 394.003 293.545C393.93 295.194 385.039 310.453 385.039 310.453L386.317 318.139C386.317 318.139 376.042 326.087 354.666 326.853L350.592 320.694C350.592 320.694 338.199 318.802 336.593 314.836C334.988 310.87 336.784 260.026 336.784 260.026L356.06 224.674Z" fill="#6A767B"/>
<path d="M367.023 319.429L366.991 319.432C372.442 317.21 377.8 314.772 383.038 312.105L364.088 319.655L363.238 319.72C363.328 319.076 363.37 318.396 363.116 317.688C370.205 313.224 376.852 308.159 382.146 303.574C377.689 306.572 368.623 312.66 362.498 316.721C356.765 313.266 362.518 309.753 365.292 306.444C372.11 298.816 376.527 292.91 381.079 286.137C375.926 292.466 371.186 298.12 364.361 305.691C370.63 294.781 357.152 299.862 356.974 291.889C360.614 287.791 365.659 282.217 367.894 280.233C365.94 281.841 360.67 286.156 356.958 289.194C357.015 288.388 357.128 287.594 357.26 286.797C362.48 282.112 367.601 276.486 371.632 271.129C367.646 275.456 362.74 280.379 358.128 284.474C366.963 270.929 373.55 255.075 377.021 239.738C372.709 254.336 363.12 276.149 353.925 286.864C353.75 282.996 363.456 265.299 364.841 261.577C364.841 261.577 365.792 257.85 366.417 252.604C368.327 247.522 370.419 240.919 371.708 236.168C370.449 239.752 368.353 245.463 366.727 249.494C367.239 243.055 367.038 235.228 364.321 229.122C364.321 229.122 360.533 227.009 356.144 224.684C356.117 224.681 356.087 224.676 356.06 224.674L336.784 260.026C336.784 260.026 334.988 310.87 336.593 314.836C338.198 318.802 350.592 320.694 350.592 320.694L354.666 326.853C355.022 326.841 355.366 326.821 355.716 326.804L362.073 322.658C361.916 323.793 361.746 325.042 361.574 326.326C361.76 326.304 361.953 326.285 362.137 326.262C362.385 324.82 362.625 323.417 362.836 322.16L367.023 319.429ZM355.931 287.986C355.903 288.199 355.869 288.41 355.848 288.625C355.793 289.139 355.754 289.663 355.738 290.192C354.116 291.52 353.01 292.425 353.01 292.425C353.6 290.795 354.77 289.335 355.931 287.986ZM354.237 298.663C354.237 298.663 354.11 295.127 355.952 293.042C355.987 293.212 361.132 297.676 363.887 299.274C368.062 303.696 353.535 316.989 350.803 320.076L353.996 310.74L354.237 298.663ZM350.862 320.673C353.59 318.263 355.929 316.102 359.047 312.999C359.019 313.71 359.155 314.449 359.516 315.077C359.997 316.029 361.017 316.548 361.782 317.197C356.982 320.782 356.554 320.27 350.862 320.673ZM362.494 319.495C362.484 319.589 362.47 319.685 362.459 319.78L359.301 320.023C360.295 319.432 361.332 318.802 362.402 318.134C362.528 318.55 362.535 319.022 362.494 319.495Z" fill="#282828"/>
<path d="M188.659 324.578C166.388 338.705 148.964 380.301 147.941 389.531C146.918 398.761 147.664 507.045 150.823 507.703C153.981 508.36 193.836 503.085 197.43 501.209C201.025 499.332 277.296 476.651 277.296 476.651C277.296 476.651 269.243 375.985 267.229 376.489C265.216 376.993 188.659 324.578 188.659 324.578Z" fill="#282828"/>
<path d="M301.355 212.758C290.328 219.427 262.836 234.453 256.195 241.094C249.554 247.735 218.561 306.178 215.019 307.506C211.477 308.834 180.371 325.704 180.371 325.704C180.371 325.704 170.799 354.473 174.082 366.589C177.365 378.705 207.493 411.996 213.248 415.538C219.004 419.08 240.256 421.593 240.256 421.593L277.641 414.959L276.119 386.317L282.766 380.158L280.546 372.591L290.287 365.507V357.094C290.287 357.094 320.786 335.026 321.926 334.894C323.065 334.762 344.212 325.805 345.63 323.888C352.03 315.239 354.062 287.639 354.242 283.925C354.422 280.212 361.397 261.275 362.112 258.629C362.829 255.983 370.077 240.305 364.321 229.223C358.566 218.14 301.355 212.758 301.355 212.758Z" fill="#6A767B"/>
<path d="M239.943 359.186C249.392 371.105 264.431 380.083 279.753 382.948C264.85 378.991 250.228 370.263 239.943 359.186Z" fill="#282828"/>
<path d="M218.508 400.072C212.609 398.295 206.416 394.101 201.952 388.914C203.072 391.583 204.654 394.785 205.647 397.391C198.975 393.739 192.37 388.079 187.408 383.018C190.544 388.025 193.27 392.908 195.656 397.684C196.371 398.508 197.084 399.32 197.79 400.116C196.321 396.811 194.615 393.339 192.559 389.531C197.143 393.667 202.58 397.19 208.087 399.975C207.034 397.669 205.935 395.33 204.858 393.077C210.429 398.06 218.136 401.057 224.786 401.495C223.211 401.268 220.973 400.88 218.508 400.072Z" fill="#282828"/>
<path d="M203.172 383.665C189.409 367.496 185.671 342.22 194.162 322.76C187.245 335.801 186.755 353.23 192.405 366.961C194.702 372.884 198.913 379.342 203.172 383.665Z" fill="#282828"/>
<path d="M304.306 289.832L300.933 300.801L299.427 284.705C306.746 291.254 315.737 295.965 324.945 298.294C324.945 298.294 324.257 298.034 323.014 297.563C314.324 294.249 306.282 289.302 299.208 282.91L286.427 244.941L282.574 242.875C288.083 232.368 295.473 221.906 303.576 212.982C303.335 212.957 303.111 212.933 302.907 212.912C294.225 221.234 286.8 231.759 282.086 242.612L269.418 235.817L244.201 259.537C238.151 277.697 237.165 293.965 238.151 296.43C239.137 298.894 252.447 332.909 252.447 332.909L232.235 317.627L249.489 336.853L250.036 337.892C247.339 342.052 242.911 355.332 236.496 348.759L235.518 349.341C235.532 349.371 235.554 349.397 235.569 349.427L235.569 349.427C237.318 352.12 235.684 355.526 233.745 357.917C225.259 342.117 219.42 323.595 216.937 305.386C216.735 305.665 216.543 305.923 216.365 306.151C218.354 324.473 224.179 343.109 233.089 358.728C226.338 364.529 231.05 371.976 225.951 373.48C223.225 373.803 219.637 373.883 218.012 376.567C211.4 371.869 203.73 364.75 198.68 359.065C203.488 365.058 210.933 372.447 217.503 377.333C213.88 383.025 217.187 392.126 211.451 396.383C217.379 392.49 214.544 383.326 218.15 377.806C234.56 390.365 255.983 398.426 276.854 400.126L276.829 399.648C256.228 397.188 235.221 389.089 218.688 377.04C220.46 374.501 223.296 374.879 226.179 374.473C232.359 372.784 227.644 364.704 233.717 359.859C237.703 367.03 243.833 375.489 248.893 381.307C244.071 375.145 238.211 366.443 234.359 359.079C236.25 356.849 237.788 354.037 237.432 351.151C245.031 353.783 247.496 343.371 250.417 338.618L254.419 346.22L250.968 360.023L268.447 365.636L268.296 373.758L278.881 382.247C271.805 378.566 262.089 372.367 255.851 367.549C261.364 373.244 271.302 379.587 278.926 382.283L279.754 382.947L282.768 380.155L280.548 372.589L290.288 365.505V357.093C290.288 357.093 310.398 342.542 318.569 337.001L321.11 329.676L305.992 313.194L304.306 289.832Z" fill="#282828"/>
<path d="M366.296 241.115C360.236 258.502 351.651 278.93 343.578 295.408C353.005 279.65 361.587 259.31 366.458 241.289C366.474 241.041 366.489 240.792 366.499 240.543C366.436 240.722 366.369 240.91 366.296 241.115Z" fill="#282828"/>
<path d="M323.932 327.819C328.021 328.372 333.015 328.425 338.049 328.065C339.084 327.579 340.069 327.105 340.968 326.658C340.402 326.709 339.844 326.758 339.304 326.803C334.089 327.276 327.355 327.659 323.932 327.819Z" fill="#282828"/>
<path d="M215.753 354.622C214.81 340.137 214.307 323.659 214.279 307.822C213.978 307.959 213.618 308.13 213.207 308.329C213.031 316.853 213.181 325.466 213.697 333.297C214.143 340.676 214.934 348.491 215.753 354.622Z" fill="#282828"/>
<path d="M205.593 343.265C205.395 333.463 205.756 322.414 206.579 311.707C206.193 311.908 205.8 312.113 205.4 312.323C204.623 320.351 204.439 328.534 204.955 335.886C205.119 338.726 205.4 341.495 205.593 343.265Z" fill="#282828"/>
<path d="M240.844 315.442C234.586 308.999 229.054 301.365 224.602 293.186C224.361 293.591 224.123 293.991 223.889 294.384C228.267 302.416 234.08 309.709 240.844 315.442Z" fill="#282828"/>
<path d="M182.138 324.748C181.27 332.305 181.361 339.975 182.474 347.205C182.134 339.708 182.473 331.838 183.428 324.051C182.948 324.31 182.516 324.543 182.138 324.748Z" fill="#282828"/>
<path d="M233.709 412.347C247.822 414.045 263.367 412.74 277.313 408.777L277.283 408.217C263.258 411.203 247.884 412.63 233.709 412.347Z" fill="#282828"/>
<path d="M301.359 212.758C296.16 228.135 284.702 240.61 285.877 243.165C287.052 245.721 293.189 276.932 298.259 279.17C303.33 281.409 329.252 299.979 331.908 298.651C334.565 297.322 357.058 264.479 355.33 261.42C353.603 258.361 354.489 229.356 354.489 229.356L301.359 212.758Z" fill="#E99861"/>
<path d="M354.798 259.173C353.808 251.581 354.487 229.357 354.487 229.357L301.357 212.758C299.628 217.873 297.206 222.664 294.787 226.878C297.113 243.763 308.796 258.76 318.679 268.728C310.856 268.49 298.878 268.226 292.785 268.597L294.949 274.393L320.009 270.051C325.7 275.63 330.595 279.426 332.444 280.806C332.642 286.346 332.786 295.134 331.907 298.652L335.663 294.388L333.235 281.385L354.798 259.173Z" fill="#CA7546"/>
<path d="M368.093 216.004C370.698 209.234 372.122 203.978 372.122 203.978L376.18 178.67C376.18 178.67 360.156 156.433 357.003 154.542C353.851 152.65 317.294 152.105 317.294 152.105L300.883 182.286C293.249 207.933 296.469 231.24 296.469 231.24C296.469 231.24 305.982 253.366 311.603 259.844C328.356 259.692 344.732 247.559 351.425 242.682C353.155 241.421 354.796 239.785 356.343 237.903C358.548 237.291 360.968 236.577 363.301 235.806C370.493 233.427 373.202 214.957 373.202 214.957C373.202 214.957 371.333 214.763 368.093 216.004Z" fill="#E99861"/>
<path d="M305.981 214.345C305.981 214.345 304.501 212.07 305.053 209.858C305.606 207.647 307.983 206.336 307.983 206.336C307.983 206.336 309.464 208.611 308.911 210.823C308.358 213.034 305.981 214.345 305.981 214.345Z" fill="#282828"/>
<path d="M334.934 223.076C334.934 223.076 333.454 220.801 334.006 218.589C334.559 216.377 336.936 215.066 336.936 215.066C336.936 215.066 338.417 217.342 337.864 219.553C337.312 221.765 334.934 223.076 334.934 223.076Z" fill="#282828"/>
<path d="M303.941 195.531C309.858 192.944 321.375 200.81 321.375 200.81C321.375 200.81 314.604 186.152 303.941 195.531Z" fill="#282828"/>
<path d="M331.352 204.98C339.446 206.99 349.726 212.049 349.726 212.049C349.726 212.049 351.509 201.72 331.352 204.98Z" fill="#282828"/>
<path d="M319.064 235.144L310.765 230.395C310.765 230.395 318.337 218.391 320.055 210.348C316.385 218.655 304.615 230.474 304.623 230.5C308.078 231.437 319.064 235.144 319.064 235.144Z" fill="#282828"/>
<path d="M325.042 241.993C323.963 241.507 320.695 239.481 320.695 239.481C320.695 239.481 318.355 239.62 317.185 239.689C316.014 239.758 314.008 236.932 314.008 236.932C314.008 236.932 308.158 236.573 306.151 236.038L306.653 233.266L304.312 234.813L307.023 237.091L307.814 240.29C307.814 240.29 307.716 248.141 313.174 250.418C321.745 253.992 327.622 245.993 328.816 245.225C329.992 244.469 332.397 244.25 332.397 244.25C332.397 244.25 327.51 243.103 325.042 241.993Z" fill="#282828"/>
<path d="M332.563 240.918L332.396 244.249L333.901 245.091L332.563 240.918Z" fill="#230B00"/>
<path d="M307.818 237.271C319.338 242.777 328.881 243.818 328.881 243.818C328.881 243.818 322.492 246.846 316.682 246.337C310.872 245.829 307.818 237.271 307.818 237.271Z" fill="white"/>
<path d="M315.288 248.803C315.288 248.803 313.656 249.495 312.141 248.822C310.627 248.149 309.805 246.366 309.805 246.366C309.805 246.366 311.437 245.674 312.952 246.347C314.466 247.02 315.288 248.803 315.288 248.803Z" fill="white"/>
<path d="M370.176 217.393C366.347 219.814 363.165 223.322 360.969 227.338C362.893 226.79 364.923 226.195 366.802 225.469C366.81 225.478 366.804 225.503 366.801 225.529C365.91 227.655 363.033 230.918 361.221 232.234C364.475 230.603 367.532 227.124 369.084 223.576C367.375 224.012 365.668 224.561 363.951 225.067L363.949 225.066L363.948 225.064L363.949 225.061C363.948 225.064 363.938 225.066 363.938 225.058C365.473 222.713 367.381 220.648 369.415 218.782C369.475 219.712 369.359 221.89 369.375 222.497C369.595 221.314 370.043 218.814 370.176 217.393Z" fill="#282828"/>
<path d="M387.652 182.231C390.679 184.557 394.477 186.384 398.022 187.297C398.022 187.297 397.674 187.127 397.046 186.821C391.756 184.243 386.571 180.857 383.812 175.388C383.857 173.9 383.719 172.371 383.429 170.924C384.833 173.025 386.353 175.46 387.481 177.247C386.617 172.358 384.068 166.792 380.624 162.803C383.765 163.595 387.351 162.922 389.711 161.27C386.611 161.847 383.498 161.682 380.092 160.185C380.092 160.175 380.092 160.175 380.092 160.164C380.723 159.947 381.374 159.278 381.649 158.573C384.927 160.772 388.019 156.127 386.156 153.229C387.426 152.228 387.874 151.217 387.851 150.218C388.482 151.732 388.895 153.318 389.023 154.938C389.956 150.694 388.494 145.39 385.191 141.965C384.963 140.777 385.029 139.522 384.955 138.296C384.041 137.486 383.103 136.657 382.166 135.843C382.166 135.842 382.168 135.838 382.169 135.837C382.169 135.837 383.099 135.772 384.156 135.504C382.885 133.508 381.524 131.532 379.596 130.158C381.296 130.336 386.842 131.126 386.963 131.142C382.827 128.57 376.719 128.111 371.83 125.947C373.888 125.639 375.369 123.763 376.16 121.949C373.077 121.588 369.238 121.691 366.016 122.154C366.036 122.118 366.087 122.077 366.122 122.074C367.244 121.117 367.659 119.107 366.482 117.963C367.011 117.628 367.919 117.221 368.407 117.032C365.716 115.976 361.728 117.008 360.065 119.448C360.081 119.517 359.69 120.009 359.666 119.953C359.748 119.827 359.701 119.618 359.652 119.46C359.234 117.362 357.355 115.378 355.133 115.524C355.691 115.071 356.206 114.735 356.573 114.501C354.757 115.437 351.842 116.307 351.19 118.547C348.882 117.415 345.778 119.05 345.389 121.756C345.343 121.741 345.298 121.723 345.251 121.709C345.029 115.983 349.471 109.055 355.564 109.418C348.729 106.811 341.988 115.096 343.041 121.779C340.459 122.742 339.637 125.873 340.216 128.352C340.214 128.356 340.208 128.355 340.208 128.353C340.21 128.354 340.213 128.362 340.209 128.365L340.205 128.367C335.629 125.472 328.064 130.394 332.494 135.373C325.214 133.138 316.563 135.577 311.622 140.647C316.667 137.797 321.927 136.27 328.936 137.086C327.527 137.282 326.244 138.322 325.903 139.741C318.1 140.582 311.036 142.764 304.395 146.177C299.733 145.923 294.517 144.613 290.387 142.907C293.894 144.878 298.537 146.479 302.734 147.071C294.544 152.146 285.778 156.486 282.977 166.116C285.298 161.567 288.88 157.448 293.237 154.458C288.005 159.698 287.409 169.579 293.872 174.221C287.381 176.759 279.403 176.031 273.289 173.122C277.606 176.051 283.153 177.322 288.522 176.759C281.531 180.104 277.544 191.863 286.176 195.705C280.009 198.06 276.849 208.663 284.829 210.588C285.461 210.754 286.272 210.543 286.692 210.245C284.201 212.602 284.265 217.128 286.399 219.585C283.037 224.715 282.302 232.399 286.931 236.638C283.226 248.856 289.009 262.938 299.623 269.205C290.638 262.388 285.604 249.83 288.919 238.13C290.157 238.897 291.982 239.223 292.951 239.162C291.969 239.109 290.167 238.562 289.048 237.675C290.661 228.903 299.444 224.723 297.505 220.09C295.975 216.437 296.768 212.247 299.681 209.564C303.373 206.163 305.753 202.478 300.159 200.348C295.577 194.694 305.954 191.788 309.026 189.571C313.466 188.71 318.256 189.96 322.426 186.932C320.571 191.691 322.812 199.859 324.503 204.269C323.207 199.153 329.568 178.997 334.414 177.239C345.884 178.241 344.979 188.555 345.526 188.652C345.598 188.995 357.578 192.671 355.052 199.537C349.79 213.884 341.257 225.832 356.34 237.74C360.457 250.827 340.545 255.834 349.188 279.521C346.902 272.061 347.637 263.355 351.851 256.213C353.887 252.621 357.709 248.822 358.904 244.291C359.853 252.994 346.48 259.524 351.058 268.302C347.668 255.581 366.922 253.716 358.776 237.515C360.863 237.94 363.02 237.984 365.203 237.732C364.888 237.869 361.914 241.141 361.787 241.19C368.896 240.041 376.373 233.714 380.586 223.902C386.572 218.601 388.276 211.297 389.56 204.232C391.877 212.268 388.239 222.173 381.885 227.086C389.788 222.557 393.832 210.857 389.933 202.281C391.035 195.569 390.277 188.528 387.652 182.231ZM383.812 175.387V175.388C383.804 175.376 383.796 175.365 383.788 175.354C383.808 175.382 383.812 175.387 383.812 175.387ZM297.852 150.516C298.215 150.318 298.623 150.102 299.064 149.874C298.114 150.407 297.166 151.091 296.111 151.488C296.522 151.26 297.091 150.912 297.852 150.516ZM285.84 217.494C285.094 215.297 285.712 212.349 287.492 210.701C287.521 210.408 287.621 210.022 287.82 209.754C287.931 211.677 288.475 213.7 289.543 215.394C288.49 216.578 287.51 217.821 286.67 219.146C286.341 218.666 286.051 218.121 285.84 217.494ZM294.169 219.426C298.971 221.809 288.702 227.574 287.165 235.853C283.685 231.697 284.769 225.294 287.82 220.905C289.312 221.999 291.107 222.387 292.467 222.279C291.124 222.272 289.394 221.773 288.017 220.614C288.852 219.371 289.836 218.194 290.88 217.085C291.781 218.051 293.116 218.762 294.169 219.426ZM357.523 224.575C357.951 222.145 361.689 223.071 363.299 221.111C369.083 223.576 370.891 215.808 372.85 215.41C372.872 215.44 372.803 215.571 372.789 215.608C371.657 222.967 368.638 231.787 361.039 233.963C365.652 226.426 357.683 227.851 357.523 224.575Z" fill="#282828"/>
<path d="M42.7384 370.805C15.6892 370.926 0.929658 387.53 0.00705606 391.22C-0.915546 394.91 88.9439 621.752 88.9439 621.752L135.419 562.239L42.7384 370.805Z" fill="#282828"/>
<path d="M694.631 340.485C715.403 327.616 748.135 346.019 748.135 346.019C748.135 346.019 714.003 507.453 711.236 505.608C708.468 503.763 627.29 489.925 628.213 486.235C629.135 482.546 694.631 340.485 694.631 340.485Z" fill="#282828"/>
<path d="M113.664 300.294C125.09 308.792 145.095 314.737 145.095 314.737C145.095 314.737 147.435 351.42 146.028 351.889C144.621 352.358 113.195 354.703 113.195 354.703L77.4727 338.173L78.4787 296.004L113.664 300.294Z" fill="#282828"/>
<path d="M174.272 344.039C185.253 361.902 208.719 393.297 208.719 393.297L218.253 408.106L216.985 418.674C216.985 418.674 202.184 428.089 195.615 426.053C189.046 424.018 157.615 367.33 157.615 367.33L174.272 344.039Z" fill="#F17F5B"/>
<path d="M147.765 324.098C155.389 326.013 169.949 324.039 174.487 331.311C179.025 338.583 195.615 370.757 195.615 370.757L202.757 376.706C202.757 376.706 174.501 403.936 165.452 404.941C156.404 405.946 142.72 399.513 142.72 399.513C142.72 399.513 136.168 360.457 135.899 352.912C135.63 345.366 147.765 324.098 147.765 324.098Z" fill="#E8833D"/>
<path d="M157.222 242.504C157.11 241.435 157.049 240.306 157.049 239.134C157.049 232.623 158.916 227.346 161.218 227.346C162.013 227.346 162.756 227.975 163.388 229.067C161.852 232.316 160.349 235.586 158.866 238.869C158.318 240.081 157.77 241.293 157.222 242.504ZM165.345 237.535C165.241 235.382 164.935 233.412 164.479 231.792C163.099 234.736 161.745 237.698 160.405 240.669C159.568 242.523 158.73 244.376 157.888 246.225C158.195 247.377 158.576 248.361 159.01 249.129C161.058 245.214 163.164 241.344 165.345 237.535ZM159.603 250.002C160.1 250.593 160.645 250.923 161.218 250.923C163.495 250.923 165.345 245.761 165.385 239.349C163.401 242.855 161.479 246.411 159.603 250.002Z" fill="url(#paint0_linear_1188_501)"/>
<path d="M161.219 251.244C158.733 251.244 156.785 245.926 156.785 239.136C156.785 232.346 158.733 227.027 161.219 227.027C163.706 227.027 165.654 232.346 165.654 239.136C165.654 245.926 163.706 251.244 161.219 251.244ZM161.219 227.667C159.104 227.667 157.316 232.919 157.316 239.135C157.316 245.352 159.104 250.604 161.219 250.604C163.336 250.604 165.123 245.352 165.123 239.135C165.123 232.919 163.335 227.667 161.219 227.667Z" fill="#282828"/>
<path d="M123.264 293.026C138.053 300.564 151.632 298.781 151.632 298.781L151.951 282.767L156.61 278.711L155.314 273.234L157.93 269.233L156.497 261.722L169.213 256.671C159.357 252.6 156.531 234.383 156.531 234.383L158.75 230.531C158.75 230.531 157.305 220.009 148.783 195.264C148.783 195.264 125.931 178.417 105.68 177.359C85.428 176.301 63.002 215.733 63.002 215.733L70.3714 256.293C70.3714 256.293 84.7958 274.337 85.7429 276.575C86.6899 278.813 86.4746 294.761 80.6523 309.853C80.6523 309.853 98.4684 335.729 102.286 338.274C106.104 340.819 136.646 348.03 136.646 348.03C136.646 348.03 122.84 315.454 123.264 293.026Z" fill="#FF9F7D"/>
<path d="M94.938 273.246C94.938 273.246 89.9865 273.616 84.1964 274.185C85.0144 275.332 85.5817 276.192 85.7448 276.577C86.6919 278.815 86.4765 294.763 80.6543 309.854C80.6543 309.854 98.4703 335.73 102.288 338.275C106.106 340.821 136.648 348.032 136.648 348.032C136.648 348.032 127.184 325.702 124.169 305.289C116.592 298.519 99.3145 281.606 94.938 273.246Z" fill="#F17F5B"/>
<path d="M123.262 293.027C118.013 291.028 104.771 283.083 103.636 282.326C102.501 281.57 94.9336 273.246 94.9336 273.246C94.9336 273.246 104.84 297.907 124.369 306.619C123.615 301.918 123.181 297.289 123.262 293.027Z" fill="#C1532E"/>
<path d="M102.103 263.166C100.117 261.27 95.0277 255.915 95.6182 252.802C96.9631 251.866 98.3561 253.52 99.3681 254.338L101.374 252.573C98.2339 248.444 95.179 244.956 91.0145 242.205C90.9551 242.194 90.8008 241.991 90.77 242.104C89.1246 244.811 88.1982 248.384 88.2151 251.016C88.849 249.031 89.5988 246.639 91.2749 244.533C92.9617 246.28 94.4811 248.065 96.0266 250.031C87.9588 252.581 98.9095 261.96 102.424 263.454C102.423 263.454 102.313 263.355 102.103 263.166Z" fill="#282828"/>
<path d="M150.003 240.575C147.889 240.569 145.49 239.186 143.657 237.951C143.638 237.988 143.62 238.02 143.623 238.057C140.122 240.54 132.36 242.908 132.915 242.613C132.397 242.645 140.583 236.095 144.112 234.877C145.84 236.922 147.881 239.186 150.003 240.575Z" fill="#282828"/>
<path d="M156.268 269.213C149.107 269.211 139.469 269.34 139.469 269.34C139.469 269.34 145.066 276.288 152.141 276.583C154.205 271.276 156.268 269.213 156.268 269.213Z" fill="white"/>
<path d="M151.952 282.768C147.135 282.422 142.586 278.953 142.586 278.953C142.586 278.953 147.134 284.95 148.398 284.95C149.662 284.95 151.952 282.768 151.952 282.768Z" fill="#282828"/>
<path d="M128.09 231C137.356 223.731 147.874 223.346 147.874 223.346L152.5 227.278L148.753 227.115L128.09 231Z" fill="#282828"/>
<path d="M157.215 223.213L154.195 227.137L158.37 228.728L157.215 223.213Z" fill="#282828"/>
<path d="M144.649 244.219C144.494 243.032 144.41 241.777 144.41 240.477C144.41 233.245 146.971 227.383 150.131 227.383C151.222 227.383 152.242 228.082 153.109 229.295C151.002 232.903 148.939 236.535 146.903 240.182C146.152 241.527 145.401 242.873 144.649 244.219ZM155.795 238.699C155.652 236.308 155.232 234.12 154.605 232.32C152.711 235.591 150.854 238.881 149.015 242.18C147.867 244.239 146.717 246.297 145.561 248.351C145.982 249.631 146.505 250.724 147.1 251.577C149.912 247.229 152.802 242.93 155.795 238.699ZM147.916 252.547C148.597 253.203 149.345 253.57 150.131 253.57C153.256 253.57 155.794 247.836 155.85 240.715C153.127 244.608 150.489 248.558 147.916 252.547Z" fill="url(#paint1_linear_1188_501)"/>
<path d="M150.13 253.926C146.718 253.926 144.045 248.018 144.045 240.477C144.045 232.935 146.718 227.027 150.13 227.027C153.542 227.027 156.215 232.935 156.215 240.477C156.215 248.018 153.542 253.926 150.13 253.926ZM150.13 227.738C147.227 227.738 144.773 233.572 144.773 240.477C144.773 247.382 147.227 253.215 150.13 253.215C153.034 253.215 155.487 247.382 155.487 240.477C155.487 233.572 153.034 227.738 150.13 227.738Z" fill="#282828"/>
<path d="M145.127 234.16H93.3398V234.553L145.127 235.627V234.16Z" fill="#282828"/>
<path d="M157.117 234.528H155.351L154.814 232.973H157.654L157.117 234.528Z" fill="#282828"/>
<path d="M169.214 256.672L153.205 259.904L156.497 261.722L169.214 256.672Z" fill="#C1532E"/>
<path d="M169.064 177.384C167.268 184.194 163.448 191.34 158.867 196.654C165.035 192.291 169.301 184.057 169.307 176.502C169.307 176.502 169.22 176.817 169.064 177.384Z" fill="#282828"/>
<path d="M167.644 177.949L158.812 181.383C162.411 175.641 163.364 167.7 160.47 161.682C161.3 164.575 161.482 168.169 160.796 171.231C159.742 166.641 156.996 162.916 156.996 162.916C156.055 165.831 148.448 168.473 136.123 169.571C141.544 167.623 146.4 163.385 148.995 158.811C132.699 177.973 121.791 165.125 100.938 164.293C86.1574 164.101 64.7871 183.473 63.6243 185.8C62.4614 188.125 62.5107 198.551 62.5107 198.551L49.0957 210.429L52.3254 235.291C56.718 249.629 73.3704 273.021 78.0521 275.029C82.7338 277.036 85.8691 287.079 85.8691 287.079L99.3996 270.089C99.3996 270.089 94.3361 272.251 93.3448 270.954C81.3573 255.273 83.8431 250.625 89.9827 236.299C89.9827 236.299 99.6222 240.842 102.723 244.331L107.709 258.179L111.31 249.316C111.31 249.316 106.791 236.016 108.263 234.637C109.735 233.257 119.065 221.065 119.065 221.065C119.065 221.065 118.699 212.004 119.895 206.109C145.081 189.007 150.855 214.907 166.663 198.066L157.402 197.706C162.344 193.846 167.644 177.949 167.644 177.949Z" fill="#282828"/>
<path d="M78.4784 295.998C93.667 305.729 116.383 314.471 117.34 316.164C118.296 317.858 122.153 338.471 122.804 339.573C123.456 340.674 136.647 348.026 136.647 348.026L141.021 331.638L145.095 314.731L153.16 322.273C153.16 322.273 170.419 330.307 171.826 334.998C173.233 339.688 188.243 397.381 188.243 397.381C188.243 397.381 223.89 468.675 221.076 470.551C218.262 472.427 118.355 517.925 109.912 517.925C101.469 517.925 80.8315 521.208 80.8315 521.208C80.8315 521.208 73.7259 500.247 72.7199 500.57C71.7134 500.893 63.5878 459.988 63.2308 458.883C62.8738 457.779 45.2601 422.409 43.4895 419.445C41.7189 416.482 33.4581 382.371 32.989 380.495C32.5199 378.618 32.0508 347.662 32.0508 347.662C32.0508 347.662 38.1482 339.688 42.8388 337.343C47.5293 334.998 71.3804 317.093 71.3804 317.093L78.4784 295.998Z" fill="#E8833D"/>
<path d="M54.8552 432.767C54.9727 433.172 55.3879 433.53 55.9708 433.845C55.1839 432.86 54.751 432.408 54.8552 432.767Z" fill="#282828"/>
<path d="M116.528 353.57C116.687 353.668 113.526 351.725 112.57 351.146C97.5535 341.755 83.4983 329.296 71.9698 315.35L71.6035 316.438C83.5914 331.911 99.4287 345.113 116.528 353.57Z" fill="#282828"/>
<path d="M143.269 391.978C138.676 411.018 129.929 441.437 123.912 459.646C133.035 437.566 142.465 403.841 146.117 380.23C145.436 383.067 144.393 387.465 143.269 391.978Z" fill="#282828"/>
<path d="M155.672 380.788C154.398 366.48 151.883 349.978 149.095 336.631C156.909 381.856 158.072 431.679 152.423 477.449C146.602 475.287 119.654 465.197 119.217 463.447C118.85 461.98 113.912 430.057 110.965 412.615C114.024 399.452 115.436 385.515 114.92 372.409C114.809 368.672 114.35 363.058 113.962 359.902C114.663 376.111 113.436 393.39 110.502 409.898C109.733 405.437 109.153 402.332 108.913 401.623C107.779 398.277 110.385 379.053 110.385 377.581C110.385 376.109 105.441 393.988 105.441 393.988C105.441 393.988 103.025 376.109 103.025 373.655C103.025 371.202 92.2419 346.848 92.2419 346.848L91.1456 355.533C86.6894 350.135 66.8891 340.978 50.3113 339.817C50.3113 339.817 47.1107 338.57 43.1728 337.169C43.0544 337.234 42.9415 337.294 42.8407 337.344C38.1502 339.689 32.0527 347.663 32.0527 347.663C32.0527 347.663 32.5218 378.62 32.9909 380.496C33.3311 381.858 37.7721 400.183 40.8611 411.274C47.4057 418.482 54.7317 426.414 59.1753 431.209C59.6381 432.525 60.0869 433.861 60.5202 435.214C58.9747 434.921 57.1358 434.471 55.9729 433.844C57.4169 435.651 60.0574 439.264 62.7949 443.021C64.1731 448.268 65.2845 453.63 66.0154 458.892C67.257 463.808 65.6238 471.093 70.888 473.902C72.4078 474.645 74.5051 473.736 75.5297 475.158C72.5756 474.861 69.5165 474.506 66.4339 474.112C66.5274 474.559 66.6218 475.008 66.7171 475.462C69.7483 475.898 72.7627 476.244 75.6822 476.475C74.5704 479.357 73.7481 483.191 77.0297 484.986C74.4739 484.268 71.3272 483.355 68.1994 482.438C68.2816 482.821 68.3642 483.202 68.446 483.582C72.2531 484.9 76.3241 486.183 80.9548 487.49C80.6636 488.823 80.4347 490.213 80.2594 491.63C77.2105 492.801 73.9087 494.013 71.033 495.05C71.8591 498.459 72.4858 500.647 72.7218 500.572C73.7283 500.25 80.8335 521.21 80.8335 521.21C80.8335 521.21 101.471 517.926 109.914 517.926C113.318 517.926 131.591 510.53 152.374 501.579L143.75 495.83L152.014 480.636C151.952 481.114 151.893 481.594 151.829 482.072C151.918 481.556 151.996 481.028 152.083 480.509L153.526 477.857C153.526 477.857 153.182 477.73 152.572 477.504C157.46 446.566 158.641 412.011 155.672 380.788ZM61.3126 435.356C60.9429 434.321 60.5628 433.297 60.1721 432.285C62.1054 434.37 63.288 435.64 63.288 435.64C63.288 435.64 62.4543 435.548 61.3126 435.356ZM67.6414 461.131C66.962 455.891 65.8544 450.523 64.4235 445.257C68.0338 450.21 71.4287 454.834 72.0622 455.287C80.753 461.49 85.3529 469.711 87.754 476.24C84.1155 475.977 80.369 475.662 76.9298 475.302C73.7422 468.958 68.969 479.572 67.6414 461.131ZM80.315 485.917C80.6518 485.906 81.1331 485.824 81.351 485.665C81.319 485.81 81.2697 486.03 81.2372 486.177C80.93 486.091 80.6219 486.004 80.315 485.917ZM81.0046 491.342C81.2111 490.1 81.4589 488.883 81.751 487.711C83.4875 488.18 104.039 494.98 105.635 495.378C104.052 496.072 83.1621 490.506 81.0046 491.342ZM88.4992 488.196C86.2671 487.585 84.0792 486.978 82.0743 486.411C82.25 485.654 82.524 484.873 82.6702 484.108C80.1781 485.885 76.4405 484.522 75.7901 481.466C75.5031 479.75 76.6883 478.289 76.9298 476.574C80.4562 476.862 97.4314 479.094 101.159 479.121C102.999 484.407 90.2677 486.346 90.2677 486.998C90.2677 487.228 89.6098 487.649 88.4992 488.196Z" fill="#282828"/>
<path d="M167.15 373.428C172.76 399.985 183.243 455.325 187.736 482.091C187.256 478.208 186.491 472.202 185.602 466.026C182.144 439.976 173.801 398.284 167.15 373.428Z" fill="#282828"/>
<path d="M203.897 455.404C199.425 445.355 190.849 425.16 186.977 415.711C190.899 429.838 199.369 449.602 206.893 462.186C206.893 462.186 205.748 459.593 203.897 455.404Z" fill="#282828"/>
<path d="M117.338 316.165C113.583 320.783 113.615 346.526 113.615 346.526L71.3789 317.093L78.4769 298.967L117.338 316.165Z" fill="#282828"/>
<path d="M156.184 338.702L142.773 334.851L145.094 314.73L156.184 338.702Z" fill="#282828"/>
<path d="M117.338 316.165C113.583 320.783 109.862 338.348 109.862 338.348L71.3789 317.093L78.4769 295.998L117.338 316.165Z" fill="#E8833D"/>
<path d="M46.9978 335.438C65.8388 340.138 85.75 352.144 88.3606 359.861C90.9716 367.577 100.45 393.899 104.044 402.062C122.751 417.659 152.915 475.582 152.915 475.582C152.915 475.582 124.488 489.636 119.936 488.485C115.385 487.333 84.2892 450.492 78.1913 444.864C72.0939 439.235 38.0731 398.41 36.818 384.75C35.5628 371.089 24.9279 347.069 46.9978 335.438Z" fill="#FF9F7D"/>
<path d="M116.669 416.173C112.218 410.263 107.89 405.268 104.045 402.063C103.014 399.719 101.496 395.875 99.7958 391.408C89.9725 401.044 74.2563 417.771 64.1152 428.673C70.4946 436.601 76.0572 442.893 78.1928 444.864C79.5613 446.127 82.1909 448.965 85.4948 452.616C91.3895 444.292 102.73 429.339 116.669 416.173Z" fill="#C1532E"/>
<path d="M111.846 456.502C111.364 461.324 119.938 488.485 119.938 488.485L144.839 460.762C140.167 452.447 133.914 441.721 127.294 431.506C126.156 429.75 112.226 452.697 111.846 456.502Z" fill="#282828"/>
<path d="M70.9544 446.068C85.4947 424.961 119.177 414.24 119.177 414.24L104.276 397.757C104.276 397.757 94.1821 360.476 87.0828 353.381C79.9835 346.285 55.1032 333.097 46.9966 335.436C38.8901 337.775 30.3477 350.116 30.3477 350.116L34.5691 392.33L58.0215 426.57L70.9544 446.068Z" fill="#E8833D"/>
<path d="M88.3225 407.5C86.8743 408.592 84.6481 410.301 82.4151 412.14C76.1137 417.091 68.0467 424.937 61.2598 432.479L61.7971 433.458C70.7454 424.32 81.8023 413.46 88.3225 407.5Z" fill="#230B00"/>
<path d="M104.276 397.755C104.276 397.755 104.155 397.307 103.93 396.502C99.8594 398.735 95.7357 401.525 93.6094 403.611C93.8269 403.49 99.078 400.628 104.306 397.781L104.276 397.755Z" fill="#230B00"/>
<path d="M93.6077 403.615L93.609 403.613C93.5984 403.619 93.5953 403.621 93.6077 403.615Z" fill="#230B00"/>
<path d="M57.0278 425.119C58.5923 422.228 60.156 419.145 61.7845 415.699C66.0093 414.25 69.7149 419.177 68.0261 422.69C69.9063 419.104 66.3423 414.09 62.05 415.133C66.4903 405.6 69.814 396.2 72.181 387.806C70.4407 392.146 66.3554 402.131 63.3511 408.937C51.6625 409.333 51.203 394.463 48.2502 386.182C43.3982 370.797 38.0388 359.275 31.5878 348.436C31.4668 348.593 31.3526 348.742 31.248 348.881C37.1773 359.863 42.208 371.372 46.9668 386.574C49.8956 395.181 50.8869 409.99 62.7729 409.852C61.6155 412.315 60.4969 414.537 59.3661 416.905C59.3965 416.933 59.4289 416.957 59.4639 416.977C59.6173 416.876 59.7686 416.777 59.9208 416.677C59.01 418.735 57.735 421.506 56.4466 424.27L57.0278 425.119Z" fill="#230B00"/>
<path d="M91.1393 359.773C90.8814 359.247 90.6238 358.742 90.368 358.259C78.0749 350.698 62.9024 343.488 51.0586 339.814C52.865 340.625 55.672 341.869 58.5372 343.193C67.6102 347.275 80.5304 353.897 91.1393 359.773Z" fill="#230B00"/>
<path d="M114.645 453.901C122.343 435.665 144.573 417.918 150.776 409.472C156.978 401.027 175.584 367.114 175.584 367.114C175.584 367.114 178.224 354.578 176.376 347.056L180.203 330.166C180.203 330.166 194.191 316.046 196.104 303.312C196.104 303.312 203.692 306.941 199.667 315.981C195.642 325.02 191.749 336.434 191.749 336.434L207.585 338.414C207.585 338.414 212.995 324.295 215.832 319.61C218.67 314.925 226.785 310.901 226.785 310.901L218.075 334.257C218.075 334.257 228.83 317.697 246.051 323.173C246.051 323.173 233.052 333.664 228.764 337.952C224.475 342.241 217.943 349.037 217.943 349.037C217.943 349.037 233.646 340.064 240.574 340.394C247.502 340.724 256.013 343.825 256.013 343.825C256.013 343.825 234.966 346.662 226.058 353.589C226.058 353.589 246.05 348.905 251.197 355.767C251.197 355.767 222.958 362.101 218.339 364.74C213.72 367.379 203.295 377.012 203.295 377.012L195.18 381.037C195.18 381.037 170.305 435.073 169.117 439.428C167.93 443.783 153.282 480.335 153.282 480.335C153.282 480.335 121.306 492.429 118.667 487.811C116.028 483.192 114.645 453.901 114.645 453.901Z" fill="#FF9F7D"/>
<path d="M207.425 338.431L191.742 336.47C191.742 336.47 193.586 331.064 196.048 324.746L179.448 333.504L177.344 342.793L207.377 339.199L207.425 338.431Z" fill="#C1532E"/>
<path d="M246.82 327.262L259.223 329.708L247.314 333.948L216.747 336.203L170.115 339.643C169.192 339.712 166.593 337.47 166.525 336.547C166.457 335.623 168.698 333.025 169.622 332.957L216.253 329.517L246.82 327.262Z" fill="#282828"/>
<path d="M169.623 332.957L170.117 339.644L173.089 343.266L204.134 340.976L177.212 340.561L176.542 331.486L169.623 332.957Z" fill="white"/>
<path d="M207.382 339.162C207.745 340.867 208.056 342.585 208.474 344.277C208.727 345.305 209.005 346.384 209.449 347.367C210.984 346.153 212.378 344.787 213.614 343.261C216.726 339.42 226.503 310.854 226.503 310.854C226.503 310.854 218.387 314.878 215.55 319.563C212.713 324.247 207.302 338.367 207.302 338.367L207.207 338.355C207.266 338.624 207.325 338.893 207.382 339.162Z" fill="#FF9F7D"/>
<path d="M212.812 348.158C213.818 347.629 214.714 347.158 215.418 346.788C216.076 344.236 217.12 339.431 217.494 337.355C216.755 339.246 215.326 343.482 214.502 346.021C208.566 348.433 200.015 353.554 195.934 356.593C199.801 354.735 207.697 350.83 212.812 348.158Z" fill="#282828"/>
<path d="M217.34 355.262C217.376 354.361 217.3 352.525 217.225 351.867C216.986 352.478 216.64 354.269 216.383 355.117C213.385 354.987 209.019 356.893 207.18 358.38C209.67 357.745 214.298 356.623 217.302 356.008C217.314 355.753 217.327 355.505 217.34 355.262Z" fill="#282828"/>
<path d="M538.875 323.055L536.216 305.565L521.372 290.89L513.332 287.44C513.332 287.44 506.083 278.278 494.961 281.326C494.961 281.326 509.727 289.032 513.205 299.071L495.971 296.986C495.971 296.986 486.666 287.529 483.13 285.785C479.594 284.04 473.322 282.649 473.322 282.649C473.322 282.649 481.397 285.781 484.643 295.425C487.888 305.069 501.88 314.849 501.88 314.849L526.761 329.245C526.761 329.245 532.847 389.429 533.352 392.965C533.857 396.502 542.445 414.687 542.445 414.687L558.917 405.808C558.917 405.808 558.303 380.337 557.983 379.038C557.663 377.738 538.875 323.055 538.875 323.055Z" fill="#E9896F"/>
<path d="M526.761 329.245C526.761 329.245 527.061 332.209 527.532 336.856C533.701 340.11 540.125 342.918 546.616 345.617C542.514 333.646 538.875 323.055 538.875 323.055L536.216 305.565L521.372 290.89L513.332 287.44C513.332 287.44 506.083 278.277 494.961 281.327C494.961 281.327 509.727 289.032 513.205 299.071L495.971 296.986C495.971 296.986 486.666 287.529 483.13 285.785C479.594 284.04 473.322 282.649 473.322 282.649C473.322 282.649 481.397 285.781 484.643 295.425C487.888 305.069 501.88 314.849 501.88 314.849L526.761 329.245Z" fill="#FFB398"/>
<path d="M495.149 300.893C493.15 297.12 487.829 292.019 483.805 289.424C486.528 292.686 488.928 297.292 488.23 301.075C488.852 299.258 488.928 296.682 488.237 294.547C491.886 297.945 494.467 300.962 496.91 304.181C496.529 303.364 495.909 302.117 495.149 300.893Z" fill="#282828"/>
<path d="M532.188 321.034C528.218 310.046 521.515 310.465 511.636 309.394C510.064 305.541 504.826 300.085 500.834 297.997C502.912 301.712 502.107 305.018 503.791 310.1C501.247 302.994 494.688 297.836 494.688 297.836C497.024 302.717 497.758 306.567 498.033 310.847C498.396 308.218 498.301 305.073 497.528 301.971C502.242 308.264 504.343 310.726 505.519 314.555C505.429 313.196 504.437 303.272 502.835 300.661C505.425 302.984 512.319 311.017 512.772 312.086C512.665 311.777 512.213 310.588 511.92 309.989C522.417 312.241 526.855 311.459 532.613 322.092C532.613 322.092 532.461 321.715 532.188 321.034Z" fill="#282828"/>
<path d="M516.113 300.907C520.494 302.343 526.972 305.805 530.553 308.551C526.802 303.55 519.653 299.994 513.402 300.018C514.054 300.225 515.087 300.54 516.113 300.907Z" fill="#282828"/>
<path d="M585.549 311.084L581.003 323.114L578.897 336.818C578.897 336.818 560.292 357.558 560.797 359.074C561.302 360.589 561.302 371.703 561.302 371.703L554.679 369.196C554.679 369.196 547.157 394.434 545.642 395.445C544.127 396.455 531.498 407.568 531.498 407.568L543.622 421.207L545.137 431.816L553.992 432.076L560.328 435.483C560.328 435.483 604.043 398.681 605.299 396.636C606.556 394.591 613.848 317.045 609.336 316.695C604.824 316.345 585.549 311.084 585.549 311.084Z" fill="#6A767B"/>
<path d="M561.302 371.702L554.679 369.195C554.679 369.195 547.157 394.434 545.642 395.444C544.127 396.454 531.498 407.568 531.498 407.568L543.622 421.207L545.137 431.815L553.992 432.076L560.327 435.482C560.327 435.482 570.39 404.73 570.825 402.989C571.26 401.249 561.302 371.702 561.302 371.702Z" fill="#6A767B"/>
<path d="M605.298 396.637C606.555 394.592 613.846 317.045 609.334 316.695C605.046 316.363 587.44 311.598 585.699 311.125C584.984 323.513 583.445 336.837 583.445 336.837L570.056 354.398L566.471 367.302C566.471 367.302 563.809 395.156 562.119 397.767C560.848 399.731 565.432 419.509 567.78 429.188C580.32 418.583 604.37 398.146 605.298 396.637Z" fill="#282828"/>
<path d="M592.985 241.655C588.931 266.444 603.387 291.21 603.387 291.21L602.828 279.103L608.721 287.501L612.004 276.176L616.289 282.237C616.289 282.237 643.971 268.526 647.456 270.825C650.942 273.124 660.152 280.685 660.152 280.685L666.413 275.684L659.977 261.921L677.882 270.923L690.111 266.038C690.111 266.038 675.207 239.018 673.47 237.963C671.733 236.908 658.415 224.778 651.467 224.778C644.518 224.778 614.408 223.723 614.408 223.723L592.985 241.655Z" fill="#282828"/>
<path d="M613.089 262.493C606.918 268.775 587.83 271.548 587.83 271.548L585.138 257.125L580.764 255.583L582.664 248.877L577.303 243.576L577.42 236.072L566.748 233.161L579.869 208.909L575.836 196.467C575.836 196.467 575.837 187.044 583.972 163.377L607.869 156.191L652.181 166.453C652.181 166.453 661.044 217.296 660.577 220.095C660.111 222.894 649.849 257.411 649.849 257.411L659.956 286.62L645.891 312.553L625.834 352.668C625.834 352.668 596.914 375.99 597.38 373.192C597.846 370.393 607.246 308.462 607.246 308.462C607.246 308.462 619.071 305.604 621.715 290.946C623.285 282.245 613.089 262.493 613.089 262.493Z" fill="#FFB398"/>
<path d="M577.303 243.576L580.434 243.876L582.057 242.805L587.528 244.619L593.472 243.758L592.599 242.107L595.307 243.489C595.307 243.489 593.908 247.622 592.2 250.103C589.085 254.624 585.138 257.126 585.138 257.126L580.763 255.584L582.664 248.878L577.303 243.576Z" fill="#282828"/>
<path d="M581.961 246.185L583.353 246.026L588.662 246.237L593.678 244.498C593.678 244.498 589.107 249.499 583.657 251.727L581.961 246.185Z" fill="white"/>
<path d="M566.748 233.16L580.2 233.44L577.42 236.071L566.748 233.16Z" fill="#C1532E"/>
<path d="M584.697 203.475C582.383 203.524 580.959 205.562 576.588 203.742C577.803 204.19 581.298 207.358 582.408 207.76C582.578 209.709 583.455 214.279 583.803 215.338C584.011 214.558 584.577 210.259 584.635 208.529C585.705 208.992 590.319 210.512 590.515 210.383C590.515 210.383 584.702 204.227 584.697 203.475Z" fill="#282828"/>
<path d="M575.834 196.463L577.881 193.111C577.881 193.111 588.355 194.463 592.995 198.199C592.995 198.199 580.621 195.104 579.873 195.104C579.126 195.104 575.834 196.463 575.834 196.463Z" fill="#282828"/>
<path d="M690.365 260.408C683.484 248.663 677.592 234.734 675.808 221.522C678.364 213.022 678.761 203.906 677.099 194.731C672.826 176.56 659.814 141.512 636.878 143.077C627.547 140.019 617.174 140.877 608.629 144.824C601.863 138.823 584.341 140.046 584.341 140.046C584.341 140.046 567.661 160.548 563.88 174.447C563.88 174.447 564.019 174.277 564.275 173.963C562.17 182.269 563.617 192.377 567.707 199.31C577.881 193.113 578.996 207.679 592.887 195.458C596.515 199.215 609.128 197.491 608.591 197.626C608.962 197.096 618.097 228.877 613.126 243.796C613.67 243.034 615.559 239.768 616.188 238.258L616.187 238.263C616.068 239.078 623.185 228.051 622.663 230.328C622.67 230.308 622.713 230.302 622.729 230.328C622.765 235.785 622.114 241.894 627.361 243.972C621.787 238.087 623.703 210.727 638.964 209.513C645.462 224.476 633.682 231.681 634.189 230.969C625.879 249.644 626.465 273.499 635.916 291.509C632.864 280.232 634.032 274.241 635.322 282.636C636.543 277.178 640.804 265.056 640.959 265.872C642.682 280.227 650.261 272.41 657.619 267.278C657.62 267.266 657.634 267.241 657.639 267.23C663.898 271.218 673.236 271.989 679.564 269.014C680.456 269.452 676.018 263.825 673.082 260.048C675.997 260.642 680.975 261.552 684.411 262.172C683.455 261.004 679.44 258.638 679.746 257.037C683.017 258.704 686.929 259.384 690.365 260.408Z" fill="#282828"/>
<path d="M625.653 234.427C627.704 232.47 632.957 226.942 632.348 223.728C630.959 222.762 629.522 224.469 628.477 225.314L626.405 223.492C629.647 219.23 632.801 215.629 637.099 212.789C637.161 212.778 637.32 212.569 637.352 212.686C639.05 215.479 640.007 219.168 639.99 221.885C639.335 219.836 638.561 217.366 636.831 215.192C635.089 216.996 633.521 218.839 631.926 220.868C640.254 223.5 628.95 233.183 625.322 234.725C625.322 234.725 625.436 234.622 625.653 234.427Z" fill="#282828"/>
<path d="M587.828 271.547C587.828 271.547 606.916 268.774 613.087 262.493C613.087 262.493 623.283 282.244 621.713 290.945C629.545 285.985 623.661 255.822 623.661 254.604C623.661 253.386 594.565 270.255 587.828 271.547Z" fill="#E9896F"/>
<path d="M656.318 267.4C639.263 278.364 624.645 296.637 624.645 296.637C624.645 296.637 618.162 324.031 616.647 324.536C615.131 325.041 603.93 344.326 603.93 344.326L610.596 321.144L622.408 289.852L610.299 293.916L604.066 304.372L585.547 311.091C585.547 311.091 587.966 331.749 585.955 336.78C583.945 341.811 566.255 369.085 566.23 371.925C566.204 374.765 577.365 412.597 577.415 415.895C577.464 419.193 568.372 448.997 568.372 448.997L573.928 459.606L560.289 485.369L671.423 482.843C671.423 482.843 691.629 470.214 690.619 468.699C689.608 467.183 688.598 421.214 688.598 418.689C688.598 416.163 718.969 338.177 718.969 338.177C718.969 338.177 708.141 302.132 698.093 298.023C688.044 293.914 663.627 282.831 663.627 282.831L656.318 267.4Z" fill="#6A767B"/>
<path d="M569.141 450.469L570.047 452.199C583.645 459.597 598.994 464.412 613.952 465.764C614.105 465.794 610.965 465.187 610.012 465.01C596.109 462.221 582.041 457.173 569.141 450.469Z" fill="#282828"/>
<path d="M576.018 468.436C584.047 467.684 592.449 467.104 600.715 466.33C593.499 464.673 585.415 462.887 579.043 461.037C577.331 460.563 575.589 460.03 573.843 459.445L573.927 459.605L573.552 460.313C579.706 462.563 586.138 464.295 592.373 465.749C585.782 466.925 578.919 465.672 573.028 468.602C568.715 474.577 583.323 474.999 586.509 474.547C584.848 476.589 583.665 478.043 583.087 478.754C585.325 479.495 586.009 479.721 586.009 479.721C586.009 479.721 585.37 479.482 583.28 478.702C584.365 477.467 586.023 475.601 587.201 474.197C584.297 475.073 566.156 471.99 576.018 468.436Z" fill="#282828"/>
<path d="M674.382 400.081C676.033 398.222 700.947 380.799 703.012 379.489C710.852 359.009 718.965 338.175 718.965 338.175C718.965 338.175 688.266 297.385 683.099 295.742C677.933 294.099 663.383 308.215 663.383 308.215L675.706 293.32L658.073 310.312L651.769 316.387L649.158 327.702L646.982 335.972L646.112 318.128C646.112 318.128 642.758 336.01 642.536 338.714L628.268 352.51L628.104 367.925L608.683 375.576L592.299 399.389C581.678 370.138 583.233 376.284 599.509 349.069C599.506 349.604 599.504 349.897 599.504 349.897C600.336 347.572 602.898 343.189 605.458 339.001L605.943 337.314C603.583 340.895 601.1 344.68 599.793 346.717C600.688 335.321 602.766 317.828 604.83 303.083L604.063 304.37L603.528 304.564C601.08 318.952 599.495 335.041 599.525 347.13C594.528 356.784 581.143 369.096 584.913 381.805C586.642 388.149 590.387 393.59 592.103 399.598L591.897 399.819C583.223 391.38 574.32 381.547 566.27 371.632C566.244 371.746 566.227 371.845 566.227 371.923C566.224 372.203 566.332 372.828 566.525 373.721C573.948 383.373 582.73 392.672 591.582 400.156L577.357 415.365C577.39 415.586 577.41 415.768 577.412 415.894C577.422 416.583 577.032 418.434 576.41 420.926L593.792 434.925L582.445 443.882L624.351 461.313L646.982 426.496C646.982 426.496 649.38 419.45 653.811 416.1C657.101 416.672 660.45 417.093 663.672 417.294C662.94 421.517 663.137 426.524 666.161 429.868C659.83 433.435 652.228 437.419 645.284 440.931C652.326 439.354 661.025 437.39 668.305 435.721C665.613 438.443 663.204 440.879 661.73 442.37C663.922 443.416 665.914 444.37 667.826 445.281C662.884 449.854 649.822 462.069 648.305 463.507C650.074 461.968 663.357 450.265 668.562 445.631C668.934 445.806 669.942 446.293 670.007 446.308C667.159 449.677 659.308 453.461 659.402 457.812C660.277 461.198 664.463 461.185 666.99 459.997C666.687 461.101 666.394 462.172 666.105 463.226C649.227 468.107 631.725 471.055 614.777 472.207C631.6 471.995 648.962 469.543 665.699 464.709C663.983 470.97 662.222 477.389 660.666 483.086L660.982 483.079C662.67 477.334 664.566 470.857 666.429 464.496C674.3 462.204 682.129 459.342 689.662 456.049C689.649 455.756 689.637 455.458 689.624 455.16C682.263 458.11 674.735 460.703 666.866 463.007C667.263 461.651 667.671 460.259 668.092 458.822C665.613 460.177 659.357 460.831 660.479 456.352C663.714 452.493 668.187 449.626 672.003 446.043C671.405 445.751 670.53 445.323 669.485 444.812C674.679 440.198 679.877 435.539 685.326 430.651C681.806 431.426 677.327 432.413 672.294 433.521C672.912 432.905 673.537 432.28 674.166 431.653C672.07 431.707 669.866 431.594 668.187 430.023C675.643 425.688 682.562 421.351 689.045 417.029C689.141 416.729 689.25 416.401 689.375 416.03C682.523 420.378 675.231 424.77 667.334 429.212C664.399 426.12 664.298 421.387 664.985 417.377C668.998 417.614 673.22 417.573 676.577 417.361C675.552 417.275 668.039 416.618 665.17 416.269C665.798 412.919 666.534 409.564 667.245 406.249C675.437 403.519 683.847 398.854 690.363 393.665C684.223 397.792 676.661 401.675 669.308 404.243C672.016 402.125 673.972 400.543 674.382 400.081ZM681.466 432.658C676.771 437.002 672.5 440.953 668.728 444.442C667.256 443.723 665.529 442.878 663.774 442.02C665.325 440.473 667.814 437.989 670.617 435.193C674.366 434.317 677.93 433.539 681.466 432.658ZM671.152 432.84C670.755 433.242 670.36 433.642 669.966 434.039C665.965 434.935 661.624 435.908 657.188 436.901C656.409 437.079 655.635 437.255 654.885 437.425C659.117 435.172 663.156 432.924 666.978 430.719C668.17 431.824 669.64 432.601 671.152 432.84ZM663.869 416.122C661.342 415.853 658.322 415.466 655.22 415.033C658.617 412.462 662.448 409.547 665.794 406.969C665.129 410.008 664.446 413.036 663.869 416.122Z" fill="#282828"/>
<path d="M664.352 283.161C663.882 282.948 663.623 282.83 663.623 282.83L663.405 282.369C652.509 293.776 641.75 306.139 633.957 316.416C639.647 310.054 650.693 297.817 659.567 288.299C661.096 286.647 662.706 284.919 664.352 283.161Z" fill="#282828"/>
<path d="M595.809 318.898C593.468 323.382 589.885 329.822 586.05 336.512C586.019 336.605 585.986 336.695 585.952 336.779C584.812 339.633 578.628 349.641 573.484 358.289C574.229 357.309 575.042 356.218 575.848 355.094C582.806 345.877 591.813 329.478 595.809 318.898Z" fill="#282828"/>
<path d="M663.627 282.829L656.317 267.398C639.263 278.362 624.644 296.635 624.644 296.635C624.644 296.635 618.162 324.029 616.646 324.534C615.131 325.038 603.93 344.324 603.93 344.324C603.93 344.324 626.094 316.822 630.011 311.6C633.928 306.377 663.627 282.829 663.627 282.829Z" fill="#6A767B"/>
<path d="M604.351 319.438C604.157 320.714 603.93 344.326 603.93 344.326L610.596 321.144L622.407 289.852L610.299 293.915L604.065 304.372C604.065 304.372 604.545 318.162 604.351 319.438Z" fill="#6A767B"/>
<path d="M533.09 343.764C533.09 343.764 514.402 332.709 512.885 332.711C511.369 332.713 491.489 325.928 491.489 325.928C491.489 325.928 464.716 328.454 455.623 324.918C455.623 324.918 459.982 334.385 468.411 333.945C476.84 333.505 490.179 332.037 490.179 332.037L483.75 350.406C483.75 350.406 495.53 355.227 499.066 360.279L509.664 358.529L517.163 361.529L525.434 356.511C525.434 356.511 557.579 394.108 563.903 405.897C570.228 417.688 603.305 413.475 603.305 413.475L599.422 386.841L533.09 343.764Z" fill="#FFB398"/>
<path d="M508.608 337.992C503.625 343.385 499.611 350.987 497.555 358.564C497.825 358.822 498.082 359.082 498.317 359.344C500.836 352.288 504.275 344.973 507.975 339.034C508.382 338.364 508.608 337.992 508.608 337.992Z" fill="#282828"/>
<path d="M510.004 349.305C508.858 352.299 507.744 353.889 505.424 355.993L503.926 358.469C504.379 358.172 507.155 356.358 507.676 356.007C507.669 356.023 507.665 356.031 507.665 356.031C508.503 355.404 509.495 354.818 510.299 354.185C510.216 355.447 509.891 357.005 509.466 358.564L509.665 358.531L510.243 358.762C510.661 357.662 511.022 356.522 511.293 355.376C512.38 357.084 513.699 358.243 515.164 359.031C515.164 359.031 515.045 358.881 514.832 358.612C513.67 357.115 512.628 355.477 511.699 353.293C511.77 352.846 512.251 351.905 511.97 351.574C511.972 351.555 515.977 353.444 515.963 353.45C515.326 352.682 510.724 350.086 510.004 349.305Z" fill="#282828"/>
<path d="M490.146 353.485C493.654 347.573 497.427 340.061 499.325 334.655C499.614 333.869 499.851 333.198 499.919 332.926C501.227 332.882 501.949 332.868 502.67 332.827C501.892 332.757 500.738 332.694 499.738 332.643C496.683 338.198 492.615 346.353 489.365 353.067C489.623 353.203 489.883 353.342 490.146 353.485Z" fill="#282828"/>
<path d="M683.104 295.74C676.537 299.782 652.864 312.557 653.805 319.988C654.746 327.418 651.191 333.415 646.641 339.011C642.091 344.606 629.431 354.184 629.519 356.31C629.607 358.435 629.165 370.059 629.165 370.059L611.273 379.104L605.754 388.375L598.238 381.616L592.682 374.544L582.074 373.028C582.074 373.028 572.078 402.891 558.891 410.439C558.891 410.439 563.893 422.497 566.673 424.169C568.413 425.215 580.497 436.364 580.497 436.364C580.497 436.364 587.912 432.603 589.065 432.8C592.148 433.327 622.046 450.688 622.046 450.688C622.046 450.688 645.274 418.322 648.026 415.122C650.778 411.922 698.259 380.1 699.774 375.554C701.29 371.008 718.97 340.193 718.97 338.173C718.97 336.153 708.867 301.669 683.104 295.74Z" fill="#6A767B"/>
<path d="M606.306 387.455L605.757 388.377L605.504 388.15C606.011 401.375 605.054 415.197 602.693 427.824C606.326 415.684 607.721 401.494 606.431 388.769C606.396 388.344 606.353 387.905 606.306 387.455Z" fill="#282828"/>
<path d="M622.167 422.362C615.991 410.841 611.091 398.08 607.719 385.08L606.842 386.554C610.188 400.161 615.865 413.373 623.381 424.646C623.381 424.646 622.949 423.833 622.167 422.362Z" fill="#282828"/>
<path d="M623.238 449.034C625.827 438.066 631.972 417.924 635.72 408.234C635.01 409.63 633.934 411.799 632.924 414.084C628.531 423.278 624.176 438.985 623.031 449.321C623.097 449.23 623.167 449.133 623.238 449.034Z" fill="#282828"/>
<path d="M668.182 391.31C667.63 391.46 666.869 391.664 665.94 391.809C656.132 393.827 644.965 385.039 645.516 374.305L644.522 374.217C643.238 381.276 641.619 390.383 640.242 398.364C636.513 384.988 632.78 369.633 629.744 355.658C629.598 355.918 629.515 356.141 629.522 356.311C629.533 356.582 629.536 357.008 629.532 357.543C632.437 373.024 636.35 389.801 640.548 404.428C642.102 395.159 643.571 386.57 644.929 377.99C646.679 388.38 659.004 394.894 668.182 391.31Z" fill="#282828"/>
<path d="M706.247 329.516C706.188 327.503 706.155 326.391 706.155 326.391C705.848 343.437 702.854 361.261 697.604 378.086C698.49 377.263 699.14 376.579 699.496 376.068C704.287 360.964 706.681 344.941 706.247 329.516Z" fill="#282828"/>
<path d="M687.238 305.469C687.384 305.403 684.361 306.76 683.448 307.178C672.648 312.232 662.319 319.219 653.238 327.479C653.001 328.324 652.711 329.152 652.373 329.964C662.997 320.31 674.946 311.873 687.238 305.469Z" fill="#282828"/>
<path d="M598.238 381.619L592.682 374.547L582.074 373.031C582.074 373.031 572.079 402.894 558.891 410.442C558.891 410.442 563.893 422.499 566.673 424.171C568.414 425.218 580.497 436.367 580.497 436.367C580.497 436.367 587.912 432.606 589.066 432.803C604.644 415.322 605.754 388.378 605.754 388.378L598.238 381.619Z" fill="#6A767B"/>
<path d="M598.778 392.472C594.966 396.799 589.282 403.246 584.829 408.367C590.11 399.727 594.113 389.658 596.597 379.531L596.091 378.887C592.567 391.997 586.539 404.802 578.227 415.955L579.25 416.777C585.272 409.819 591.55 402.648 597.276 395.844C596.004 408.137 590.202 421.77 583.406 430.819C591.471 421.074 597.664 406.004 598.778 392.472Z" fill="#282828"/>
<path d="M739.818 533.023L83.1523 537.912C85.2462 549.927 87.8513 597.697 89.1676 623.978C168.763 661.765 264.296 624.192 348.925 619.756C461.887 614.629 581.974 682.805 688.399 619.561C710.641 609.444 727.737 591.928 736.681 571.146L739.818 533.023Z" fill="#787378"/>
<path d="M726.446 588.946C743.658 565.599 749.249 535.015 737.087 505.579C729.046 485.527 722.121 468.443 716.215 453.645C630.763 447.564 299.812 433.658 299.812 433.658L35.9844 524.984L40.5965 550.813L699.244 586.789C699.244 586.789 712.071 588.48 726.446 588.946Z" fill="#CDCBCC"/>
<path d="M35.9844 524.984L736.94 570.548L726.357 589.065L40.597 550.813L35.9844 524.984Z" fill="#969294"/>
<path d="M104.118 510.6L97.5137 514.61L226.082 530.615C226.082 530.615 496.399 545.593 497.95 545.871C499.5 546.15 550.814 554.442 550.814 554.442L711.087 543.002L570.045 452.195L306.612 435.744L104.118 510.6Z" fill="#969294"/>
<path d="M311.578 438.34L119.688 514.194C119.688 514.194 459.298 538.825 460.569 538.745C461.84 538.666 575.735 462.172 575.735 462.172L311.578 438.34Z" fill="#F1F2F2"/>
<path d="M425.085 523.667L375.018 521.29L409.309 505.613L459.376 507.99L425.085 523.667Z" fill="#E8833D"/>
<path d="M506.952 481.785L456.885 479.408L491.176 463.73L541.243 466.107L506.952 481.785Z" fill="#E8833D"/>
<path d="M495.788 505.267L445.721 502.89L480.012 487.213L530.079 489.59L495.788 505.267Z" fill="#E8833D"/>
<path d="M273.626 497.001L223.559 494.625L257.85 478.947L307.917 481.324L273.626 497.001Z" fill="#6A767B"/>
<path d="M336.899 511.981L286.832 509.604L315.547 493.662L365.614 496.039L336.899 511.981Z" fill="#E8833D"/>
<path d="M224.02 505.321L173.953 502.944L202.668 487.002L252.735 489.379L224.02 505.321Z" fill="#6A767B"/>
<path d="M336.032 464.157L285.965 461.78L314.68 445.838L364.747 448.215L336.032 464.157Z" fill="#6A767B"/>
<path d="M414.657 503.905L364.59 501.528L393.305 485.586L443.372 487.963L414.657 503.905Z" fill="#6A767B"/>
<path d="M195.338 505.177L132.366 498.244C131.469 498.146 130.152 498.342 129.427 498.685L104.118 510.602C103.391 510.944 103.531 512.493 104.428 512.592L167.399 519.524C168.297 519.623 169.613 519.426 170.339 519.083L195.648 507.166C196.374 506.824 196.235 505.275 195.338 505.177Z" fill="#282828"/>
<path d="M195.586 505.252L170.339 517.14C169.613 517.482 168.297 517.679 167.4 517.58L104.428 510.648C104.337 510.638 104.256 510.61 104.18 510.572L104.118 510.601C103.391 510.943 103.531 512.492 104.428 512.591L167.399 519.523C168.297 519.622 169.613 519.425 170.339 519.083L195.648 507.165C196.3 506.858 196.253 505.581 195.586 505.252Z" fill="#6A767B"/>
<path d="M162.821 515.813L112.514 510.274C111.797 510.196 111.686 509.91 112.266 509.637L132.485 500.116C133.065 499.843 134.117 499.685 134.834 499.765L185.141 505.303C185.858 505.382 185.969 505.667 185.389 505.94L165.17 515.461C164.59 515.734 163.538 515.892 162.821 515.813Z" fill="#335773"/>
<path d="M185.141 505.3L184.265 505.203C161.562 506.462 138.847 507.705 116.111 507.823L112.266 509.634C111.686 509.907 111.797 510.193 112.514 510.272L120.304 511.129C124.863 511.117 129.422 511.094 133.98 511.049C148.384 510.909 162.798 510.57 177.185 509.801L185.389 505.937C185.969 505.664 185.859 505.378 185.141 505.3Z" fill="url(#paint2_linear_1188_501)"/>
<path d="M162.823 515.809C163.54 515.888 164.591 515.731 165.171 515.458L171.88 512.299C161.011 512.801 150.132 513.071 139.25 513.214L162.823 515.809Z" fill="url(#paint3_linear_1188_501)"/>
<path d="M134.832 499.763C134.115 499.684 133.064 499.841 132.483 500.114L130.105 501.234C134.811 501.123 139.516 500.973 144.218 500.796L134.832 499.763Z" fill="url(#paint4_linear_1188_501)"/>
<path d="M443.428 452.585L506.399 445.652C507.297 445.554 508.613 445.751 509.339 446.093L534.648 458.01C535.374 458.352 535.235 459.901 534.338 460L471.367 466.932C470.469 467.031 469.153 466.834 468.426 466.492L443.117 454.574C442.392 454.232 442.53 452.684 443.428 452.585Z" fill="#282828"/>
<path d="M443.179 452.66L468.425 464.549C469.152 464.89 470.468 465.088 471.366 464.989L534.337 458.056C534.428 458.046 534.51 458.018 534.586 457.98L534.648 458.009C535.374 458.351 535.235 459.9 534.337 459.999L471.366 466.931C470.468 467.03 469.152 466.833 468.426 466.491L443.117 454.573C442.465 454.267 442.512 452.989 443.179 452.66Z" fill="#6A767B"/>
<path d="M475.943 463.221L526.25 457.683C526.967 457.604 527.078 457.318 526.498 457.045L506.279 447.524C505.699 447.251 504.648 447.094 503.93 447.173L453.624 452.711C452.907 452.79 452.795 453.076 453.376 453.349L473.595 462.869C474.175 463.142 475.226 463.3 475.943 463.221Z" fill="#335773"/>
<path d="M453.625 452.708L454.502 452.611C477.206 453.87 499.919 455.113 522.655 455.232L526.5 457.042C527.08 457.315 526.97 457.601 526.253 457.68L518.463 458.538C513.903 458.525 509.345 458.502 504.786 458.458C490.382 458.318 475.969 457.978 461.582 457.209L453.378 453.346C452.797 453.072 452.909 452.787 453.625 452.708Z" fill="url(#paint5_linear_1188_501)"/>
<path d="M475.946 463.217C475.229 463.296 474.177 463.139 473.597 462.866L466.889 459.707C477.757 460.209 488.637 460.479 499.518 460.622L475.946 463.217Z" fill="url(#paint6_linear_1188_501)"/>
<path d="M503.933 447.171C504.65 447.092 505.702 447.249 506.282 447.522L508.66 448.642C503.954 448.532 499.25 448.382 494.547 448.204L503.933 447.171Z" fill="url(#paint7_linear_1188_501)"/>
<path d="M233.649 477.053C231.698 477.053 221.452 465.344 212.67 473.638C203.887 481.932 231.664 514.648 231.664 514.648L231.21 503.4C231.21 503.4 217.548 492.178 215.597 482.42C213.646 472.662 224.867 472.662 234.625 482.908L233.649 477.053Z" fill="#E8833D"/>
<path d="M230.664 527.741C235.237 529.201 247.11 531.786 265.76 527.541C267.204 527.213 268.256 525.965 268.326 524.486C268.924 511.885 272.586 476.458 273.492 464.389C273.612 462.801 272.579 461.357 271.038 460.957C266.679 459.826 257.573 457.795 248.402 457.795C239.217 457.795 230.083 459.832 225.724 460.962C224.189 461.36 223.159 462.795 223.268 464.377L228.387 524.833C228.48 526.177 229.38 527.331 230.664 527.741Z" fill="#E8833D"/>
<path d="M259.898 475.925C259.079 492.862 258.496 509.811 257.769 526.752C257.068 526.848 256.376 526.937 255.699 527.014C256.42 508.718 256.872 490.407 257.938 472.126C258.661 472.036 259.384 471.922 260.106 471.797C260.036 473.173 259.965 474.549 259.898 475.925Z" fill="white"/>
<path d="M235.362 471.429C235.37 473.518 235.375 475.608 235.384 477.697C235.455 494.031 235.581 510.364 235.666 526.697C234.161 526.435 232.888 526.143 231.857 525.867C231.837 524.913 231.813 523.96 231.785 523.006C231.26 505.386 229.354 487.837 228.158 470.254C230.549 470.691 232.952 471.089 235.362 471.429Z" fill="white"/>
<path d="M248.078 468.018C260.82 468.018 271.15 466.348 271.15 464.288C271.15 462.228 260.82 460.559 248.078 460.559C235.336 460.559 225.006 462.228 225.006 464.288C225.006 466.348 235.336 468.018 248.078 468.018Z" fill="#335773"/>
<path d="M266.868 466.45C262.685 467.398 255.83 468.017 248.076 468.017C240.322 468.017 233.466 467.398 229.283 466.45C233.466 465.502 240.322 464.883 248.076 464.883C255.83 464.883 262.685 465.502 266.868 466.45Z" fill="white"/>
<path d="M582.987 502.005H545.42L538.195 420.73H590.211L582.987 502.005Z" fill="white"/>
<path d="M584.778 487.315H543.57L538.918 434.576H589.489L584.778 487.315Z" fill="#6A767B"/>
<path d="M587.562 421.262H540.844L545.71 412.18H582.695L587.562 421.262Z" fill="#AAA7AA"/>
<path d="M595.268 426.87H533.139L539.61 417.787H588.797L595.268 426.87Z" fill="#928E92"/>
<path d="M545.702 554.442L435.358 534.637C432.648 534.15 430.676 531.792 430.676 529.039C430.676 526.148 432.845 523.717 435.717 523.388L581.786 506.674L707.918 539.695L545.702 554.442Z" fill="#282828"/>
<path d="M545.702 546.082L435.358 526.276C434.26 526.079 433.286 525.571 432.513 524.857C431.379 525.902 430.676 527.396 430.676 529.04C430.676 531.794 432.648 534.152 435.358 534.638L545.702 554.443L707.918 539.697L684.21 533.49L545.702 546.082Z" fill="#706B70"/>
<path d="M555.339 542.607L494.584 532.991L651.44 514.963L714.487 528.139L555.339 542.607Z" fill="#969294"/>
<path d="M545.701 554.44L600.875 393.76C601.395 392.244 602.799 391.207 604.402 391.157L751.61 386.498C754.274 386.414 756.219 388.993 755.405 391.532L707.918 539.693L545.701 554.44Z" fill="#706B70"/>
<path d="M550.814 554.44L605.988 393.76C606.508 392.244 607.912 391.207 609.515 391.157L756.722 386.498C759.387 386.414 761.332 388.993 760.518 391.532L713.031 539.693L550.814 554.44Z" fill="#282828"/>
<path d="M404.832 435.562C409.74 435.092 414.16 432.361 415.107 432.361C416.054 432.361 421.736 432.361 421.736 432.361C421.736 432.361 424.262 437.824 425.209 438.734C426.156 439.644 428.05 441.465 428.05 441.465C428.05 441.465 424.262 443.893 423.315 443.893C422.368 443.893 417.422 442.265 417.422 442.265L404.832 435.562Z" fill="#E99861"/>
<path d="M395.295 422.598C396.558 420.777 404.45 416.832 404.45 416.832L428.757 451.124V455.676L432.545 460.835H427.179L424.338 457.496L420.715 456.551L395.295 422.598Z" fill="#282828"/>
<path d="M412.149 427.693L404.45 416.832C404.45 416.832 396.558 420.777 395.295 422.598L402.857 432.699C405.702 431.105 409.587 429.042 412.149 427.693Z" fill="#E8833D"/>
<path d="M424.332 457.496L424.338 457.498L427.179 460.836H432.547L428.758 455.677V454.459L424.332 457.496Z" fill="#E8833D"/>
<path d="M426.703 451.237C426.703 451.237 419.334 439.282 411.964 436.625C404.595 433.969 394.923 430.869 394.923 430.869L391.115 434.967C391.115 434.967 387.715 437.311 383.042 437.416C372.722 428.617 358.585 412.731 347.508 400.582C332.344 383.952 316.914 371.32 316.914 371.32C316.914 371.32 310.665 360.59 305.795 342.289L275.295 358.125L288.282 384.362C288.282 384.362 300.989 407.126 318.095 418.31C342.024 433.955 360.161 448.175 368.915 455.322C368.955 455.822 381.105 466.29 381.105 466.29C381.105 466.29 388.474 465.848 390.316 465.848C392.159 465.848 405.055 466.733 405.055 466.733L408.74 464.077L413.807 461.42L414.728 458.321C417.031 459.206 420.716 456.55 420.716 456.55L419.334 452.122C422.558 453.45 426.703 451.237 426.703 451.237Z" fill="#E99861"/>
<path d="M419.333 452.124C417.392 452.035 411.394 446.269 411.394 446.269C411.394 446.269 410.152 445.7 408.666 445.055C406.72 444.21 404.355 443.234 403.818 443.234C402.871 443.234 396.873 441.717 396.873 441.717L407.922 446.876L419.333 452.124Z" fill="#282828"/>
<path d="M414.727 458.322L406.659 454.765L400.977 452.034L392.453 447.785C392.453 447.785 397.188 453.247 398.451 453.551C399.714 453.854 405.712 456.585 406.659 456.889C407.606 457.193 414.727 458.322 414.727 458.322Z" fill="#282828"/>
<path d="M408.74 464.081L400.661 459.926L391.822 457.195C391.822 457.195 396.242 461.14 398.136 461.747C400.03 462.354 408.74 464.081 408.74 464.081Z" fill="#282828"/>
<path d="M312.647 362.425C310.566 357.519 308.035 350.708 305.795 342.289L275.295 358.125L287.678 383.142C297.295 376.331 305.999 368.865 312.647 362.425Z" fill="#CA7546"/>
<path d="M393.988 434.743C393.962 434.353 393.748 433.456 393.699 433.32C393.81 436.766 391.495 440.841 387.862 442.513C387.571 444.221 388.113 446.533 388.992 447.82C388.638 446.61 388.444 444.56 388.802 443.151C392.171 441.874 394.35 438.032 393.988 434.743Z" fill="#282828"/>
<path d="M373.756 447.216C373.658 447.783 373.608 449.126 373.621 449.334C374.631 444.348 378.657 439.052 383.415 437.538C379.126 437.352 374.424 442.393 373.756 447.216Z" fill="#282828"/>
<path d="M385.312 451.398C384.559 451.57 383.755 451.765 382.992 451.989C383.307 453.525 383.712 455.485 384.179 457.143C384.182 457.143 384.186 457.146 384.192 457.153C384.192 457.155 384.191 457.158 384.189 457.162C383.476 457.347 382.602 457.56 381.891 457.736C381.999 459.268 382.401 461.988 382.652 463.226C382.775 462.279 382.817 459.734 382.882 458.469C383.798 458.418 384.702 458.176 385.637 458.018C385.242 456.502 384.588 453.794 384.044 452.545C385.092 452.073 387.255 451.232 388.013 450.84C387.741 450.874 386.03 451.235 385.312 451.398Z" fill="#282828"/>
<path d="M269.419 235.82C278.07 241.174 294.012 254.56 294.895 269.935C295.778 285.31 302.609 304.813 305.993 310.202C309.376 315.591 318.767 326.913 318.767 326.913L311.498 344.942L318.767 355.563C318.767 355.563 293.467 375.232 274.852 370.876L273.186 362.126C273.186 362.126 250.629 355.373 254.054 352.946C257.478 350.519 259.459 336.419 255.837 331.666C252.215 326.914 240.263 288.492 239.992 280.575C239.763 273.906 247.103 257.423 248.121 251.845L269.419 235.82Z" fill="#6A767B"/>
<path d="M311.498 344.942L311.721 344.391C308.355 347.521 305.438 350.4 305.718 350.51C305.804 350.778 308.646 348.373 311.864 345.477L311.498 344.942Z" fill="#282828"/>
<path d="M247.508 280.824C254.613 298.297 258.15 318.308 257.658 337.451C257.915 340.167 257.702 343.24 257.166 345.956C257.072 346.993 256.97 348.027 256.851 349.055C261.07 326.665 257.611 301.402 247.508 280.824Z" fill="#282828"/>
<path d="M258.357 249.064C251.813 256.392 247.288 266.926 246.545 276.557C248.848 267.298 253.192 257.187 258.357 249.064Z" fill="#282828"/>
<path d="M301.713 359.407C293.617 361.793 284.007 362.771 275.397 362.129C284.012 360.437 292.689 357.524 299.776 353.805C291.428 356.926 281.56 359.759 272.121 361.799C272.792 362.008 273.186 362.126 273.186 362.126L273.261 362.523C273.695 362.448 274.129 362.372 274.564 362.29C283.307 364.369 293.774 363.287 301.713 359.407Z" fill="#282828"/>
<path d="M305.997 336.137C303.652 339.672 302.21 343.187 301.093 347.008C303.323 345.74 305.682 344.358 307.79 343.016C305.984 346.743 305.297 348.162 305.297 348.162C306.202 346.586 307.532 344.171 308.629 342.159C307.306 342.684 303.968 344.89 302.565 345.165C304.164 341.013 306.524 336.689 310.309 332.491L309.436 331.693C300.328 339.955 291.789 344.775 282.506 348.554C290.842 345.831 298.236 342.281 305.997 336.137Z" fill="#282828"/>
<path d="M255.435 384.831C255.138 382.831 261.765 363.088 264.995 361.246C268.225 359.404 268.977 348.925 268.977 348.925L269.267 335.059C269.267 335.059 277.451 338.415 277.854 343.852C278.7 355.265 273.86 362.295 273.86 362.295C273.86 362.295 278.769 366.586 279.757 367.444C280.745 368.302 290.365 372.233 290.365 372.233C290.365 372.233 313.913 380.125 316.068 380.14C318.221 380.155 310.61 383.964 305.315 383.075C300.019 382.186 293.362 380.83 293.362 380.83C293.362 380.83 287.273 380.393 286.577 381.501C285.881 382.609 293.444 387.18 294.853 387.976C296.262 388.771 307.615 401.486 307.615 401.486C307.615 401.486 304.166 404.342 299.988 402.283C295.809 400.224 288.893 394.218 288.893 394.218L282.707 393.127C282.707 393.127 287.242 400.491 287.679 403.44C288.117 406.389 285.996 412.396 284.927 413.894C283.858 415.392 282.11 421.01 282.11 421.01C282.11 421.01 278.433 416.532 278.319 412.866C278.206 409.199 278.562 405.798 278.562 405.798L275.16 400.275C275.16 400.275 276.084 406.5 276.052 409.184C276.02 411.868 273.558 415.581 273.558 415.581L269.931 420.138C269.931 420.138 267.664 416.456 268.068 413.382C268.473 410.308 267.809 408.732 267.809 408.732C267.809 408.732 261.785 411.635 258.076 409.842C254.367 408.048 245.346 411.06 242.868 411.763C240.391 412.465 202.421 426.762 202.421 426.762L196.203 411.535C196.203 411.535 200.909 394.694 207.306 391.401C213.702 388.108 226.74 388.521 229.294 388.854C240.856 390.361 255.435 384.831 255.435 384.831Z" fill="#FF9F7D"/>
<path d="M255.435 384.832C249.144 393.227 258.076 409.841 258.076 409.841L245.47 411.531C245.47 411.531 240.563 395.406 246.116 385.714L255.435 384.832Z" fill="#282828"/>
<path d="M273.676 364.98C273.015 374.169 266.804 383.345 258.52 387.374C265.629 381.989 271.318 373.583 273.676 364.98Z" fill="#282828"/>
<path d="M284.034 376.219C276.369 384.085 270.137 394.655 266.965 405.169C268.429 394.063 275.025 382.876 284.034 376.219Z" fill="#282828"/>
<path d="M429.652 459.47C425.086 464.695 418.822 468.156 411.905 468.991C411.013 469.099 410.168 469.685 410.2 470.697C410.213 471.108 410.226 471.519 410.239 471.93C407.346 472.067 404.453 472.204 401.56 472.341C401.039 472.208 400.461 472.228 399.849 472.461C398.203 473.087 398.273 475.832 400.293 475.745C400.44 475.739 400.586 475.733 400.732 475.726C400.653 475.887 400.18 476.505 399.952 476.621C399.37 476.918 398.536 476.864 397.9 476.885C396.275 476.939 394.647 476.952 393.023 476.99C389.538 477.07 386.054 477.151 382.57 477.231C375.602 477.392 368.633 477.529 361.665 477.674C360.376 477.7 359.86 479.455 361.002 480.122C364.049 481.901 367.105 483.667 370.159 485.435C365.647 487.004 360.931 487.722 356.119 487.454C355.167 487.401 355.212 488.803 356.119 488.91C361.932 489.597 367.717 488.924 373.166 486.773C374.075 486.414 374.362 485.199 373.445 484.639C371.071 483.189 368.698 481.737 366.323 480.288C375.363 480.254 384.402 480.224 393.441 480.209C396.506 480.204 401.855 481.024 403.683 477.716C404.041 477.068 404.152 476.317 404.068 475.584C406.709 475.471 409.35 475.357 411.99 475.244C412.888 475.206 413.715 474.497 413.689 473.546C413.676 473.08 413.663 472.614 413.65 472.148C420.793 470.934 427.298 467.437 432.134 461.953C433.625 460.263 431.141 457.767 429.652 459.47Z" fill="#E8833D"/>
<path d="M342.389 473.792C347.586 473.507 352.785 473.249 357.982 472.938C359.37 472.855 359.97 471.578 359.452 470.377C359.327 470.087 359.202 469.798 359.077 469.508C362.084 469.608 365.09 469.523 368.09 469.221C371.466 468.88 375.924 468.754 378.698 466.632C379.477 466.036 379.672 464.348 378.376 464.168C374.856 463.677 371.198 465.109 367.689 465.521C363.933 465.963 360.154 466.058 356.378 465.879C354.94 465.811 354.358 467.385 354.871 468.506C355.06 468.92 355.249 469.334 355.439 469.748C349.951 470.212 344.467 470.717 338.979 471.175C337.568 471.293 337.101 472.975 338.271 473.79C340.641 475.439 342.337 477.699 343.348 480.324C340.034 479.466 336.724 478.619 333.364 477.951C332.57 477.793 332.294 478.861 333.034 479.148C336.909 480.651 340.861 481.896 344.814 483.182C345.758 483.489 346.437 482.546 346.29 481.706C345.757 478.659 344.389 475.995 342.389 473.792Z" fill="#E8833D"/>
<defs>
<linearGradient id="paint0_linear_1188_501" x1="161.217" y1="251.185" x2="161.217" y2="227.134" gradientUnits="userSpaceOnUse">
<stop stop-color="white"/>
<stop offset="1"/>
</linearGradient>
<linearGradient id="paint1_linear_1188_501" x1="150.13" y1="253.86" x2="150.13" y2="227.147" gradientUnits="userSpaceOnUse">
<stop stop-color="white"/>
<stop offset="1"/>
</linearGradient>
<linearGradient id="paint2_linear_1188_501" x1="159.255" y1="529.985" x2="137.808" y2="484.323" gradientUnits="userSpaceOnUse">
<stop stop-color="white"/>
<stop offset="1"/>
</linearGradient>
<linearGradient id="paint3_linear_1188_501" x1="162.862" y1="528.292" x2="141.414" y2="482.629" gradientUnits="userSpaceOnUse">
<stop stop-color="white"/>
<stop offset="1"/>
</linearGradient>
<linearGradient id="paint4_linear_1188_501" x1="152.303" y1="533.25" x2="130.854" y2="487.585" gradientUnits="userSpaceOnUse">
<stop stop-color="white"/>
<stop offset="1"/>
</linearGradient>
<linearGradient id="paint5_linear_1188_501" x1="479.512" y1="477.394" x2="500.959" y2="431.731" gradientUnits="userSpaceOnUse">
<stop stop-color="white"/>
<stop offset="1"/>
</linearGradient>
<linearGradient id="paint6_linear_1188_501" x1="475.906" y1="475.7" x2="497.354" y2="430.037" gradientUnits="userSpaceOnUse">
<stop stop-color="white"/>
<stop offset="1"/>
</linearGradient>
<linearGradient id="paint7_linear_1188_501" x1="486.462" y1="480.659" x2="507.911" y2="434.993" gradientUnits="userSpaceOnUse">
<stop stop-color="white"/>
<stop offset="1"/>
</linearGradient>
</defs>
</svg>
