<svg width="60" height="60" viewBox="0 0 60 60" fill="none" xmlns="http://www.w3.org/2000/svg">
<g clip-path="url(#clip0_1383_3985)">
<path fill-rule="evenodd" clip-rule="evenodd" d="M60 30C60 46.625 46.5 60 30 60C13.375 60 0 46.5 0 30C0 13.5 13.375 0 30 0C46.5 0 60 13.5 60 30Z" fill="black"/>
<path d="M32.7749 40.5586C32.3552 40.5586 32.0405 40.5586 31.6209 40.4537C29.1031 39.8243 26.9 38.5654 25.1166 36.7819L20.8153 32.4807C19.0319 30.6973 17.773 28.3893 17.1435 25.9764C16.7239 24.4028 17.2484 22.6193 18.4024 21.4653L20.3957 19.4721C21.0251 18.8426 21.9693 18.8426 22.5988 19.4721L24.9067 21.7801C25.4313 22.3046 25.5362 23.1439 25.1166 23.7733L23.5429 26.0813C23.1233 26.7108 23.2282 27.55 23.7528 28.0746L29.5227 33.8445C30.0473 34.3691 30.8865 34.474 31.516 34.0543L33.8239 32.4807C34.4534 32.0611 35.2927 32.166 35.8172 32.6905L38.1252 34.9985C38.4399 35.3132 38.5448 35.7329 38.5448 36.1525C38.5448 36.5721 38.335 36.9918 38.1252 37.3065L36.1319 39.1948C35.1878 40.139 33.9289 40.5586 32.7749 40.5586ZM21.4448 19.9966C21.3399 19.9966 21.1301 19.9966 21.0251 20.1015L19.0319 22.0948C18.0877 23.039 17.773 24.2979 18.0877 25.5568C18.6123 27.8647 19.8712 29.9629 21.5497 31.5365L25.8509 35.8378C27.5295 37.5163 29.6276 38.6703 31.8307 39.2997C33.0896 39.6145 34.4534 39.1948 35.2927 38.3556L37.2859 36.3623C37.3908 36.2574 37.3908 36.1525 37.3908 35.9427C37.3908 35.8378 37.2859 35.628 37.2859 35.523L34.9779 33.2151C34.7681 33.0052 34.5583 33.0053 34.3485 33.1102L32.0405 34.6838C30.9914 35.4181 29.6276 35.2083 28.6834 34.3691L23.0184 28.704C22.1791 27.8647 21.9693 26.396 22.7037 25.3469L24.2773 23.039C24.3822 22.8292 24.3822 22.5144 24.1724 22.4095L21.8644 20.1015C21.6546 19.9966 21.5497 19.9966 21.4448 19.9966Z" fill="white"/>
<path d="M23.3342 25.7666C23.2293 25.7666 23.0194 25.7666 22.9145 25.6617L19.1378 21.9899C18.928 21.78 18.928 21.4653 19.1378 21.2555C19.3476 21.0457 19.6624 21.0457 19.8722 21.2555L23.6489 24.9273C23.8587 25.1371 23.8587 25.4518 23.6489 25.6617C23.544 25.7666 23.4391 25.7666 23.3342 25.7666ZM35.9231 38.4605C35.8182 38.4605 35.6084 38.4605 35.5035 38.3555L31.8317 34.6838C31.6219 34.4739 31.6219 34.1592 31.8317 33.9494C32.0415 33.7396 32.3563 33.7396 32.5661 33.9494L36.2379 37.6212C36.4477 37.831 36.4477 38.1457 36.2379 38.3555C36.133 38.3555 36.0281 38.4605 35.9231 38.4605ZM36.9722 32.3758C37.3919 31.9561 38.0213 31.9561 38.4409 32.3758C38.8606 32.7954 38.8606 33.4249 38.4409 33.8445M42.3225 34.8936H42.2176C41.9029 34.7887 41.798 34.5789 41.798 34.2641C42.2176 32.7954 41.798 31.2218 40.7489 30.1727C39.6998 29.1236 38.1262 28.704 36.6575 29.1236C36.3428 29.2285 36.133 29.0187 36.0281 28.704C35.9231 28.3893 36.133 28.1795 36.4477 28.0745C38.2311 27.55 40.2244 28.0745 41.4833 29.4383C42.8471 30.8022 43.3716 32.6905 42.8471 34.4739C42.7422 34.6838 42.5324 34.8936 42.3225 34.8936Z" fill="white"/>
<path d="M40.328 34.264H40.2231C39.9084 34.1591 39.8034 33.9493 39.8034 33.6346C40.0133 32.9002 39.8034 32.1659 39.2789 31.6413C38.7544 31.1168 38.02 30.907 37.2856 31.1168C36.9709 31.2217 36.7611 31.0119 36.6562 30.6972C36.5513 30.3824 36.7611 30.1726 37.0758 30.0677C38.1249 29.753 39.2789 30.0677 40.1182 30.907C40.9574 31.7462 41.2722 32.9002 40.9574 33.9493C40.7476 34.1591 40.5378 34.264 40.328 34.264Z" fill="white"/>
</g>
<defs>
<clipPath id="clip0_1383_3985">
<rect width="60" height="60" fill="white"/>
</clipPath>
</defs>
</svg>
