<svg xmlns="http://www.w3.org/2000/svg" fill="none" viewBox="66.3390712945591 75.57119999999999 473.4596622889306 461.952" style="max-height: 500px" width="473.4596622889306" height="461.952">
<g clip-path="url(#clip0_824_3026)">
<path fill="#FDA4FF" d="M238.526 345.854H224.281V511.83H238.526V345.854Z"/>
<path fill="#FDA4FF" d="M298.206 512.027L235.136 506.501H229.34L164.943 512.027V516.423H298.206V512.027Z"/>
<path fill="#FDA4FF" d="M360.884 346.492H196.602C146.721 346.492 106.123 304.814 106.123 253.607V172.78C106.123 172.485 106.369 172.239 106.663 172.239H240.908C241.203 172.239 241.449 172.485 241.449 172.78V217.282C241.449 250.954 268.121 278.338 300.908 278.338C334.285 278.338 361.449 306.214 361.449 340.475V345.952C361.424 346.271 361.179 346.492 360.884 346.492ZM107.204 173.32V253.631C107.204 304.249 147.31 345.436 196.602 345.436H360.344V340.5C360.344 306.828 333.671 279.444 300.884 279.444C267.507 279.444 240.343 251.568 240.343 217.307V173.344H107.204V173.32Z"/>
<path fill="black" d="M338.682 516.349H326.525C326.353 516.349 326.206 516.276 326.108 516.153C326.01 516.03 325.96 515.858 326.01 515.686L381.122 284.921C381.171 284.675 381.392 284.503 381.662 284.503H397.233C397.479 284.503 397.7 284.675 397.774 284.921L452.518 512.813C452.567 512.985 452.518 513.157 452.42 513.279C452.322 513.402 452.15 513.476 452.002 513.476H439.207C438.961 513.476 438.74 513.304 438.666 513.058L389.448 307.589L358.625 435.449L339.223 515.957C339.149 516.178 338.928 516.349 338.682 516.349ZM327.213 515.269H338.265L388.908 305.133C388.957 304.888 389.178 304.716 389.448 304.716C389.718 304.716 389.915 304.888 389.988 305.133L439.624 512.395H451.315L396.816 285.608H382.105L327.213 515.269Z"/>
<path fill="black" d="M208.81 516.349H196.653C196.407 516.349 196.186 516.178 196.112 515.932L145.887 307.565L95.6619 515.932C95.6128 516.178 95.3918 516.349 95.1216 516.349H83.0135C82.8416 516.349 82.6943 516.276 82.596 516.153C82.4978 516.03 82.4487 515.858 82.4978 515.686L137.61 284.921C137.66 284.675 137.881 284.503 138.151 284.503H153.722C153.967 284.503 154.188 284.675 154.262 284.921L209.399 515.686C209.448 515.858 209.399 516.03 209.301 516.153C209.203 516.276 208.982 516.349 208.81 516.349ZM197.095 515.269H208.147L153.255 285.584H138.544L83.7012 515.269H94.7532L145.396 305.133C145.445 304.888 145.666 304.716 145.936 304.716C146.206 304.716 146.403 304.888 146.477 305.133L197.095 515.269Z"/>
<path fill="#955B50" d="M193.533 174.081H182.334V193.877H193.533V174.081Z"/>
<path fill="black" d="M182.334 178.33V174.081H193.533V183.463C192.526 183.66 190.512 183.93 188.204 183.144C184.569 181.941 182.801 179.116 182.334 178.33Z"/>
<path fill="black" d="M180.443 171.011L189.383 168.801L198.47 170.888V155.784H180.517L180.443 171.011Z"/>
<path fill="#955B50" d="M189.457 180.712C194.435 180.712 198.47 176.259 198.47 170.766C198.47 165.272 194.435 160.819 189.457 160.819C184.479 160.819 180.443 165.272 180.443 170.766C180.443 176.259 184.479 180.712 189.457 180.712Z"/>
<path fill="white" d="M193.435 176.12C192.895 176.709 192.182 177.151 191.323 177.323C189.432 177.692 187.59 176.611 186.951 174.867L193.435 176.12Z"/>
<path fill="black" d="M325.15 440.385L335.932 479.755H292.903L282.121 440.385H325.15Z"/>
<path fill="#FED101" d="M163.496 279.763V289.71C163.496 314.663 183.709 334.876 208.662 334.876H234.401C240.271 334.876 245.428 338.805 246.976 344.479L278.732 460.353H340.893L297.152 300.565C293.787 288.285 282.637 279.787 269.915 279.787H163.496V279.763Z"/>
<path fill="black" d="M246.902 344.257L304.373 326.918L308.351 341.408C294.156 336.005 283.644 341.63 281.63 345.461C278.83 350.79 280.23 356.341 276.006 361.056C269.448 368.4 259.698 365.846 251.888 362.309L247.001 344.454C246.951 344.405 246.927 344.331 246.902 344.257Z"/>
<path fill="#4ADA85" d="M286.861 531.724H411.896V517.651C411.896 504.266 401.041 493.41 387.656 493.41H362.973L345.118 478.724H287.107C287.107 478.699 286.861 531.356 286.861 531.724Z"/>
<path fill="black" d="M286.861 531.724C286.861 531.601 286.886 526.394 286.935 517.651H411.896V531.724H286.861Z"/>
<path fill="black" d="M358.945 493.951H343.005C342.71 493.951 342.465 493.705 342.465 493.41C342.465 493.116 342.71 492.87 343.005 492.87H358.945C359.239 492.87 359.485 493.116 359.485 493.41C359.485 493.705 359.239 493.951 358.945 493.951Z"/>
<path fill="black" d="M352.657 488.498H336.718C336.423 488.498 336.178 488.253 336.178 487.958C336.178 487.663 336.423 487.418 336.718 487.418H352.657C352.952 487.418 353.198 487.663 353.198 487.958C353.198 488.253 352.952 488.498 352.657 488.498Z"/>
<path fill="black" d="M346.37 483.071H330.431C330.136 483.071 329.891 482.825 329.891 482.53C329.891 482.236 330.136 481.99 330.431 481.99H346.37C346.665 481.99 346.911 482.236 346.911 482.53C346.911 482.825 346.69 483.071 346.37 483.071Z"/>
<path fill="black" d="M316.259 513.476C315.964 513.476 315.719 513.23 315.719 512.936C315.719 499.919 305.133 489.333 292.117 489.333C291.822 489.333 291.576 489.088 291.576 488.793C291.576 488.498 291.822 488.253 292.117 488.253C305.723 488.253 316.799 499.329 316.799 512.936C316.799 513.23 316.554 513.476 316.259 513.476Z"/>
<path fill="black" d="M128.572 375.989L126.73 332.248L170.054 319.305L169.391 363.807L128.572 375.989Z"/>
<path fill="#FED101" d="M220.083 261.834H321.958C336.203 261.834 347.771 273.377 347.771 287.647V294.646C347.771 306.018 340.329 316.038 329.449 319.354L158.904 370.954L142.965 318.15L233.542 290.618L220.083 261.834Z"/>
<path fill="black" d="M168.065 310.905C167.819 310.905 167.623 310.758 167.549 310.512C167.451 310.217 167.623 309.923 167.918 309.824L242.334 287.45C242.629 287.352 242.924 287.524 243.022 287.819C243.12 288.113 242.948 288.408 242.654 288.506L168.237 310.88C168.163 310.88 168.114 310.905 168.065 310.905Z"/>
<path fill="#4ADA85" d="M81.3184 342.219L113.492 463.054L127.098 459.419C140.041 455.981 147.729 442.694 144.29 429.775L137.929 405.928L147.532 384.904L132.624 328.809C132.624 328.809 81.6868 342.121 81.3184 342.219Z"/>
<path fill="black" d="M94.9 338.682L127.025 459.444L113.492 463.054L81.3184 342.219C81.4412 342.194 87.2373 340.672 94.9 338.682Z"/>
<path fill="black" d="M136.898 402.563C136.652 402.563 136.431 402.391 136.382 402.17L132.281 386.771C132.207 386.476 132.379 386.181 132.674 386.108C132.968 386.034 133.263 386.206 133.337 386.501L137.438 401.9C137.512 402.195 137.34 402.489 137.045 402.563C136.996 402.538 136.947 402.563 136.898 402.563Z"/>
<path fill="black" d="M140.533 395.097C140.287 395.097 140.066 394.925 140.017 394.704L135.915 379.305C135.842 379.01 136.014 378.715 136.308 378.641C136.603 378.568 136.898 378.74 136.972 379.034L141.073 394.433C141.147 394.728 140.975 395.023 140.68 395.097C140.631 395.072 140.582 395.097 140.533 395.097Z"/>
<path fill="black" d="M144.167 387.63C143.922 387.63 143.701 387.458 143.652 387.237L139.55 371.838C139.477 371.544 139.648 371.249 139.943 371.175C140.238 371.102 140.533 371.273 140.606 371.568L144.708 386.967C144.782 387.262 144.61 387.557 144.315 387.63C144.266 387.606 144.217 387.63 144.167 387.63Z"/>
<path fill="black" d="M108.162 366.042C107.916 366.042 107.695 365.87 107.646 365.649C107.572 365.354 107.744 365.06 108.039 364.986C120.614 361.646 128.129 348.678 124.764 336.103C124.691 335.809 124.862 335.514 125.157 335.44C125.452 335.367 125.747 335.539 125.82 335.833C129.332 348.997 121.473 362.53 108.309 366.042C108.26 366.042 108.211 366.042 108.162 366.042Z"/>
<path fill="#955B50" d="M293.737 207.286C296.291 205.862 298.256 203.578 299.239 200.827L300.27 197.978C301.989 193.238 306.484 190.07 311.519 190.07H320.115C322.964 190.07 324.56 189.087 326.819 187.933C328.735 186.951 330.995 188.351 330.995 190.512V190.635C330.995 195.768 326.451 197.487 326.353 197.561C324.658 198.42 323.111 198.887 321.809 199.157H336.472C334.851 198.42 333.721 196.775 333.721 194.884C333.721 192.28 335.833 190.168 338.436 190.168H344.061C349.587 190.168 352.386 195.964 350.348 200.287H350.274C353.86 202.227 354.425 207.827 351.502 211.118C351.527 211.093 350.594 212.321 348.825 213.426C348.899 213.746 348.923 214.089 348.923 214.458V215.637C348.923 219.198 346.492 220.991 346.148 221.482C345.903 221.752 345.682 221.973 345.436 222.219L345.313 222.17C345.436 222.587 345.485 223.029 345.485 223.496V225.019C345.485 231.036 337.528 235.506 331.093 235.506H299.165C297.495 235.506 295.849 235.874 294.327 236.586L289.586 238.797L280.131 214.826L293.737 207.286Z"/>
<path fill="#FED101" d="M341.778 179.509L334.164 231.724H316.948L309.334 179.509H341.778Z"/>
<path fill="black" d="M314.737 180.074C314.516 180.074 314.295 179.927 314.221 179.705L310.144 168.31H299.534C299.24 168.31 298.994 168.064 298.994 167.769C298.994 167.475 299.24 167.229 299.534 167.229H310.513C310.734 167.229 310.955 167.376 311.029 167.597L315.228 179.362C315.327 179.632 315.179 179.951 314.909 180.049C314.86 180.074 314.811 180.074 314.737 180.074Z"/>
<path fill="black" d="M350.324 200.876C350.25 200.876 350.176 200.852 350.103 200.827C349.832 200.704 349.71 200.385 349.832 200.115C350.79 198.101 350.618 195.645 349.39 193.705C348.212 191.863 346.271 190.782 344.036 190.782H338.412C336.103 190.782 334.237 192.649 334.237 194.957C334.237 197.266 336.103 199.132 338.412 199.132H340.549C340.844 199.132 341.089 199.378 341.089 199.673C341.089 199.967 340.844 200.213 340.549 200.213H338.412C335.514 200.213 333.156 197.855 333.156 194.957C333.156 192.059 335.514 189.701 338.412 189.701H344.036C346.64 189.701 348.924 190.954 350.299 193.115C351.724 195.375 351.92 198.224 350.815 200.581C350.717 200.753 350.52 200.876 350.324 200.876Z"/>
<path fill="black" d="M348.801 214.016C348.629 214.016 348.433 213.918 348.335 213.77C348.187 213.525 348.261 213.181 348.507 213.033C350.078 212.051 350.938 210.995 351.012 210.897C351.036 210.872 351.036 210.848 351.061 210.823C352.829 208.834 353.296 205.739 352.191 203.308C351.675 202.153 350.373 200.238 347.401 200.238H337.209C334.9 200.238 333.034 202.104 333.034 204.413C333.034 206.721 334.9 208.588 337.209 208.588H338.511C338.805 208.588 339.051 208.834 339.051 209.128C339.051 209.423 338.805 209.669 338.511 209.669H337.209C334.311 209.669 331.953 207.311 331.953 204.413C331.953 201.515 334.311 199.157 337.209 199.157H347.401C350.005 199.157 352.117 200.508 353.198 202.89C354.45 205.69 353.91 209.276 351.871 211.584C351.429 212.272 350.054 213.402 349.071 214.016C348.998 213.991 348.9 214.016 348.801 214.016Z"/>
<path fill="black" d="M345.413 222.784C345.265 222.784 345.118 222.735 345.02 222.612C344.823 222.391 344.823 222.047 345.044 221.85C345.265 221.629 345.487 221.408 345.708 221.163C345.781 221.04 345.904 220.917 346.076 220.745C346.813 219.984 348.36 218.388 348.36 215.637V214.458C348.36 211.781 346.174 209.595 343.497 209.595H335.049C332.764 209.595 330.922 211.437 330.922 213.721C330.922 216.005 332.764 217.847 335.049 217.847H335.613C335.908 217.847 336.154 218.093 336.154 218.388C336.154 218.682 335.908 218.928 335.613 218.928H335.049C332.175 218.928 329.842 216.595 329.842 213.721C329.842 210.848 332.175 208.514 335.049 208.514H343.497C346.788 208.514 349.441 211.191 349.441 214.458V215.637C349.441 218.805 347.623 220.696 346.862 221.482C346.739 221.605 346.616 221.728 346.592 221.777C346.567 221.801 346.567 221.826 346.543 221.826C346.297 222.096 346.051 222.342 345.806 222.587C345.683 222.735 345.536 222.784 345.413 222.784Z"/>
<path fill="black" d="M289.563 239.362C289.489 239.362 289.415 239.337 289.366 239.313C289.219 239.264 289.12 239.141 289.071 239.018L279.616 215.047C279.518 214.802 279.616 214.507 279.861 214.384L293.443 206.869C295.875 205.518 297.741 203.332 298.699 200.704L299.73 197.855C301.499 192.919 306.239 189.579 311.495 189.579H320.091C322.547 189.579 323.947 188.842 325.887 187.835L326.525 187.491C327.581 186.951 328.834 187 329.866 187.614C330.897 188.252 331.511 189.333 331.511 190.536V190.659C331.511 195.252 328.122 197.34 326.648 198.027L326.599 198.052C326.599 198.052 326.574 198.052 326.574 198.076C322.448 200.164 319.231 200.09 318.028 200.066C317.88 200.066 317.757 200.066 317.684 200.066C317.659 200.066 317.635 200.066 317.635 200.066C316.898 200.066 316.382 200.95 315.547 202.497C313.852 205.592 311.298 210.283 302.727 210.283C302.432 210.283 302.186 210.037 302.186 209.742C302.186 209.448 302.432 209.202 302.727 209.202C310.66 209.202 312.944 205.027 314.589 201.981C315.449 200.385 316.21 199.01 317.61 198.985C317.708 198.985 317.856 198.985 318.052 198.985C319.182 199.01 322.178 199.083 326.059 197.143C326.083 197.119 326.132 197.094 326.182 197.069C327.459 196.48 330.406 194.638 330.406 190.684V190.561C330.406 189.751 329.988 188.989 329.301 188.572C328.613 188.154 327.753 188.105 327.017 188.473L326.378 188.793C324.438 189.8 322.792 190.635 320.066 190.635H311.47C306.656 190.635 302.358 193.68 300.713 198.199L299.681 201.048C298.65 203.922 296.611 206.329 293.934 207.802L280.77 215.096L289.833 238.085L294.057 236.12C295.629 235.383 297.397 234.99 299.116 234.99H331.044C337.332 234.99 344.896 230.545 344.896 225.043V223.521C344.896 220.991 342.833 218.952 340.328 218.952H331.486C329.178 218.952 327.311 220.819 327.311 223.128C327.311 225.436 329.178 227.303 331.486 227.303H337.921C338.216 227.303 338.462 227.548 338.462 227.843C338.462 228.138 338.216 228.383 337.921 228.383H331.486C328.588 228.383 326.231 226.026 326.231 223.128C326.231 220.23 328.588 217.872 331.486 217.872H340.328C343.447 217.872 345.977 220.401 345.977 223.521V225.043C345.977 231.257 337.946 236.071 331.02 236.071H299.092C297.52 236.071 295.924 236.415 294.475 237.102L289.734 239.313C289.734 239.337 289.636 239.362 289.563 239.362Z"/>
<path fill="black" d="M336.742 200.189H317.07C316.775 200.189 316.529 199.943 316.529 199.648C316.529 199.354 316.775 199.108 317.07 199.108H336.742C337.037 199.108 337.282 199.354 337.282 199.648C337.282 199.943 337.037 200.189 336.742 200.189Z"/>
<path fill="#8C7BFF" d="M283.717 209.939L265.715 220.573C262.669 222.366 258.813 222.071 256.087 219.787L233.443 200.802C225.903 194.491 216.398 191.028 206.574 191.028H185.551L221.777 231.478L251.691 251.986C255.915 254.884 261.368 255.301 265.985 253.042L295.26 238.821L283.717 209.939Z"/>
<path fill="#8C7BFF" d="M224.921 205.739L198.47 191.052H166.124L157.725 229.218V279.763H232.805L224.921 205.739Z"/>
<path fill="black" d="M228.211 237.299C227.941 237.299 227.696 237.102 227.671 236.807L225.043 212.002C225.019 211.707 225.215 211.437 225.534 211.412C225.829 211.388 226.099 211.609 226.124 211.904L228.752 236.709C228.776 237.004 228.58 237.274 228.26 237.299C228.26 237.299 228.236 237.299 228.211 237.299Z"/>
<path fill="#955B50" d="M255.57 246.312V276.103H274.85H284.944H304.101C305.746 276.103 307.318 276.816 308.423 278.044L310.732 280.622C312.82 282.931 316.504 282.735 318.321 280.229C319.525 278.535 319.525 276.3 318.37 274.63L319.647 272.837C321.121 270.774 320.949 267.974 319.23 266.132L317.928 264.732C319.23 262.694 319.009 260.041 317.363 258.248L315.202 255.915L315.227 255.891C316.135 253.975 315.816 251.642 314.318 250.021L312.402 247.933C308.718 243.954 303.561 241.695 298.133 241.695H279.885C272.32 241.695 270.38 246.312 267.015 246.312H255.57Z"/>
<path fill="black" d="M317.977 265.248C317.878 265.248 317.78 265.223 317.682 265.15C317.436 264.978 317.363 264.658 317.51 264.388C318.689 262.571 318.468 260.164 316.994 258.568L313.605 254.908C310.977 252.059 307.244 250.438 303.388 250.438H294.031C293.736 250.438 293.49 250.193 293.49 249.898C293.49 249.603 293.736 249.358 294.031 249.358H303.388C307.563 249.358 311.566 251.101 314.415 254.171L317.805 257.831C319.622 259.796 319.868 262.718 318.443 264.978C318.345 265.15 318.148 265.248 317.977 265.248Z"/>
<path fill="black" d="M318.396 275.146C318.297 275.146 318.174 275.121 318.076 275.047C317.831 274.875 317.781 274.532 317.953 274.286L319.255 272.493C320.581 270.651 320.409 268.121 318.887 266.476L314.81 262.08C312.599 259.697 309.505 258.347 306.263 258.347H293.958C293.664 258.347 293.418 258.101 293.418 257.806C293.418 257.511 293.664 257.266 293.958 257.266H306.263C309.799 257.266 313.213 258.764 315.62 261.343L319.697 265.739C321.588 267.778 321.785 270.897 320.139 273.132L318.838 274.925C318.739 275.072 318.567 275.146 318.396 275.146Z"/>
<path fill="black" d="M284.969 276.644H255.595C255.3 276.644 255.055 276.398 255.055 276.103V246.312C255.055 246.017 255.3 245.772 255.595 245.772H267.065C268.243 245.772 269.275 245.084 270.552 244.225C272.64 242.849 275.218 241.13 279.934 241.13H298.182C303.733 241.13 309.087 243.463 312.844 247.54L314.76 249.628C316.381 251.396 316.774 253.926 315.767 256.087C315.644 256.357 315.325 256.48 315.055 256.357C314.785 256.234 314.662 255.915 314.785 255.645C315.62 253.877 315.3 251.814 313.974 250.389L312.058 248.302C308.497 244.446 303.438 242.235 298.182 242.235H279.934C275.562 242.235 273.106 243.856 271.166 245.158C269.766 246.091 268.563 246.877 267.065 246.877H256.135V275.588H284.969C285.264 275.588 285.509 275.833 285.509 276.128C285.509 276.398 285.264 276.644 284.969 276.644Z"/>
<path fill="black" d="M314.368 282.759C312.82 282.759 311.371 282.121 310.34 280.966L308.031 278.387C307.024 277.282 305.6 276.644 304.101 276.644H274.85C269.57 276.644 264.658 274.04 261.711 269.669C261.539 269.423 261.613 269.079 261.858 268.907C262.104 268.735 262.448 268.809 262.62 269.055C265.37 273.132 269.963 275.539 274.875 275.539H304.126C305.919 275.539 307.663 276.3 308.866 277.651L311.175 280.229C312.059 281.212 313.311 281.728 314.638 281.654C315.964 281.58 317.143 280.917 317.929 279.861C319.132 278.191 318.985 275.882 317.585 274.384L313.336 269.791C311.101 267.385 307.933 265.985 304.617 265.985H294.376C294.081 265.985 293.835 265.739 293.835 265.444C293.835 265.15 294.081 264.904 294.376 264.904H304.617C308.203 264.904 311.69 266.427 314.122 269.055L318.371 273.647C320.115 275.539 320.286 278.412 318.788 280.5C317.83 281.85 316.332 282.661 314.687 282.735C314.564 282.759 314.466 282.759 314.368 282.759Z"/>
<path fill="#8C7BFF" d="M170.864 191.052H166.983C156.668 191.052 148.293 199.427 148.293 209.742V241.67C148.293 260.68 163.692 276.079 182.702 276.079H263.234V244.053H197.266C187.736 244.053 179.533 237.274 177.79 227.892L170.864 191.052Z"/>
<path fill="black" d="M262.718 276.619H182.701C173.368 276.619 164.576 272.984 157.994 266.378C157.773 266.157 157.773 265.813 157.994 265.616C158.215 265.395 158.559 265.395 158.755 265.616C165.141 272.002 173.663 275.539 182.701 275.539H262.177V244.618H197.265C187.466 244.618 179.066 237.643 177.249 228.015L173.491 208.023C173.442 207.728 173.639 207.434 173.933 207.385C174.228 207.335 174.523 207.532 174.572 207.827L178.33 227.819C180.049 236.93 188.006 243.537 197.29 243.537H262.742C263.037 243.537 263.283 243.783 263.283 244.077V276.103C263.258 276.374 263.012 276.619 262.718 276.619Z"/>
<path fill="black" d="M452.126 285.559H87.8274C87.5327 285.559 87.2871 285.314 87.2871 285.019V276.104C87.2871 275.809 87.5327 275.563 87.8274 275.563H306.215C306.51 275.563 306.755 275.809 306.755 276.104C306.755 276.398 306.51 276.644 306.215 276.644H88.3677V284.479H451.586V276.644H319.281C318.986 276.644 318.741 276.398 318.741 276.104C318.741 275.809 318.986 275.563 319.281 275.563H452.126C452.421 275.563 452.666 275.809 452.666 276.104V285.019C452.666 285.314 452.421 285.559 452.126 285.559Z"/>
<path fill="black" d="M336.596 275.367H418.921L440.337 219.566H358.012L336.596 275.367Z"/>
<path fill="black" d="M461.163 487.688C487.844 487.688 509.473 465.993 509.473 439.231C509.473 412.469 487.844 390.774 461.163 390.774C434.482 390.774 412.854 412.469 412.854 439.231C412.854 465.993 434.482 487.688 461.163 487.688Z"/>
<path fill="#8C7BFF" d="M468.825 485.134C495.506 485.134 517.135 463.439 517.135 436.677C517.135 409.915 495.506 388.22 468.825 388.22C442.145 388.22 420.516 409.915 420.516 436.677C420.516 463.439 442.145 485.134 468.825 485.134Z"/>
<path fill="white" d="M485.65 409.44C490.488 411.97 494.27 415.506 496.972 420.05C499.673 424.593 501.024 429.702 501.024 435.424C501.024 441.319 499.87 445.936 497.561 449.252C495.252 452.592 492.06 454.237 487.983 454.237C485.797 454.237 483.979 453.722 482.481 452.715C480.983 451.683 479.952 450.234 479.362 448.318C476.636 452.272 472.559 454.237 467.131 454.237C464.061 454.237 461.261 453.5 458.781 452.027C456.3 450.553 454.336 448.515 452.936 445.887C451.536 443.259 450.823 440.263 450.823 436.922C450.823 433.607 451.536 430.66 452.936 428.056C454.336 425.453 456.276 423.414 458.781 421.941C461.261 420.467 464.061 419.73 467.131 419.73C469.538 419.73 471.699 420.148 473.615 420.958C475.531 421.769 477.152 422.972 478.478 424.569V420.148H486.018V443.259C486.018 444.88 486.337 446.059 487 446.796C487.663 447.532 488.499 447.876 489.555 447.876C491.421 447.876 492.821 446.82 493.803 444.708C494.786 442.596 495.252 439.55 495.252 435.572C495.252 430.758 494.147 426.534 491.961 422.85C489.776 419.19 486.706 416.317 482.751 414.278C478.822 412.24 474.278 411.208 469.17 411.208C464.012 411.208 459.419 412.289 455.441 414.426C451.462 416.587 448.367 419.583 446.206 423.439C444.02 427.295 442.94 431.667 442.94 436.554C442.94 441.54 444.02 445.961 446.157 449.816C448.318 453.672 451.364 456.669 455.293 458.83C459.223 460.991 463.767 462.047 468.875 462.047C471.085 462.047 473.345 461.802 475.629 461.311C477.913 460.819 480.05 460.058 482.039 459.076L483.881 464.503C481.892 465.535 479.534 466.345 476.857 466.886C474.155 467.426 471.503 467.696 468.875 467.696C462.539 467.696 456.939 466.37 452.051 463.693C447.189 461.016 443.406 457.332 440.705 452.616C438.003 447.901 436.652 442.547 436.652 436.579C436.652 430.684 438.003 425.404 440.729 420.713C443.455 416.022 447.262 412.338 452.174 409.661C457.086 406.984 462.735 405.658 469.121 405.658C475.285 405.633 480.787 406.91 485.65 409.44ZM475.752 444.757C477.643 442.841 478.576 440.214 478.576 436.898C478.576 433.631 477.643 431.053 475.752 429.137C473.861 427.221 471.454 426.288 468.507 426.288C465.51 426.288 463.103 427.246 461.237 429.186C459.37 431.102 458.462 433.681 458.462 436.898C458.462 440.164 459.395 442.768 461.237 444.708C463.103 446.648 465.51 447.631 468.507 447.631C471.454 447.655 473.861 446.697 475.752 444.757Z"/>
<path fill="#FDA4FF" d="M515.441 264.143L485.478 305.993L435.057 294.966L515.441 264.143Z"/>
<path fill="black" d="M451.978 339.272C451.757 339.272 451.561 339.149 451.463 338.928L434.541 295.162C434.492 295.039 434.492 294.867 434.541 294.745C434.59 294.622 434.713 294.499 434.835 294.45L515.22 263.652C515.491 263.553 515.81 263.676 515.933 263.971L532.854 307.737C532.904 307.86 532.904 308.032 532.854 308.154C532.805 308.277 532.682 308.4 532.56 308.449L452.175 339.247C452.126 339.247 452.052 339.272 451.978 339.272ZM435.744 295.26L452.273 338.019L531.651 307.614L515.122 264.855L435.744 295.26Z"/>
<path fill="black" d="M435.058 295.506C434.959 295.506 434.836 295.481 434.738 295.408C434.493 295.236 434.444 294.892 434.615 294.646L464.579 252.821C464.701 252.649 464.923 252.55 465.144 252.6L515.565 263.627C515.86 263.701 516.032 263.971 515.983 264.266C515.909 264.56 515.639 264.732 515.344 264.683L465.266 253.729L435.5 295.285C435.377 295.408 435.229 295.506 435.058 295.506Z"/>
<path fill="black" d="M419.264 174.351C419.191 174.351 419.141 174.351 419.068 174.327C418.847 174.253 418.724 174.057 418.724 173.811V144.462H381.589C381.294 144.462 381.049 144.216 381.049 143.922V82.8163C381.049 82.5216 381.294 82.276 381.589 82.276H494.983C495.277 82.276 495.523 82.5216 495.523 82.8163V143.922C495.523 144.216 495.277 144.462 494.983 144.462H445.028L419.706 174.155C419.583 174.278 419.436 174.351 419.264 174.351ZM382.129 143.381H419.264C419.559 143.381 419.805 143.627 419.805 143.922V172.338L444.34 143.578C444.438 143.455 444.586 143.381 444.757 143.381H494.442V83.3566H382.129V143.381Z"/>
<path fill="#4ADA85" d="M461.202 119.46C464.511 119.453 467.189 116.764 467.182 113.455C467.175 110.145 464.486 107.468 461.176 107.475C457.867 107.482 455.189 110.171 455.196 113.48C455.203 116.79 457.892 119.467 461.202 119.46Z"/>
<path fill="#4ADA85" d="M438.534 119.46C441.844 119.453 444.521 116.764 444.514 113.454C444.507 110.145 441.818 107.468 438.508 107.475C435.199 107.482 432.521 110.171 432.529 113.48C432.536 116.79 435.225 119.467 438.534 119.46Z"/>
<path fill="#4ADA85" d="M415.864 119.46C419.174 119.453 421.851 116.764 421.844 113.454C421.837 110.145 419.148 107.468 415.838 107.475C412.529 107.482 409.852 110.171 409.859 113.48C409.866 116.79 412.555 119.467 415.864 119.46Z"/>
<path fill="black" d="M246.41 125.256C248.891 123.586 252.206 121.965 256.333 120.393C259.353 119.239 261.662 118.183 263.258 117.225C264.855 116.242 265.985 114.892 266.672 113.148C267.655 110.643 267.434 108.285 266.009 106.05C264.585 103.815 262.227 102.047 258.911 100.745C255.743 99.4926 252.673 99.0505 249.677 99.3943C246.705 99.7382 242.456 96.6682 239.853 98.3628L231.871 90.4545C236.414 87.2617 241.547 85.4197 247.294 84.953C253.042 84.4864 259.231 85.567 265.837 88.1704C273.598 91.2158 279.173 95.3174 282.563 100.475C285.952 105.633 286.492 111.134 284.184 117.004C283.103 119.779 281.678 122.014 279.959 123.758C278.215 125.502 276.423 126.828 274.532 127.761C272.64 128.694 270.283 129.701 267.458 130.757C264.093 132.01 261.539 133.164 259.796 134.22C258.052 135.276 256.75 136.897 255.915 139.059L240.639 133.042C241.989 129.505 243.93 126.926 246.41 125.256ZM232.411 156.03C231.257 153.525 231.183 150.97 232.19 148.416C233.197 145.862 234.965 144.069 237.446 143.062C239.951 142.055 242.603 142.104 245.452 143.234C248.277 144.339 250.266 146.132 251.421 148.563C252.575 150.995 252.624 153.5 251.617 156.054C250.61 158.608 248.817 160.426 246.263 161.482C243.709 162.538 241.032 162.514 238.281 161.433C235.53 160.352 233.565 158.559 232.411 156.03Z"/>
<path fill="#4ADA85" d="M235.653 161.335C234.499 158.83 234.425 156.275 235.432 153.721C236.439 151.167 238.183 149.374 240.688 148.367C243.193 147.36 245.846 147.409 248.695 148.539C251.519 149.644 253.508 151.437 254.663 153.868C255.817 156.3 255.866 158.805 254.859 161.359C253.852 163.913 252.059 165.731 249.505 166.787C246.951 167.843 244.274 167.818 241.523 166.738C238.748 165.657 236.783 163.84 235.653 161.335ZM249.628 130.536C252.108 128.866 255.424 127.245 259.55 125.674C262.571 124.519 264.88 123.463 266.476 122.505C268.072 121.523 269.202 120.172 269.89 118.428C270.872 115.923 270.651 113.565 269.227 111.33C267.802 109.096 265.445 107.327 262.129 106.026C258.961 104.773 255.891 104.331 252.894 104.675C249.923 105.019 247.123 106.05 244.495 107.745L235.088 95.7349C239.632 92.5421 244.765 90.7001 250.512 90.2334C256.259 89.7668 262.448 90.8474 269.055 93.4508C276.816 96.4962 282.391 100.598 285.78 105.755C289.17 110.913 289.71 116.414 287.401 122.284C286.321 125.06 284.896 127.294 283.177 129.038C281.433 130.782 279.64 132.108 277.749 133.042C275.858 133.975 273.5 134.982 270.676 136.038C267.311 137.29 264.757 138.445 263.013 139.501C261.269 140.557 259.968 142.178 259.133 144.339L243.856 138.322C245.207 134.81 247.147 132.206 249.628 130.536Z"/>
<path fill="#FDA4FF" d="M126.607 153.819L81.6133 116.046L109.759 82.9146L154.704 120.712L126.607 153.819Z"/>
<path fill="black" d="M139.674 123.316C139.649 123.316 139.625 123.316 139.6 123.316L117.103 120.565C116.882 120.54 116.71 120.393 116.637 120.172L110.153 98.5838C110.055 98.2891 110.226 97.9943 110.521 97.8961C110.816 97.8224 111.111 97.9698 111.209 98.2645L117.594 119.509L139.748 122.21C140.042 122.235 140.263 122.53 140.214 122.824C140.165 123.095 139.944 123.316 139.674 123.316Z"/>
<path fill="#020202" d="M109.98 104.552L116.832 120.418L117.569 120.025L110.791 97.2821C109.268 99.3943 108.949 102.145 109.98 104.552Z"/>
<path fill="black" d="M126.607 154.36C126.484 154.36 126.361 154.31 126.263 154.237L81.2687 116.463C81.1459 116.365 81.0968 116.242 81.0723 116.095C81.0723 115.948 81.0968 115.8 81.1951 115.702L109.341 82.5707C109.537 82.3496 109.881 82.3251 110.102 82.497L155.096 120.27C155.219 120.368 155.268 120.491 155.293 120.639C155.293 120.786 155.268 120.933 155.17 121.032L127.024 154.163C126.926 154.286 126.754 154.36 126.607 154.36ZM82.3985 115.972L126.557 153.033L153.991 120.737L109.832 83.6759L82.3985 115.972Z"/>
</g>
<defs>
<clipPath id="clip0_824_3026">
<rect fill="white" height="614" width="614"/>
</clipPath>
</defs>
</svg>