<svg width="512" height="512" viewBox="0 0 512 512" fill="none" xmlns="http://www.w3.org/2000/svg">
<path d="M256 457.304C253.211 457.304 250.404 456.633 247.826 455.309C219.008 440.278 186.986 432.428 154.483 432.428C121.98 432.428 89.9581 440.278 61.1401 455.309C58.447 456.705 55.4404 457.384 52.409 457.283C49.3775 457.181 46.4231 456.302 43.8294 454.73C41.2358 453.157 39.09 450.944 37.5982 448.303C36.1063 445.662 35.3186 442.682 35.3105 439.649V104.201C35.3104 101.353 35.9991 98.5475 37.318 96.0236C38.6369 93.4996 40.5467 91.3321 42.8846 89.706C109.639 43.2552 199.327 43.2552 266.099 89.706C270.831 93.0075 273.655 98.4276 273.655 104.201V439.649C273.655 444.332 271.795 448.822 268.484 452.133C265.173 455.444 260.683 457.304 256 457.304ZM154.483 397.118C182.908 397.118 211.35 402.22 238.345 412.425V113.735C213.088 98.3204 184.072 90.1654 154.483 90.1654C124.894 90.1654 95.8776 98.3204 70.6209 113.735V412.425C97.4212 402.3 125.834 397.114 154.483 397.118Z" fill="white"/>
<path d="M459.034 457.304C456.245 457.304 453.438 456.633 450.86 455.309C422.042 440.278 390.02 432.428 357.517 432.428C325.014 432.428 292.992 440.278 264.174 455.309C261.481 456.705 258.475 457.384 255.443 457.283C252.412 457.181 249.457 456.302 246.864 454.73C244.27 453.157 242.124 450.944 240.632 448.303C239.141 445.662 238.353 442.682 238.345 439.649V104.201C238.345 101.353 239.033 98.5475 240.352 96.0236C241.671 93.4996 243.581 91.3321 245.919 89.706C312.673 43.2552 402.361 43.2552 469.133 89.706C473.865 93.0075 476.69 98.4276 476.69 104.201V439.649C476.69 444.332 474.829 448.822 471.518 452.133C468.208 455.444 463.717 457.304 459.034 457.304ZM357.517 397.118C385.942 397.118 414.384 402.22 441.379 412.425V113.735C416.122 98.3204 387.106 90.1654 357.517 90.1654C327.928 90.1654 298.912 98.3204 273.655 113.735V412.425C300.455 402.3 328.868 397.114 357.517 397.118Z" fill="white"/>
</svg>
