<svg width="395" height="505" viewBox="0 0 395 505" fill="none" xmlns="http://www.w3.org/2000/svg">
<path d="M1 0V0C117.957 79.2723 271.097 80.4869 389.297 3.07976L394 0V505H1V0Z" fill="#F59120"/>
<line x1="1" y1="358.638" x2="393" y2="358.638" stroke="white" stroke-opacity="0.2" stroke-width="0.5"/>
<line x1="1" y1="192.638" x2="393" y2="192.638" stroke="white" stroke-opacity="0.2" stroke-width="0.5"/>
<line y1="504.669" x2="393" y2="504.669" stroke="white" stroke-opacity="0.2" stroke-width="0.5"/>
<line x1="1" y1="337.638" x2="393" y2="337.638" stroke="white" stroke-opacity="0.2" stroke-width="0.5"/>
<line x1="1" y1="171.638" x2="393" y2="171.638" stroke="white" stroke-opacity="0.2" stroke-width="0.5"/>
<line x1="1" y1="421.638" x2="393" y2="421.638" stroke="white" stroke-opacity="0.2" stroke-width="0.5"/>
<line x1="1" y1="254.638" x2="393" y2="254.638" stroke="white" stroke-opacity="0.2" stroke-width="0.5"/>
<line x1="1" y1="483.638" x2="393" y2="483.638" stroke="white" stroke-opacity="0.2" stroke-width="0.5"/>
<line x1="1" y1="316.638" x2="393" y2="316.638" stroke="white" stroke-opacity="0.2" stroke-width="0.5"/>
<line x1="1" y1="150.638" x2="393" y2="150.638" stroke="white" stroke-opacity="0.2" stroke-width="0.5"/>
<line x1="1" y1="87.6377" x2="393" y2="87.6377" stroke="white" stroke-opacity="0.2" stroke-width="0.5"/>
<line x1="1" y1="400.638" x2="393" y2="400.638" stroke="white" stroke-opacity="0.2" stroke-width="0.5"/>
<line x1="1" y1="233.638" x2="393" y2="233.638" stroke="white" stroke-opacity="0.2" stroke-width="0.5"/>
<line x1="1" y1="462.638" x2="393" y2="462.638" stroke="white" stroke-opacity="0.2" stroke-width="0.5"/>
<line x1="1" y1="296.638" x2="393" y2="296.638" stroke="white" stroke-opacity="0.2" stroke-width="0.5"/>
<line x1="1" y1="129.638" x2="393" y2="129.638" stroke="white" stroke-opacity="0.2" stroke-width="0.5"/>
<line x1="1" y1="67.6377" x2="393" y2="67.6377" stroke="white" stroke-opacity="0.2" stroke-width="0.5"/>
<path d="M1 25.8877L46 25.8877" stroke="white" stroke-opacity="0.2" stroke-width="0.5"/>
<path d="M349 25.6826L394.361 25.6826" stroke="white" stroke-opacity="0.2" stroke-width="0.5"/>
<line x1="1" y1="379.638" x2="393" y2="379.638" stroke="white" stroke-opacity="0.2" stroke-width="0.5"/>
<line x1="1" y1="212.638" x2="393" y2="212.638" stroke="white" stroke-opacity="0.2" stroke-width="0.5"/>
<line x1="1" y1="441.638" x2="393" y2="441.638" stroke="white" stroke-opacity="0.2" stroke-width="0.5"/>
<line x1="1" y1="275.638" x2="393" y2="275.638" stroke="white" stroke-opacity="0.2" stroke-width="0.5"/>
<line x1="1" y1="108.638" x2="393" y2="108.638" stroke="white" stroke-opacity="0.2" stroke-width="0.5"/>
<path d="M1 46.8877L100 46.8877" stroke="white" stroke-opacity="0.2" stroke-width="0.5"/>
<path d="M295.22 46.5078L394 46.5078" stroke="white" stroke-opacity="0.2" stroke-width="0.5"/>
<path d="M20.676 505L20.676 13" stroke="white" stroke-opacity="0.2" stroke-width="0.5"/>
<path d="M165.676 505L165.676 59" stroke="white" stroke-opacity="0.2" stroke-width="0.5"/>
<path d="M289.676 505L289.676 48" stroke="white" stroke-opacity="0.2" stroke-width="0.5"/>
<path d="M40.676 505L40.676 23.5" stroke="white" stroke-opacity="0.2" stroke-width="0.5"/>
<path d="M61.676 505L61.676 33.5" stroke="white" stroke-opacity="0.2" stroke-width="0.5"/>
<path d="M185.676 505L185.676 60.2036" stroke="white" stroke-opacity="0.2" stroke-width="0.5"/>
<path d="M309.676 504.5L309.676 41.9997" stroke="white" stroke-opacity="0.2" stroke-width="0.5"/>
<path d="M82.676 505L82.676 41.5" stroke="white" stroke-opacity="0.2" stroke-width="0.5"/>
<path d="M206.676 505L206.676 60.291" stroke="white" stroke-opacity="0.2" stroke-width="0.5"/>
<path d="M330.676 505L330.676 34" stroke="white" stroke-opacity="0.2" stroke-width="0.5"/>
<path d="M103.676 505L103.676 48" stroke="white" stroke-opacity="0.2" stroke-width="0.5"/>
<path d="M227.676 505L227.676 59.0956" stroke="white" stroke-opacity="0.2" stroke-width="0.5"/>
<path d="M351.676 505L351.676 24.5" stroke="white" stroke-opacity="0.2" stroke-width="0.5"/>
<path d="M123.676 505L123.676 52.5" stroke="white" stroke-opacity="0.2" stroke-width="0.5"/>
<path d="M247.676 505L247.676 57" stroke="white" stroke-opacity="0.2" stroke-width="0.5"/>
<path d="M371.676 505L371.676 14" stroke="white" stroke-opacity="0.2" stroke-width="0.5"/>
<path d="M144.676 505L144.676 56.5" stroke="white" stroke-opacity="0.2" stroke-width="0.5"/>
<path d="M268.676 504.5L268.676 53" stroke="white" stroke-opacity="0.2" stroke-width="0.5"/>
<path d="M392.926 505L392.926 1" stroke="white" stroke-opacity="0.2" stroke-width="0.5"/>
</svg>
