<svg width="1920" height="1046" viewBox="0 0 1920 1046" fill="none" xmlns="http://www.w3.org/2000/svg">
<line x1="0.5" x2="0.5" y2="1046" stroke="black" stroke-opacity="0.1"/>
<line x1="55.5" x2="55.5" y2="1046" stroke="black" stroke-opacity="0.1"/>
<line x1="110.5" x2="110.5" y2="1046" stroke="black" stroke-opacity="0.1"/>
<line x1="165.5" x2="165.5" y2="1046" stroke="black" stroke-opacity="0.1"/>
<line x1="220.5" x2="220.5" y2="1046" stroke="black" stroke-opacity="0.1"/>
<line x1="275.5" x2="275.5" y2="1046" stroke="black" stroke-opacity="0.1"/>
<line x1="550.5" x2="550.5" y2="1046" stroke="black" stroke-opacity="0.1"/>
<line x1="990.5" x2="990.5" y2="1046" stroke="black" stroke-opacity="0.1"/>
<line x1="1430.5" x2="1430.5" y2="1046" stroke="black" stroke-opacity="0.1"/>
<line x1="330.5" x2="330.5" y2="1046" stroke="black" stroke-opacity="0.1"/>
<line x1="605.5" x2="605.5" y2="1046" stroke="black" stroke-opacity="0.1"/>
<line x1="1045.5" x2="1045.5" y2="1046" stroke="black" stroke-opacity="0.1"/>
<line x1="1485.5" x2="1485.5" y2="1046" stroke="black" stroke-opacity="0.1"/>
<line x1="385.5" x2="385.5" y2="1046" stroke="black" stroke-opacity="0.1"/>
<line x1="825.5" x2="825.5" y2="1046" stroke="black" stroke-opacity="0.1"/>
<line x1="1265.5" x2="1265.5" y2="1046" stroke="black" stroke-opacity="0.1"/>
<line x1="660.5" x2="660.5" y2="1046" stroke="black" stroke-opacity="0.1"/>
<line x1="1100.5" x2="1100.5" y2="1046" stroke="black" stroke-opacity="0.1"/>
<line x1="1540.5" x2="1540.5" y2="1046" stroke="black" stroke-opacity="0.1"/>
<line x1="1705.5" x2="1705.5" y2="1046" stroke="black" stroke-opacity="0.1"/>
<line x1="440.5" x2="440.5" y2="1046" stroke="black" stroke-opacity="0.1"/>
<line x1="880.5" x2="880.5" y2="1046" stroke="black" stroke-opacity="0.1"/>
<line x1="1320.5" x2="1320.5" y2="1046" stroke="black" stroke-opacity="0.1"/>
<line x1="715.5" x2="715.5" y2="1046" stroke="black" stroke-opacity="0.1"/>
<line x1="1155.5" x2="1155.5" y2="1046" stroke="black" stroke-opacity="0.1"/>
<line x1="1595.5" x2="1595.5" y2="1046" stroke="black" stroke-opacity="0.1"/>
<line x1="1760.5" x2="1760.5" y2="1046" stroke="black" stroke-opacity="0.1"/>
<line x1="1870.5" x2="1870.5" y2="1046" stroke="black" stroke-opacity="0.1"/>
<line x1="495.5" x2="495.5" y2="1046" stroke="black" stroke-opacity="0.1"/>
<line x1="935.5" x2="935.5" y2="1046" stroke="black" stroke-opacity="0.1"/>
<line x1="1375.5" x2="1375.5" y2="1046" stroke="black" stroke-opacity="0.1"/>
<line x1="770.5" x2="770.5" y2="1046" stroke="black" stroke-opacity="0.1"/>
<line x1="1210.5" x2="1210.5" y2="1046" stroke="black" stroke-opacity="0.1"/>
<line x1="1650.5" x2="1650.5" y2="1046" stroke="black" stroke-opacity="0.1"/>
<line x1="1815.5" x2="1815.5" y2="1046" stroke="black" stroke-opacity="0.1"/>
<line y1="55.5" x2="1920" y2="55.5" stroke="black" stroke-opacity="0.1"/>
<line y1="440.5" x2="1920" y2="440.5" stroke="black" stroke-opacity="0.1"/>
<line y1="770.5" x2="1920" y2="770.5" stroke="black" stroke-opacity="0.1"/>
<line x1="-2.54048e-07" y1="108.5" x2="1920" y2="108.499" stroke="black" stroke-opacity="0.1"/>
<line y1="165.5" x2="1920" y2="165.5" stroke="black" stroke-opacity="0.1"/>
<line y1="495.5" x2="1920" y2="495.5" stroke="black" stroke-opacity="0.1"/>
<line y1="825.5" x2="1920" y2="825.5" stroke="black" stroke-opacity="0.1"/>
<line y1="220.5" x2="1920" y2="220.5" stroke="black" stroke-opacity="0.1"/>
<line y1="550.5" x2="1920" y2="550.5" stroke="black" stroke-opacity="0.1"/>
<line y1="880.5" x2="1920" y2="880.5" stroke="black" stroke-opacity="0.1"/>
<line y1="275.5" x2="1920" y2="275.5" stroke="black" stroke-opacity="0.1"/>
<line y1="605.5" x2="1920" y2="605.5" stroke="black" stroke-opacity="0.1"/>
<line y1="935.5" x2="1920" y2="935.5" stroke="black" stroke-opacity="0.1"/>
<line y1="330.5" x2="1920" y2="330.5" stroke="black" stroke-opacity="0.1"/>
<line y1="660.5" x2="1920" y2="660.5" stroke="black" stroke-opacity="0.1"/>
<line y1="990.5" x2="1920" y2="990.5" stroke="black" stroke-opacity="0.1"/>
<line y1="385.5" x2="1920" y2="385.5" stroke="black" stroke-opacity="0.1"/>
<line y1="715.5" x2="1920" y2="715.5" stroke="black" stroke-opacity="0.1"/>
<path d="M0 1045.5H1920" stroke="black" stroke-opacity="0.1"/>
</svg>
