<svg width="394" height="722" viewBox="0 0 394 722" fill="none" xmlns="http://www.w3.org/2000/svg">
<line y1="721.127" x2="393" y2="721.127" stroke="black" stroke-opacity="0.1" stroke-width="0.5"/>
<line y1="700.462" x2="393" y2="700.462" stroke="black" stroke-opacity="0.1" stroke-width="0.5"/>
<line y1="679.798" x2="393" y2="679.798" stroke="black" stroke-opacity="0.1" stroke-width="0.5"/>
<line y1="659.133" x2="393" y2="659.133" stroke="black" stroke-opacity="0.1" stroke-width="0.5"/>
<line y1="638.469" x2="393" y2="638.469" stroke="black" stroke-opacity="0.1" stroke-width="0.5"/>
<line y1="617.805" x2="393" y2="617.805" stroke="black" stroke-opacity="0.1" stroke-width="0.5"/>
<line y1="514.482" x2="393" y2="514.482" stroke="black" stroke-opacity="0.1" stroke-width="0.5"/>
<line y1="349.167" x2="393" y2="349.167" stroke="black" stroke-opacity="0.1" stroke-width="0.5"/>
<line y1="183.851" x2="393" y2="183.851" stroke="black" stroke-opacity="0.1" stroke-width="0.5"/>
<line y1="597.14" x2="393" y2="597.14" stroke="black" stroke-opacity="0.1" stroke-width="0.5"/>
<line y1="493.818" x2="393" y2="493.818" stroke="black" stroke-opacity="0.1" stroke-width="0.5"/>
<line y1="328.502" x2="393" y2="328.502" stroke="black" stroke-opacity="0.1" stroke-width="0.5"/>
<line y1="163.187" x2="393" y2="163.187" stroke="black" stroke-opacity="0.1" stroke-width="0.5"/>
<line y1="576.476" x2="393" y2="576.476" stroke="black" stroke-opacity="0.1" stroke-width="0.5"/>
<line y1="411.16" x2="393" y2="411.16" stroke="black" stroke-opacity="0.1" stroke-width="0.5"/>
<line y1="245.845" x2="393" y2="245.845" stroke="black" stroke-opacity="0.1" stroke-width="0.5"/>
<line y1="473.153" x2="393" y2="473.153" stroke="black" stroke-opacity="0.1" stroke-width="0.5"/>
<line y1="307.838" x2="393" y2="307.838" stroke="black" stroke-opacity="0.1" stroke-width="0.5"/>
<line y1="142.522" x2="393" y2="142.522" stroke="black" stroke-opacity="0.1" stroke-width="0.5"/>
<line y1="80.5291" x2="393" y2="80.5291" stroke="black" stroke-opacity="0.1" stroke-width="0.5"/>
<line y1="555.811" x2="393" y2="555.811" stroke="black" stroke-opacity="0.1" stroke-width="0.5"/>
<line y1="390.496" x2="393" y2="390.496" stroke="black" stroke-opacity="0.1" stroke-width="0.5"/>
<line y1="225.18" x2="393" y2="225.18" stroke="black" stroke-opacity="0.1" stroke-width="0.5"/>
<line y1="452.489" x2="393" y2="452.489" stroke="black" stroke-opacity="0.1" stroke-width="0.5"/>
<line y1="287.174" x2="393" y2="287.174" stroke="black" stroke-opacity="0.1" stroke-width="0.5"/>
<line y1="121.858" x2="393" y2="121.858" stroke="black" stroke-opacity="0.1" stroke-width="0.5"/>
<line y1="59.8647" x2="393" y2="59.8647" stroke="black" stroke-opacity="0.1" stroke-width="0.5"/>
<line y1="18.5359" x2="393" y2="18.5359" stroke="black" stroke-opacity="0.1" stroke-width="0.5"/>
<line y1="535.147" x2="393" y2="535.147" stroke="black" stroke-opacity="0.1" stroke-width="0.5"/>
<line y1="369.831" x2="393" y2="369.831" stroke="black" stroke-opacity="0.1" stroke-width="0.5"/>
<line y1="204.516" x2="393" y2="204.516" stroke="black" stroke-opacity="0.1" stroke-width="0.5"/>
<line y1="431.825" x2="393" y2="431.825" stroke="black" stroke-opacity="0.1" stroke-width="0.5"/>
<line y1="266.509" x2="393" y2="266.509" stroke="black" stroke-opacity="0.1" stroke-width="0.5"/>
<line y1="101.194" x2="393" y2="101.194" stroke="black" stroke-opacity="0.1" stroke-width="0.5"/>
<line y1="39.2002" x2="393" y2="39.2002" stroke="black" stroke-opacity="0.1" stroke-width="0.5"/>
<line x1="20.79" y1="721.377" x2="20.79" stroke="black" stroke-opacity="0.1" stroke-width="0.5"/>
<line x1="165.441" y1="721.377" x2="165.441" stroke="black" stroke-opacity="0.1" stroke-width="0.5"/>
<line x1="289.428" y1="721.377" x2="289.428" stroke="black" stroke-opacity="0.1" stroke-width="0.5"/>
<line x1="40.7031" y1="721.377" x2="40.7028" y2="6.11622e-05" stroke="black" stroke-opacity="0.1" stroke-width="0.5"/>
<line x1="62.1191" y1="721.377" x2="62.1191" stroke="black" stroke-opacity="0.1" stroke-width="0.5"/>
<line x1="186.106" y1="721.377" x2="186.106" stroke="black" stroke-opacity="0.1" stroke-width="0.5"/>
<line x1="310.092" y1="721.377" x2="310.092" stroke="black" stroke-opacity="0.1" stroke-width="0.5"/>
<line x1="82.7834" y1="721.377" x2="82.7834" stroke="black" stroke-opacity="0.1" stroke-width="0.5"/>
<line x1="206.77" y1="721.377" x2="206.77" stroke="black" stroke-opacity="0.1" stroke-width="0.5"/>
<line x1="330.757" y1="721.377" x2="330.757" stroke="black" stroke-opacity="0.1" stroke-width="0.5"/>
<line x1="103.448" y1="721.377" x2="103.448" stroke="black" stroke-opacity="0.1" stroke-width="0.5"/>
<line x1="227.434" y1="721.377" x2="227.434" stroke="black" stroke-opacity="0.1" stroke-width="0.5"/>
<line x1="351.421" y1="721.377" x2="351.421" stroke="black" stroke-opacity="0.1" stroke-width="0.5"/>
<line x1="124.113" y1="721.377" x2="124.113" stroke="black" stroke-opacity="0.1" stroke-width="0.5"/>
<line x1="248.099" y1="721.377" x2="248.099" stroke="black" stroke-opacity="0.1" stroke-width="0.5"/>
<line x1="372.085" y1="721.377" x2="372.085" stroke="black" stroke-opacity="0.1" stroke-width="0.5"/>
<line x1="144.777" y1="721.377" x2="144.777" stroke="black" stroke-opacity="0.1" stroke-width="0.5"/>
<line x1="268.763" y1="721.377" x2="268.763" stroke="black" stroke-opacity="0.1" stroke-width="0.5"/>
<path d="M392.812 721.377L392.812 -1.90735e-05" stroke="black" stroke-opacity="0.1" stroke-width="0.5"/>
</svg>
