<svg width="412" height="411" viewBox="0 0 412 411" fill="none" xmlns="http://www.w3.org/2000/svg">
<path d="M369.033 163.338C369.033 159.145 367.371 155.124 364.412 152.16C361.453 149.195 357.44 147.53 353.256 147.53C349.071 147.53 345.058 149.195 342.1 152.16C339.141 155.124 337.479 159.145 337.479 163.338H369.033ZM74.5215 163.338C74.5215 159.145 72.8593 155.124 69.9004 152.16C66.9416 149.195 62.9285 147.53 58.7441 147.53C54.5597 147.53 50.5466 149.195 47.5878 152.16C44.6289 155.124 42.9667 159.145 42.9667 163.338H74.5215ZM384.18 216.664C385.624 218.217 387.366 219.463 389.301 220.327C391.237 221.191 393.326 221.656 395.444 221.693C397.563 221.731 399.667 221.34 401.632 220.545C403.596 219.75 405.381 218.567 406.879 217.065C408.377 215.564 409.558 213.776 410.352 211.808C411.145 209.839 411.535 207.731 411.498 205.609C411.46 203.486 410.997 201.393 410.134 199.454C409.272 197.514 408.029 195.769 406.478 194.322L384.18 216.664ZM206 15.7943L217.149 4.62317C214.191 1.66281 210.181 0 206 0C201.819 0 197.809 1.66281 194.851 4.62317L206 15.7943ZM5.5216 194.322C3.97149 195.769 2.72818 197.514 1.86585 199.454C1.00352 201.393 0.539833 203.486 0.502455 205.609C0.465078 207.731 0.854773 209.839 1.64829 211.808C2.44181 213.776 3.6229 215.564 5.1211 217.065C6.6193 218.567 8.40391 219.75 10.3685 220.545C12.333 221.34 14.4373 221.731 16.5558 221.693C18.6742 221.656 20.7634 221.191 22.6988 220.327C24.6341 219.463 26.3759 218.217 27.8204 216.664L5.5216 194.322ZM100.817 411H311.183V379.384H100.817V411ZM369.033 353.037V163.338H337.479V353.037H369.033ZM74.5215 353.037V163.338H42.9667V353.037H74.5215ZM406.478 194.322L217.149 4.62317L194.851 26.9655L384.18 216.664L406.478 194.322ZM194.851 4.62317L5.5216 194.322L27.8204 216.664L217.149 26.9655L194.851 4.62317ZM311.183 411C326.526 411 341.24 404.893 352.089 394.023C362.938 383.153 369.033 368.409 369.033 353.037H337.479C337.479 367.58 325.698 379.384 311.183 379.384V411ZM100.817 379.384C86.302 379.384 74.5215 367.58 74.5215 353.037H42.9667C42.9667 368.409 49.0616 383.153 59.9107 394.023C70.7598 404.893 85.4743 411 100.817 411V379.384Z" fill="white"/>
</svg>
