<svg width="381" height="337" viewBox="0 0 381 337" fill="none" xmlns="http://www.w3.org/2000/svg">
<path d="M23.1342 224.766C23.1342 231.377 18.1769 236.335 11.5671 236.335C4.95737 236.335 0 231.377 0 224.766C0 218.155 4.95737 213.197 11.5671 213.197C17.6261 213.197 23.1342 218.155 23.1342 224.766Z" fill="black"/>
<path d="M23.1342 255.616C23.1342 262.226 18.1769 267.184 11.5671 267.184C4.95737 267.184 0 262.226 0 255.616C0 249.005 4.95737 244.047 11.5671 244.047C17.6261 244.047 23.1342 249.556 23.1342 255.616Z" fill="black"/>
<path d="M23.1342 287.017C23.1342 293.628 18.1769 298.586 11.5671 298.586C4.95737 298.586 0 293.628 0 287.017C0 280.406 4.95737 275.448 11.5671 275.448C17.6261 275.448 23.1342 280.406 23.1342 287.017Z" fill="black"/>
<path d="M376.86 78.3399L355.41 102.02L358.676 104.978L380.125 81.2988L376.86 78.3399Z" fill="black"/>
<path d="M367.246 69.7804L345.797 93.46L349.062 96.4189L370.512 72.7393L367.246 69.7804Z" fill="black"/>
<path d="M360.602 59.5098L339.152 83.1895L342.418 86.1484L363.867 62.4687L360.602 59.5098Z" fill="black"/>
<g opacity="0.4">
<mask id="mask0_1080_12398" style="mask-type:luminance" maskUnits="userSpaceOnUse" x="75" y="64" width="193" height="217">
<path d="M267.144 64.4551H75.4609V280.957H267.144V64.4551Z" fill="white"/>
</mask>
<g mask="url(#mask0_1080_12398)">
<path d="M111.815 85.3897C89.7822 103.018 75.4609 130.012 75.4609 160.312C75.4609 201.629 101.349 236.886 138.254 250.108V269.94C138.254 276 143.211 280.958 149.27 280.958H193.335C199.394 280.958 204.352 276 204.352 269.94V250.108C242.909 235.784 269.899 197.222 266.594 152.599C262.738 105.773 225.283 68.312 178.463 65.0066C153.677 62.803 129.992 71.0663 111.815 85.3897Z" fill="#0067A0"/>
</g>
</g>
<path d="M183.421 274.897H139.356C131.645 274.897 125.586 268.838 125.586 261.125V242.945C88.1305 228.622 62.793 191.712 62.793 151.497C62.793 121.197 76.5634 93.1015 99.6976 74.371C118.976 58.9459 143.212 51.7843 167.999 53.437C215.369 57.2932 254.476 95.856 258.332 143.233C259.985 165.269 254.477 186.754 242.909 204.934C231.893 222.011 215.369 235.233 196.09 242.945V261.125C197.192 268.838 191.133 274.897 183.421 274.897ZM161.389 58.395C140.458 58.395 120.078 65.5567 103.553 78.7783C80.9699 96.407 68.3011 123.401 68.3011 152.047C68.3011 191.161 93.0878 226.418 129.442 239.64L131.094 240.191V261.676C131.094 266.634 134.95 270.49 139.907 270.49H183.972C188.93 270.49 192.785 266.634 192.785 261.676V240.191L194.438 239.64C213.165 233.029 229.139 219.808 240.155 203.281C251.722 185.652 256.68 165.82 255.027 144.886C251.722 99.7123 214.818 62.8022 169.1 59.4969C166.346 58.3951 164.143 58.395 161.389 58.395Z" fill="black"/>
<path d="M163.59 153.149H159.184V269.388H163.59V153.149Z" fill="black"/>
<path d="M193.887 295.281H128.891V299.688H193.887V295.281Z" fill="black"/>
<path d="M182.319 322.274H139.906V326.682H182.319V322.274Z" fill="black"/>
<path d="M163.59 0H159.184V26.4431H163.59V0Z" fill="black"/>
<path d="M265.551 42.4193L246.855 61.1172L249.971 64.2335L268.666 45.5356L265.551 42.4193Z" fill="black"/>
<path d="M310.658 147.09H284.219V151.497H310.658V147.09Z" fill="black"/>
<path d="M249.339 235.156L246.223 238.272L264.918 256.97L268.034 253.854L249.339 235.156Z" fill="black"/>
<path d="M72.5701 234.923L53.875 253.621L56.9908 256.737L75.6859 238.039L72.5701 234.923Z" fill="black"/>
<path d="M38.5563 147.09H12.1172V151.497H38.5563V147.09Z" fill="black"/>
<path d="M57.2526 42.538L54.1367 45.6543L72.8318 64.3521L75.9476 61.2358L57.2526 42.538Z" fill="black"/>
<path d="M160.287 214.849L130.543 202.73V170.227H135.5V199.424L161.939 210.442L160.287 214.849Z" fill="black"/>
<path d="M162.488 227.52L160.836 223.664L187.275 212.646V170.227H192.232V215.951L162.488 227.52Z" fill="black"/>
<path d="M296.889 336.598C295.236 336.598 293.584 336.047 292.482 335.496L269.348 322.275C266.594 320.622 264.941 317.868 264.941 314.562C264.941 311.257 266.594 308.502 269.348 306.85L292.482 293.628C295.236 291.975 298.541 291.975 301.295 293.628C304.049 295.281 305.702 298.035 305.702 301.341V328.335C305.702 331.64 304.049 334.394 301.295 336.047C299.643 336.047 298.541 336.598 296.889 336.598ZM294.685 296.933L271.551 310.155C270.45 310.706 269.348 312.359 269.348 314.011C269.348 315.664 269.899 316.766 271.551 317.868L294.685 331.089C295.787 331.64 297.439 331.64 299.092 331.089C300.194 330.538 301.295 328.885 301.295 327.233V300.79C301.295 299.137 300.744 298.035 299.092 296.933C297.439 296.383 295.787 296.383 294.685 296.933Z" fill="black"/>
</svg>
