<svg width="313" height="256" viewBox="0 0 313 256" fill="none" xmlns="http://www.w3.org/2000/svg">
<path d="M20.9311 87.1897C20.9311 92.6986 16.5246 97.6567 10.4656 97.6567C4.95747 97.6567 0 93.2495 0 87.1897C0 81.6807 4.40665 76.7227 10.4656 76.7227C16.5246 76.7227 20.9311 81.6807 20.9311 87.1897Z" fill="black"/>
<path d="M20.9311 115.285C20.9311 120.794 16.5246 125.752 10.4656 125.752C4.95747 125.752 0 121.345 0 115.285C0 109.776 4.40665 104.818 10.4656 104.818C16.5246 104.818 20.9311 109.776 20.9311 115.285Z" fill="black"/>
<path d="M20.9311 143.381C20.9311 148.89 16.5246 153.848 10.4656 153.848C4.95747 153.848 0 149.441 0 143.381C0 137.872 4.40665 132.914 10.4656 132.914C16.5246 132.914 20.9311 137.872 20.9311 143.381Z" fill="black"/>
<path d="M77.6661 254.662C77.1153 254.662 76.5645 254.662 76.0137 254.111C74.9121 253.009 74.9121 251.907 76.0137 250.806L106.859 219.955C107.961 218.853 109.063 218.853 110.164 219.955C111.266 221.057 111.266 222.159 110.164 223.261L79.3186 254.111C79.3186 254.111 78.7677 254.662 77.6661 254.662Z" fill="black"/>
<path d="M108.512 254.662C107.961 254.662 107.41 254.662 106.859 254.111L76.0137 223.261C74.9121 222.159 74.9121 221.057 76.0137 219.955C77.1154 218.853 78.217 218.853 79.3186 219.955L110.164 250.806C111.266 251.907 111.266 253.009 110.164 254.111C109.613 254.111 109.063 254.662 108.512 254.662Z" fill="black"/>
<path d="M297.443 109.225H265.496C264.395 109.225 263.293 108.124 263.293 107.022C263.293 105.92 264.395 104.818 265.496 104.818H297.443C298.545 104.818 299.647 105.92 299.647 107.022C300.198 108.124 299.096 109.225 297.443 109.225Z" fill="black"/>
<path d="M297.443 95.452H265.496C264.395 95.452 263.293 94.3503 263.293 93.2485C263.293 92.1467 264.395 91.0449 265.496 91.0449H297.443C298.545 91.0449 299.647 92.1467 299.647 93.2485C300.198 94.9012 299.096 95.452 297.443 95.452Z" fill="black"/>
<path d="M297.443 83.8837H265.496C264.395 83.8837 263.293 82.7819 263.293 81.6801C263.293 80.5783 264.395 79.4766 265.496 79.4766H297.443C298.545 79.4766 299.647 80.5783 299.647 81.6801C300.198 82.7819 299.096 83.8837 297.443 83.8837Z" fill="black"/>
<g opacity="0.4">
<mask id="mask0_1080_12397" style="mask-type:luminance" maskUnits="userSpaceOnUse" x="47" y="17" width="174" height="175">
<path d="M220.878 17.7754H47.3711V191.308H220.878V17.7754Z" fill="white"/>
</mask>
<g mask="url(#mask0_1080_12397)">
<path d="M47.3711 104.266C47.3711 56.3382 86.479 17.2246 134.4 17.2246C182.321 17.2246 221.429 56.3382 221.429 104.266C221.429 152.194 182.321 191.308 134.4 191.308C85.9282 191.308 47.3711 152.194 47.3711 104.266Z" fill="#26A3BF"/>
</g>
</g>
<path d="M149.826 183.045C125.59 183.045 103.007 173.68 85.9313 156.603C50.6792 121.345 50.6792 64.0518 85.9313 28.7944C110.167 4.55492 145.419 -3.70853 177.917 6.75851C179.019 7.30941 179.57 8.4112 179.57 9.51299C179.019 10.6148 177.917 11.1658 176.816 11.1658C145.97 1.24964 112.37 8.96213 89.7871 32.0998C56.1874 65.7045 56.1874 119.692 89.7871 153.297C105.761 169.273 127.242 178.638 150.377 178.638C173.511 178.638 194.993 169.824 210.966 153.297C233.55 130.71 241.812 97.1057 231.897 66.2555C231.346 65.1537 232.448 63.501 233.55 63.501C234.651 62.9501 236.304 64.0518 236.304 65.1536C246.769 97.6565 237.956 132.363 214.271 156.603C196.645 173.68 173.511 183.045 149.826 183.045Z" fill="black"/>
<path d="M220.878 43.117C220.327 43.117 219.225 42.5662 219.225 42.0153C216.471 38.159 213.717 34.8535 210.412 31.5481C200.498 21.632 189.481 15.0213 176.262 10.6141C175.16 10.0632 174.609 8.96145 174.609 7.85965C175.16 6.75786 176.262 6.20703 177.363 6.20703C191.134 10.6142 203.252 18.3268 213.166 28.2429C216.471 31.5483 219.776 35.4046 222.53 39.2608C223.081 40.3626 223.081 42.0152 221.979 42.5661C221.979 43.117 221.429 43.117 220.878 43.117Z" fill="black"/>
<path d="M104.657 139.524C104.107 139.524 103.556 139.524 103.005 138.973C90.8872 126.853 83.7266 110.326 83.7266 92.6973C83.7266 75.0686 90.3363 58.5418 103.005 46.422C104.107 45.3203 105.208 45.3203 106.31 46.422C107.412 47.5238 107.412 48.6257 106.31 49.7275C94.7429 61.2963 88.6839 76.7213 88.6839 92.6973C88.6839 109.224 95.2937 124.099 106.31 135.667C107.412 136.769 107.412 137.871 106.31 138.973C106.31 139.524 105.759 139.524 104.657 139.524Z" fill="black"/>
<path d="M290.281 255.213C284.773 255.213 278.714 253.009 274.308 248.602L194.44 168.722C193.338 167.62 193.338 166.518 194.44 165.416C195.541 164.315 196.643 164.315 197.744 165.416L277.613 245.296C284.773 252.458 295.789 252.458 302.399 245.296C305.704 241.991 307.357 237.584 307.357 232.626C307.357 227.668 305.704 223.261 302.399 219.955L222.531 140.075C221.429 138.973 221.429 137.871 222.531 136.77C223.633 135.668 224.734 135.668 225.836 136.77L305.704 216.65C310.11 221.057 312.314 226.566 312.314 232.626C312.314 238.686 310.11 244.195 305.704 248.602C301.848 253.009 295.789 255.213 290.281 255.213Z" fill="black"/>
<path d="M265.494 32.0985C264.393 32.0985 263.291 31.5477 263.291 30.4459L257.232 5.10457L231.895 10.6135C230.793 11.1644 229.141 10.0627 229.141 8.96092C229.141 7.85913 229.692 6.20644 230.793 6.20644L258.334 0.146537C259.436 -0.40436 261.088 0.697366 261.088 1.79916L267.147 29.344C268.248 30.4458 267.147 32.0985 265.494 32.0985Z" fill="black"/>
<path d="M127.241 135.668C126.69 135.668 126.14 135.668 126.14 135.117C125.038 134.566 124.487 132.914 125.589 131.812L166.9 69.0096C167.451 68.4587 168.001 67.9078 168.552 67.9078C169.103 67.9078 169.654 67.9078 170.205 68.4587L198.296 88.842L256.132 2.90203C256.683 1.80024 258.335 1.80021 259.437 2.3511C260.538 2.902 260.538 4.55472 259.988 5.65652L200.5 93.2491C199.949 93.8 199.398 94.3509 198.847 94.3509C198.296 94.3509 197.745 94.3509 197.195 93.8L169.103 73.4168L129.444 134.566C128.894 135.668 128.343 135.668 127.241 135.668Z" fill="black"/>
</svg>
