<svg width="357" height="215" viewBox="0 0 357 215" fill="none" xmlns="http://www.w3.org/2000/svg">
<path d="M356.38 15.9762C356.38 23.1379 350.872 28.6468 343.712 28.6468C336.551 28.6468 331.043 23.1379 331.043 15.9762C331.043 8.81456 336.551 3.30566 343.712 3.30566C350.872 3.30566 356.38 8.81456 356.38 15.9762Z" fill="black"/>
<path d="M356.38 49.5811C356.38 56.7427 350.872 62.2516 343.712 62.2516C336.551 62.2516 331.043 56.7427 331.043 49.5811C331.043 42.4194 336.551 36.9102 343.712 36.9102C350.872 37.4611 356.38 42.9703 356.38 49.5811Z" fill="black"/>
<path d="M356.38 83.736C356.38 90.8976 350.872 96.4069 343.712 96.4069C336.551 96.4069 331.043 90.8976 331.043 83.736C331.043 76.5743 336.551 71.0654 343.712 71.0654C350.872 71.0654 356.38 77.1252 356.38 83.736Z" fill="black"/>
<path d="M67.752 44.0717C67.2012 44.0717 66.6505 44.0715 66.0997 43.5206C64.998 42.4188 64.998 41.3171 66.0997 40.2153L88.6829 15.425C89.7846 14.3232 90.8862 14.3232 91.9879 15.425C93.0895 16.5268 93.0895 17.6284 91.9879 18.7302L69.4044 43.5206C69.4044 44.0715 68.8537 44.0717 67.752 44.0717Z" fill="black"/>
<path d="M60.0413 37.4604C59.4905 37.4604 58.9395 37.4601 58.3887 36.9093C57.2871 35.8075 57.2871 34.7058 58.3887 33.604L80.9722 8.81365C82.0738 7.71186 83.1755 7.71186 84.2771 8.81365C85.3787 9.91544 85.3787 11.0171 84.2771 12.1189L61.6936 36.9093C61.1428 36.9093 60.5921 37.4604 60.0413 37.4604Z" fill="black"/>
<path d="M52.8809 29.7484C52.3301 29.7484 51.7794 29.7486 51.2286 29.1977C50.1269 28.0959 50.1269 26.9939 51.2286 25.8921L73.812 1.10174C74.9136 -5.77524e-05 76.0153 -5.77524e-05 77.1169 1.10174C78.2186 2.20353 78.2186 3.30552 77.1169 4.40732L54.5335 29.1977C53.9827 29.7486 53.4318 29.7484 52.8809 29.7484Z" fill="black"/>
<path d="M199.395 196.67H125.035C123.934 196.67 122.832 195.568 122.832 194.466V55.6402C122.832 54.5385 123.934 53.4365 125.035 53.4365H199.395C200.497 53.4365 201.598 54.5385 201.598 55.6402V194.466C201.598 195.568 200.497 196.67 199.395 196.67ZM127.238 191.712H196.641V57.2929H127.238V191.712Z" fill="black"/>
<path d="M104.106 196.67H29.7462C28.6446 196.67 27.543 195.568 27.543 194.466V109.628C27.543 108.526 28.6446 107.425 29.7462 107.425H104.106C105.208 107.425 106.309 108.526 106.309 109.628V194.466C106.309 195.568 105.208 196.67 104.106 196.67ZM31.9494 191.712H101.352V111.281H31.9494V191.712Z" fill="black"/>
<g opacity="0.4">
<mask id="mask0_1080_12399" style="mask-type:luminance" maskUnits="userSpaceOnUse" x="238" y="15" width="75" height="193">
<path d="M312.864 15.4258H238.504V207.689H312.864V15.4258Z" fill="white"/>
</mask>
<g mask="url(#mask0_1080_12399)">
<path d="M312.864 15.4258H238.504V207.689H312.864V15.4258Z" fill="#00993E"/>
</g>
</g>
<path d="M299.094 196.67H224.734C223.633 196.67 222.531 195.568 222.531 194.466V2.20339C222.531 1.10159 223.633 0 224.734 0H299.094C300.196 0 301.298 1.10159 301.298 2.20339V194.466C301.298 195.568 300.196 196.67 299.094 196.67ZM226.938 191.712H296.34V3.85601H226.938V191.712Z" fill="black"/>
<path d="M326.633 214.299H2.20323C1.1016 214.299 0 213.197 0 212.095C0 210.994 1.1016 209.892 2.20323 209.892H326.633C327.735 209.892 328.836 210.994 328.836 212.095C328.836 213.197 327.735 214.299 326.633 214.299Z" fill="black"/>
</svg>
