<svg width="575" height="570" viewBox="0 0 575 570" fill="none" xmlns="http://www.w3.org/2000/svg">
<path d="M561.024 479.839H471.906V502.16H561.024V479.839Z" fill="#EF7F1A"/>
<path d="M574.342 385.666L513.901 254L453.461 385.666C453.461 385.666 491.861 419.806 489.49 476.888H538.343C535.972 419.806 574.372 385.666 574.372 385.666" fill="#231F20"/>
<path d="M513.516 384.736C513.463 384.686 513.421 384.626 513.392 384.561C513.364 384.495 513.35 384.425 513.352 384.354V254.045C513.352 253.906 513.41 253.773 513.513 253.675C513.617 253.577 513.757 253.522 513.903 253.522C513.976 253.52 514.049 253.532 514.117 253.558C514.185 253.583 514.247 253.622 514.298 253.671C514.35 253.72 514.39 253.778 514.417 253.842C514.444 253.907 514.457 253.976 514.455 254.045V384.354C514.457 384.423 514.444 384.492 514.417 384.556C514.39 384.621 514.35 384.679 514.298 384.728C514.247 384.777 514.185 384.815 514.117 384.841C514.049 384.867 513.976 384.879 513.903 384.877C513.76 384.875 513.623 384.825 513.516 384.736Z" fill="white"/>
<path d="M529.783 384.808C529.783 387.786 528.852 390.697 527.107 393.172C525.362 395.648 522.881 397.578 519.979 398.717C517.077 399.857 513.884 400.155 510.803 399.574C507.722 398.993 504.892 397.559 502.671 395.454C500.45 393.348 498.938 390.666 498.325 387.745C497.712 384.825 498.026 381.798 499.228 379.047C500.431 376.296 502.466 373.945 505.078 372.29C507.69 370.636 510.76 369.753 513.901 369.753C518.113 369.753 522.153 371.339 525.132 374.163C528.11 376.986 529.783 380.815 529.783 384.808Z" fill="white"/>
<path d="M515.855 262.253H510.979C510.979 130.007 397.554 22.4011 258.092 22.2456H257.793C118.316 22.4011 4.90652 130.007 4.90652 262.253H0.000291725C-0.0506877 230.134 6.58036 198.321 19.514 168.635C32.4475 138.948 51.4298 111.97 75.3743 89.2457C99.3189 66.5212 127.756 48.4957 159.057 36.201C190.359 23.9062 223.911 17.5836 257.793 17.5947H258.092C291.97 17.5929 325.516 23.9221 356.812 36.2205C388.107 48.5189 416.538 66.5451 440.478 89.2682C464.419 111.991 483.398 138.965 496.332 168.648C509.266 198.33 515.9 230.138 515.855 262.253Z" fill="#231F20"/>
<path d="M41.0676 138.806C63.5393 103.329 95.3015 73.9593 133.274 53.5453C171.245 33.1314 214.138 22.3664 257.792 22.2944H258.09C301.741 22.366 344.632 33.131 382.602 53.5451C420.571 73.9592 452.331 103.329 474.799 138.806H480.66C457.973 101.928 425.482 71.3334 386.429 50.0735C347.376 28.8137 303.125 17.6319 258.09 17.6436H257.792C212.769 17.6818 168.539 28.8814 129.494 50.1309C90.4477 71.3803 57.9434 101.941 35.207 138.778L41.0676 138.806Z" fill="white"/>
<path d="M156.165 18.4883C156.165 24.2477 160.834 28.9166 166.594 28.9166C172.353 28.9166 177.022 24.2477 177.022 18.4883C177.022 12.7289 172.353 8.05993 166.594 8.05993C160.834 8.05993 156.165 12.7289 156.165 18.4883ZM370.468 18.4883C370.468 24.2477 375.137 28.9166 380.896 28.9166C386.656 28.9166 391.325 24.2477 391.325 18.4883C391.325 12.7289 386.656 8.05993 380.896 8.05993C375.137 8.05993 370.468 12.7289 370.468 18.4883ZM166.594 20.4436H380.896V16.533H166.594V20.4436Z" fill="white"/>
<circle cx="273.745" cy="17.6805" r="17.6825" fill="#EF7F1A"/>
<rect x="297" y="512" width="264" height="58" fill="#EF7F1A"/>
<path d="M310.88 548V534H313.02L319.14 544.22H318.02L324.04 534H326.18L326.2 548H323.74L323.72 537.86H324.24L319.12 546.4H317.96L312.76 537.86H313.36V548H310.88ZM334.542 548.14C333.448 548.14 332.475 547.907 331.622 547.44C330.768 546.96 330.095 546.307 329.602 545.48C329.108 544.653 328.862 543.713 328.862 542.66C328.862 541.593 329.108 540.653 329.602 539.84C330.095 539.013 330.768 538.367 331.622 537.9C332.475 537.433 333.448 537.2 334.542 537.2C335.648 537.2 336.628 537.433 337.482 537.9C338.348 538.367 339.022 539.007 339.502 539.82C339.995 540.633 340.242 541.58 340.242 542.66C340.242 543.713 339.995 544.653 339.502 545.48C339.022 546.307 338.348 546.96 337.482 547.44C336.628 547.907 335.648 548.14 334.542 548.14ZM334.542 546C335.155 546 335.702 545.867 336.182 545.6C336.662 545.333 337.035 544.947 337.302 544.44C337.582 543.933 337.722 543.34 337.722 542.66C337.722 541.967 337.582 541.373 337.302 540.88C337.035 540.373 336.662 539.987 336.182 539.72C335.702 539.453 335.162 539.32 334.562 539.32C333.948 539.32 333.402 539.453 332.922 539.72C332.455 539.987 332.082 540.373 331.802 540.88C331.522 541.373 331.382 541.967 331.382 542.66C331.382 543.34 331.522 543.933 331.802 544.44C332.082 544.947 332.455 545.333 332.922 545.6C333.402 545.867 333.942 546 334.542 546ZM347.152 548.14C346.126 548.14 345.199 547.913 344.372 547.46C343.559 546.993 342.919 546.353 342.452 545.54C341.986 544.727 341.752 543.767 341.752 542.66C341.752 541.553 341.986 540.593 342.452 539.78C342.919 538.967 343.559 538.333 344.372 537.88C345.199 537.427 346.126 537.2 347.152 537.2C348.046 537.2 348.846 537.4 349.552 537.8C350.259 538.187 350.819 538.78 351.232 539.58C351.646 540.38 351.852 541.407 351.852 542.66C351.852 543.9 351.652 544.927 351.252 545.74C350.852 546.54 350.299 547.14 349.592 547.54C348.886 547.94 348.072 548.14 347.152 548.14ZM347.452 546C348.052 546 348.586 545.867 349.052 545.6C349.532 545.333 349.912 544.947 350.192 544.44C350.486 543.933 350.632 543.34 350.632 542.66C350.632 541.967 350.486 541.373 350.192 540.88C349.912 540.373 349.532 539.987 349.052 539.72C348.586 539.453 348.052 539.32 347.452 539.32C346.852 539.32 346.312 539.453 345.832 539.72C345.366 539.987 344.986 540.373 344.692 540.88C344.412 541.373 344.272 541.967 344.272 542.66C344.272 543.34 344.412 543.933 344.692 544.44C344.986 544.947 345.366 545.333 345.832 545.6C346.312 545.867 346.852 546 347.452 546ZM350.692 548V545.48L350.792 542.64L350.592 539.8V533.16H353.072V548H350.692ZM361.383 548.14C360.196 548.14 359.156 547.907 358.263 547.44C357.383 546.96 356.696 546.307 356.203 545.48C355.723 544.653 355.483 543.713 355.483 542.66C355.483 541.593 355.716 540.653 356.183 539.84C356.663 539.013 357.316 538.367 358.143 537.9C358.983 537.433 359.936 537.2 361.003 537.2C362.043 537.2 362.969 537.427 363.783 537.88C364.596 538.333 365.236 538.973 365.703 539.8C366.169 540.627 366.403 541.6 366.403 542.72C366.403 542.827 366.396 542.947 366.383 543.08C366.383 543.213 366.376 543.34 366.363 543.46H357.463V541.8H365.043L364.063 542.32C364.076 541.707 363.949 541.167 363.683 540.7C363.416 540.233 363.049 539.867 362.583 539.6C362.129 539.333 361.603 539.2 361.003 539.2C360.389 539.2 359.849 539.333 359.383 539.6C358.929 539.867 358.569 540.24 358.303 540.72C358.049 541.187 357.923 541.74 357.923 542.38V542.78C357.923 543.42 358.069 543.987 358.363 544.48C358.656 544.973 359.069 545.353 359.603 545.62C360.136 545.887 360.749 546.02 361.443 546.02C362.043 546.02 362.583 545.927 363.063 545.74C363.543 545.553 363.969 545.26 364.343 544.86L365.683 546.4C365.203 546.96 364.596 547.393 363.863 547.7C363.143 547.993 362.316 548.14 361.383 548.14ZM375.131 540.52C374.678 540.52 374.291 540.367 373.971 540.06C373.651 539.74 373.491 539.34 373.491 538.86C373.491 538.353 373.651 537.953 373.971 537.66C374.291 537.353 374.678 537.2 375.131 537.2C375.585 537.2 375.971 537.353 376.291 537.66C376.611 537.953 376.771 538.353 376.771 538.86C376.771 539.34 376.611 539.74 376.291 540.06C375.971 540.367 375.585 540.52 375.131 540.52ZM375.131 548.14C374.678 548.14 374.291 547.987 373.971 547.68C373.651 547.36 373.491 546.96 373.491 546.48C373.491 545.973 373.651 545.573 373.971 545.28C374.291 544.973 374.678 544.82 375.131 544.82C375.585 544.82 375.971 544.973 376.291 545.28C376.611 545.573 376.771 545.973 376.771 546.48C376.771 546.96 376.611 547.36 376.291 547.68C375.971 547.987 375.585 548.14 375.131 548.14ZM391.542 548.2C390.448 548.2 389.442 548.02 388.522 547.66C387.602 547.3 386.802 546.8 386.122 546.16C385.442 545.507 384.915 544.747 384.542 543.88C384.168 543 383.982 542.04 383.982 541C383.982 539.96 384.168 539.007 384.542 538.14C384.915 537.26 385.442 536.5 386.122 535.86C386.802 535.207 387.602 534.7 388.522 534.34C389.442 533.98 390.442 533.8 391.522 533.8C392.615 533.8 393.615 533.98 394.522 534.34C395.442 534.7 396.242 535.207 396.922 535.86C397.602 536.5 398.128 537.26 398.502 538.14C398.875 539.007 399.062 539.96 399.062 541C399.062 542.04 398.875 543 398.502 543.88C398.128 544.76 397.602 545.52 396.922 546.16C396.242 546.8 395.442 547.3 394.522 547.66C393.615 548.02 392.622 548.2 391.542 548.2ZM391.522 545.92C392.228 545.92 392.882 545.8 393.482 545.56C394.082 545.32 394.602 544.98 395.042 544.54C395.482 544.087 395.822 543.567 396.062 542.98C396.315 542.38 396.442 541.72 396.442 541C396.442 540.28 396.315 539.627 396.062 539.04C395.822 538.44 395.482 537.92 395.042 537.48C394.602 537.027 394.082 536.68 393.482 536.44C392.882 536.2 392.228 536.08 391.522 536.08C390.815 536.08 390.162 536.2 389.562 536.44C388.975 536.68 388.455 537.027 388.002 537.48C387.562 537.92 387.215 538.44 386.962 539.04C386.722 539.627 386.602 540.28 386.602 541C386.602 541.707 386.722 542.36 386.962 542.96C387.215 543.56 387.562 544.087 388.002 544.54C388.442 544.98 388.962 545.32 389.562 545.56C390.162 545.8 390.815 545.92 391.522 545.92ZM401.918 548V536.72C401.918 535.6 402.244 534.707 402.898 534.04C403.564 533.36 404.511 533.02 405.738 533.02C406.178 533.02 406.591 533.067 406.978 533.16C407.378 533.253 407.711 533.4 407.978 533.6L407.298 535.48C407.111 535.333 406.898 535.227 406.658 535.16C406.418 535.08 406.171 535.04 405.918 535.04C405.398 535.04 405.004 535.187 404.738 535.48C404.471 535.76 404.338 536.187 404.338 536.76V537.96L404.418 539.08V548H401.918ZM400.158 539.4V537.4H407.278V539.4H400.158ZM409.3 548V536.72C409.3 535.6 409.627 534.707 410.28 534.04C410.947 533.36 411.894 533.02 413.12 533.02C413.56 533.02 413.974 533.067 414.36 533.16C414.76 533.253 415.094 533.4 415.36 533.6L414.68 535.48C414.494 535.333 414.28 535.227 414.04 535.16C413.8 535.08 413.554 535.04 413.3 535.04C412.78 535.04 412.387 535.187 412.12 535.48C411.854 535.76 411.72 536.187 411.72 536.76V537.96L411.8 539.08V548H409.3ZM407.54 539.4V537.4H414.66V539.4H407.54ZM416.42 548V533.16H418.92V548H416.42ZM422.203 548V537.32H424.703V548H422.203ZM423.463 535.56C422.996 535.56 422.609 535.413 422.303 535.12C422.009 534.827 421.863 534.473 421.863 534.06C421.863 533.633 422.009 533.28 422.303 533C422.609 532.707 422.996 532.56 423.463 532.56C423.929 532.56 424.309 532.7 424.603 532.98C424.909 533.247 425.063 533.587 425.063 534C425.063 534.44 424.916 534.813 424.623 535.12C424.329 535.413 423.943 535.56 423.463 535.56ZM434.044 537.2C434.897 537.2 435.657 537.367 436.324 537.7C437.004 538.033 437.537 538.547 437.924 539.24C438.31 539.92 438.504 540.8 438.504 541.88V548H436.004V542.2C436.004 541.253 435.777 540.547 435.324 540.08C434.884 539.613 434.264 539.38 433.464 539.38C432.877 539.38 432.357 539.5 431.904 539.74C431.45 539.98 431.097 540.34 430.844 540.82C430.604 541.287 430.484 541.88 430.484 542.6V548H427.984V537.32H430.364V540.2L429.944 539.32C430.317 538.64 430.857 538.12 431.564 537.76C432.284 537.387 433.11 537.2 434.044 537.2ZM446.715 548.14C445.528 548.14 444.488 547.907 443.595 547.44C442.715 546.96 442.028 546.307 441.535 545.48C441.055 544.653 440.815 543.713 440.815 542.66C440.815 541.593 441.048 540.653 441.515 539.84C441.995 539.013 442.648 538.367 443.475 537.9C444.315 537.433 445.268 537.2 446.335 537.2C447.375 537.2 448.301 537.427 449.115 537.88C449.928 538.333 450.568 538.973 451.035 539.8C451.501 540.627 451.735 541.6 451.735 542.72C451.735 542.827 451.728 542.947 451.715 543.08C451.715 543.213 451.708 543.34 451.695 543.46H442.795V541.8H450.375L449.395 542.32C449.408 541.707 449.281 541.167 449.015 540.7C448.748 540.233 448.381 539.867 447.915 539.6C447.461 539.333 446.935 539.2 446.335 539.2C445.721 539.2 445.181 539.333 444.715 539.6C444.261 539.867 443.901 540.24 443.635 540.72C443.381 541.187 443.255 541.74 443.255 542.38V542.78C443.255 543.42 443.401 543.987 443.695 544.48C443.988 544.973 444.401 545.353 444.935 545.62C445.468 545.887 446.081 546.02 446.775 546.02C447.375 546.02 447.915 545.927 448.395 545.74C448.875 545.553 449.301 545.26 449.675 544.86L451.015 546.4C450.535 546.96 449.928 547.393 449.195 547.7C448.475 547.993 447.648 548.14 446.715 548.14ZM459.003 551.02L460.163 546.6L460.503 548.08C460.037 548.08 459.643 547.94 459.323 547.66C459.017 547.367 458.863 546.973 458.863 546.48C458.863 545.973 459.017 545.573 459.323 545.28C459.643 544.973 460.03 544.82 460.483 544.82C460.95 544.82 461.337 544.973 461.643 545.28C461.95 545.587 462.103 545.987 462.103 546.48C462.103 546.613 462.09 546.76 462.063 546.92C462.037 547.067 461.99 547.24 461.923 547.44C461.87 547.64 461.777 547.893 461.643 548.2L460.623 551.02H459.003ZM470.314 548V534H472.454L478.574 544.22H477.454L483.474 534H485.614L485.634 548H483.174L483.154 537.86H483.674L478.554 546.4H477.394L472.194 537.86H472.794V548H470.314ZM493.975 548.14C492.882 548.14 491.908 547.907 491.055 547.44C490.202 546.96 489.528 546.307 489.035 545.48C488.542 544.653 488.295 543.713 488.295 542.66C488.295 541.593 488.542 540.653 489.035 539.84C489.528 539.013 490.202 538.367 491.055 537.9C491.908 537.433 492.882 537.2 493.975 537.2C495.082 537.2 496.062 537.433 496.915 537.9C497.782 538.367 498.455 539.007 498.935 539.82C499.428 540.633 499.675 541.58 499.675 542.66C499.675 543.713 499.428 544.653 498.935 545.48C498.455 546.307 497.782 546.96 496.915 547.44C496.062 547.907 495.082 548.14 493.975 548.14ZM493.975 546C494.588 546 495.135 545.867 495.615 545.6C496.095 545.333 496.468 544.947 496.735 544.44C497.015 543.933 497.155 543.34 497.155 542.66C497.155 541.967 497.015 541.373 496.735 540.88C496.468 540.373 496.095 539.987 495.615 539.72C495.135 539.453 494.595 539.32 493.995 539.32C493.382 539.32 492.835 539.453 492.355 539.72C491.888 539.987 491.515 540.373 491.235 540.88C490.955 541.373 490.815 541.967 490.815 542.66C490.815 543.34 490.955 543.933 491.235 544.44C491.515 544.947 491.888 545.333 492.355 545.6C492.835 545.867 493.375 546 493.975 546ZM508.126 537.2C508.979 537.2 509.739 537.367 510.406 537.7C511.086 538.033 511.619 538.547 512.006 539.24C512.392 539.92 512.586 540.8 512.586 541.88V548H510.086V542.2C510.086 541.253 509.859 540.547 509.406 540.08C508.966 539.613 508.346 539.38 507.546 539.38C506.959 539.38 506.439 539.5 505.986 539.74C505.532 539.98 505.179 540.34 504.926 540.82C504.686 541.287 504.566 541.88 504.566 542.6V548H502.066V537.32H504.446V540.2L504.026 539.32C504.399 538.64 504.939 538.12 505.646 537.76C506.366 537.387 507.192 537.2 508.126 537.2ZM515.217 543.48V541.4H520.717V543.48H515.217ZM526.073 540.44H533.053V542.64H526.073V540.44ZM526.293 548H523.693V534H533.913V536.18H526.293V548ZM535.992 548V537.32H538.372V540.26L538.092 539.4C538.412 538.68 538.912 538.133 539.592 537.76C540.285 537.387 541.145 537.2 542.172 537.2V539.58C542.065 539.553 541.965 539.54 541.872 539.54C541.778 539.527 541.685 539.52 541.592 539.52C540.645 539.52 539.892 539.8 539.332 540.36C538.772 540.907 538.492 541.727 538.492 542.82V548H535.992ZM544.292 548V537.32H546.792V548H544.292ZM545.552 535.56C545.086 535.56 544.699 535.413 544.392 535.12C544.099 534.827 543.952 534.473 543.952 534.06C543.952 533.633 544.099 533.28 544.392 533C544.699 532.707 545.086 532.56 545.552 532.56C546.019 532.56 546.399 532.7 546.692 532.98C546.999 533.247 547.152 533.587 547.152 534C547.152 534.44 547.006 534.813 546.712 535.12C546.419 535.413 546.032 535.56 545.552 535.56Z" fill="#0241CC"/>
</svg>
