<svg width="101" height="98" viewBox="0 0 101 98" fill="none" xmlns="http://www.w3.org/2000/svg">
<path d="M72.9662 92.4C55.6362 100.729 37.0583 99.6122 21.992 89.3356C6.92577 79.059 -0.894416 62.1703 0.535855 42.9957C0.710555 41.5047 1.45461 40.1389 2.61258 39.1835C3.77055 38.2281 5.25287 37.7571 6.74993 37.8688C8.24699 37.9805 9.64298 38.6664 10.6463 39.7831C11.6496 40.8997 12.1827 42.3609 12.1341 43.8614C11.0157 58.9978 16.8432 71.7326 28.5516 79.7188C40.26 87.7051 54.2672 88.4993 67.9274 81.9176C68.62 81.548 69.3801 81.3223 70.1621 81.2541C70.9442 81.1859 71.7319 81.2766 72.478 81.5207C73.224 81.7649 73.913 82.1574 74.5034 82.6747C75.0939 83.192 75.5735 83.8234 75.9136 84.5309C76.2537 85.2384 76.4472 86.0074 76.4824 86.7916C76.5176 87.5758 76.3937 88.359 76.1184 89.0942C75.843 89.8293 75.4218 90.5011 74.8801 91.0692C74.3384 91.6373 73.6874 92.09 72.9662 92.4ZM28.1259 18.3676C29.7109 19.4487 31.581 20.0355 33.4995 20.0539C35.418 20.0722 37.2989 19.5212 38.9043 18.4706C40.5097 17.4199 41.7675 15.9168 42.5186 14.1514C43.2698 12.3859 43.4805 10.4373 43.1242 8.55208C42.7679 6.66684 41.8606 4.92958 40.5169 3.56001C39.1733 2.19043 37.4537 1.25005 35.5756 0.857777C33.6975 0.465502 31.7452 0.638954 29.9657 1.3562C28.1862 2.07345 26.6594 3.30228 25.5782 4.8873C24.1285 7.01274 23.5825 9.62702 24.0602 12.1551C24.538 14.6831 26.0005 16.9178 28.1259 18.3676ZM96.7591 41.6968C95.1741 40.6157 93.3041 40.0288 91.3855 40.0105C89.467 39.9922 87.5861 40.5431 85.9807 41.5938C84.3753 42.6444 83.1176 44.1475 82.3664 45.913C81.6153 47.6785 81.4045 49.627 81.7608 51.5123C82.1171 53.3975 83.0245 55.1348 84.3681 56.5044C85.7118 57.8739 87.4313 58.8143 89.3094 59.2066C91.1875 59.5989 93.1398 59.4254 94.9193 58.7082C96.6988 57.9909 98.2257 56.7621 99.3068 55.1771C100.757 53.0516 101.303 50.4373 100.825 47.9093C100.347 45.3813 98.8845 43.1466 96.7591 41.6968Z" fill="#0241CC"/>
</svg>
