<svg width="1920" height="969" viewBox="0 0 1920 969" fill="none" xmlns="http://www.w3.org/2000/svg">
<g clip-path="url(#clip0_1388_7782)">
<rect width="1920" height="969" fill="#F59120"/>
<line x1="0.5" x2="0.5" y2="1072" stroke="white" stroke-opacity="0.2"/>
<line x1="55.5" x2="55.5" y2="1072" stroke="white" stroke-opacity="0.2"/>
<line x1="110.5" x2="110.5" y2="1072" stroke="white" stroke-opacity="0.2"/>
<line x1="165.5" x2="165.5" y2="1072" stroke="white" stroke-opacity="0.2"/>
<line x1="220.5" x2="220.5" y2="1072" stroke="white" stroke-opacity="0.2"/>
<line x1="275.5" x2="275.5" y2="1072" stroke="white" stroke-opacity="0.2"/>
<line x1="550.5" x2="550.5" y2="1072" stroke="white" stroke-opacity="0.2"/>
<line x1="990.5" x2="990.5" y2="1072" stroke="white" stroke-opacity="0.2"/>
<line x1="1430.5" x2="1430.5" y2="1072" stroke="white" stroke-opacity="0.2"/>
<line x1="330.5" x2="330.5" y2="1072" stroke="white" stroke-opacity="0.2"/>
<line x1="605.5" x2="605.5" y2="1072" stroke="white" stroke-opacity="0.2"/>
<line x1="1045.5" x2="1045.5" y2="1072" stroke="white" stroke-opacity="0.2"/>
<line x1="1485.5" x2="1485.5" y2="1072" stroke="white" stroke-opacity="0.2"/>
<line x1="385.5" x2="385.5" y2="1072" stroke="white" stroke-opacity="0.2"/>
<line x1="825.5" x2="825.5" y2="1072" stroke="white" stroke-opacity="0.2"/>
<line x1="1265.5" x2="1265.5" y2="1072" stroke="white" stroke-opacity="0.2"/>
<line x1="660.5" x2="660.5" y2="1072" stroke="white" stroke-opacity="0.2"/>
<line x1="1100.5" x2="1100.5" y2="1072" stroke="white" stroke-opacity="0.2"/>
<line x1="1540.5" x2="1540.5" y2="1072" stroke="white" stroke-opacity="0.2"/>
<line x1="1705.5" x2="1705.5" y2="1072" stroke="white" stroke-opacity="0.2"/>
<line x1="440.5" x2="440.5" y2="1072" stroke="white" stroke-opacity="0.2"/>
<line x1="880.5" x2="880.5" y2="1072" stroke="white" stroke-opacity="0.2"/>
<line x1="1320.5" x2="1320.5" y2="1072" stroke="white" stroke-opacity="0.2"/>
<line x1="715.5" x2="715.5" y2="1072" stroke="white" stroke-opacity="0.2"/>
<line x1="1155.5" x2="1155.5" y2="1072" stroke="white" stroke-opacity="0.2"/>
<line x1="1595.5" x2="1595.5" y2="1072" stroke="white" stroke-opacity="0.2"/>
<line x1="1760.5" x2="1760.5" y2="1072" stroke="white" stroke-opacity="0.2"/>
<line x1="1870.5" x2="1870.5" y2="1072" stroke="white" stroke-opacity="0.2"/>
<line x1="495.5" x2="495.5" y2="1072" stroke="white" stroke-opacity="0.2"/>
<line x1="935.5" x2="935.5" y2="1072" stroke="white" stroke-opacity="0.2"/>
<line x1="1375.5" x2="1375.5" y2="1072" stroke="white" stroke-opacity="0.2"/>
<line x1="770.5" x2="770.5" y2="1072" stroke="white" stroke-opacity="0.2"/>
<line x1="1210.5" x2="1210.5" y2="1072" stroke="white" stroke-opacity="0.2"/>
<line x1="1650.5" x2="1650.5" y2="1072" stroke="white" stroke-opacity="0.2"/>
<line x1="1815.5" x2="1815.5" y2="1072" stroke="white" stroke-opacity="0.2"/>
<line y1="56.8916" x2="1920" y2="56.8916" stroke="white" stroke-opacity="0.2"/>
<line y1="451.462" x2="1920" y2="451.462" stroke="white" stroke-opacity="0.2"/>
<line y1="789.664" x2="1920" y2="789.664" stroke="white" stroke-opacity="0.2"/>
<line x1="-2.47887e-07" y1="111.209" x2="1920" y2="111.208" stroke="white" stroke-opacity="0.2"/>
<line y1="169.626" x2="1920" y2="169.626" stroke="white" stroke-opacity="0.2"/>
<line y1="507.829" x2="1920" y2="507.829" stroke="white" stroke-opacity="0.2"/>
<line y1="846.031" x2="1920" y2="846.031" stroke="white" stroke-opacity="0.2"/>
<line y1="225.993" x2="1920" y2="225.993" stroke="white" stroke-opacity="0.2"/>
<line y1="564.196" x2="1920" y2="564.196" stroke="white" stroke-opacity="0.2"/>
<line y1="902.398" x2="1920" y2="902.398" stroke="white" stroke-opacity="0.2"/>
<line y1="282.36" x2="1920" y2="282.36" stroke="white" stroke-opacity="0.2"/>
<line y1="620.563" x2="1920" y2="620.563" stroke="white" stroke-opacity="0.2"/>
<line y1="958.766" x2="1920" y2="958.766" stroke="white" stroke-opacity="0.2"/>
<line y1="338.728" x2="1920" y2="338.728" stroke="white" stroke-opacity="0.2"/>
<line y1="676.931" x2="1920" y2="676.931" stroke="white" stroke-opacity="0.2"/>
<line y1="395.095" x2="1920" y2="395.095" stroke="white" stroke-opacity="0.2"/>
<line y1="733.297" x2="1920" y2="733.297" stroke="white" stroke-opacity="0.2"/>
</g>
<defs>
<clipPath id="clip0_1388_7782">
<rect width="1920" height="969" fill="white"/>
</clipPath>
</defs>
</svg>
