<svg width="1108" height="649" viewBox="0 0 1108 649" fill="none" xmlns="http://www.w3.org/2000/svg">
<path d="M1106.88 623.811C1106.88 623.15 1106.57 622.84 1105.95 622.84L1018.19 622.743C1017.47 622.743 1017.14 622.354 1017.24 621.617C1019.52 597.989 1021.88 574.38 1024.29 550.791C1025.52 538.89 1026.65 527.163 1027.71 515.592C1027.84 514.213 1027.87 512.951 1027.82 511.767C1027.78 510.777 1027 509.981 1026.06 509.981L989.382 510.039C988.724 510.039 988.268 509.359 988.487 508.699C993.952 491.556 1000.48 475.034 1008.08 459.114C1011.75 451.425 1015.48 443.62 1019.28 435.68C1024.58 424.633 1028.95 413.314 1031.44 401.238C1036.34 377.532 1032.31 353.535 1026.92 330.315C1026.52 328.548 1026.16 326.762 1025.86 324.976C1025.06 320.297 1023.83 315.637 1023.94 310.978C1024.09 304.998 1026.52 298.804 1029.46 293.524C1033.05 287.058 1035.97 281.195 1038.24 275.953C1044.45 261.489 1045.07 244.481 1044.3 229.027C1043.66 215.98 1043.04 204.001 1043.57 190.78C1044.01 179.946 1044.32 169.481 1044.51 159.386C1044.65 151.426 1044.45 144.261 1043.87 137.855C1043.65 135.486 1043.15 133.137 1042.33 130.846C1040.61 125.953 1036.04 128.729 1034.01 131.312C1030.19 136.204 1025.81 142.786 1020.87 151.057C1013.64 163.191 1006.4 175.636 999.142 188.43C986.33 211.029 973.39 236.424 967.377 261.004C965.403 269.061 963.21 278.924 960.816 290.572C959.153 298.63 956.576 308.609 953.066 320.549C949.904 331.344 948.57 343.459 949.521 354.933C949.959 360.369 950.508 365.145 951.166 369.281C952.244 376.115 953.286 382.891 954.254 389.608C955.607 398.947 955.881 409.605 954.858 418.284C954.072 424.788 952.756 432.962 950.873 442.805C950.782 443.31 950.617 443.659 950.343 443.912C950.142 444.106 949.813 444.009 949.722 443.737C946.578 434.262 943.526 424.613 940.583 414.789C936.983 402.771 934.186 391.938 933.602 380.27C932.98 367.708 932.267 359.34 931.481 355.205C930.293 349.011 929.124 342.585 927.917 335.945C927.077 331.266 926.656 327.014 926.693 323.151C926.748 313.832 927.918 304.279 925.797 295.116C924.938 291.446 924.098 287.835 923.915 284.01C923.44 273.798 923.22 263.508 922.453 253.121C920.369 225.727 917.445 198.701 913.643 172.102C911.779 158.978 909.951 145.62 906.99 133.758C905.254 126.769 902.659 120.265 899.186 114.265C898.583 113.217 897.085 113.392 896.701 114.557C895.97 116.809 895.33 119.371 894.782 122.187C889.445 149.309 885.186 174.879 881.988 198.895C880.343 211.321 878.607 224.212 876.797 237.628C874.385 255.47 870.09 271.915 866.105 288.922C864.534 295.582 864.04 302.396 864.57 309.386C865.356 319.365 870.473 329.169 874.915 337.964C879.319 346.662 880.946 355.185 881.312 365.223C881.714 376.387 882.171 387.434 882.682 398.364C883.34 412.712 885.57 426.399 889.335 439.446C890.066 441.99 891.729 446.96 894.325 454.338C900.594 472.16 904.011 490.119 908.252 508.893C908.343 509.262 908.197 509.592 907.831 509.903C907.685 510.039 907.484 510.097 907.283 510.097L874.567 510C873.8 510 873.197 510.699 873.252 511.515C873.288 512.213 873.434 512.912 873.69 513.65C886.082 549.277 896.993 584.922 908.233 621.694C908.38 622.18 908.032 622.684 907.557 622.684L898.912 622.704C898.455 622.704 898.035 622.413 897.852 621.966C889.573 601.173 879.521 582.961 867.312 563.43C863.492 557.334 860.037 551.14 857.223 544.462C854.39 537.763 851.667 530.405 849.053 522.426C844.831 509.573 840.39 497.225 835.766 485.363C832.421 476.801 829.369 469.734 826.609 464.123C820.249 451.173 813.815 438.165 807.309 425.04C802.648 415.643 798.573 406.79 795.1 398.461C789.928 386.075 784.664 373.494 779.327 360.68C773.131 345.847 765.93 331.713 757.742 318.316C746.337 299.659 730.528 284.127 709.29 280.05C694.011 277.118 682.807 283.874 673.742 296.242C673.248 296.921 672.316 297.038 671.695 296.494C654.844 281.894 642.872 264.285 636.951 242.093C636.457 240.268 636.128 238.463 635.909 236.696C635.562 233.706 635.342 231.959 635.251 231.493C634.374 226.833 632.875 222.115 635.489 217.961C636.019 217.087 637.883 215.01 641.081 211.709C664.384 187.537 672.006 154.008 664.841 120.245C664.147 117.003 665.335 114.634 665.59 111.547C665.627 111.159 665.956 110.887 666.321 110.965C674.034 112.343 681.564 111.295 688.948 107.839C689.442 107.606 690.008 107.703 690.429 108.053C696.496 113.217 703.186 115.333 710.533 114.401C715.267 113.799 716.967 109.625 713.256 105.975C713.128 105.859 713.019 105.859 712.909 105.995L712.763 106.169C714.225 107.49 714.755 109.082 714.353 110.926C714.298 111.217 714.134 111.47 713.914 111.644C708.523 116.246 697.337 111.508 692.092 107.742C691.416 107.237 691.452 106.169 692.183 105.742C704.685 98.4228 707.773 81.5318 708.98 67.4171C709.016 66.9706 709.418 66.6405 709.839 66.7182C713.622 67.4559 717.698 67.786 719.562 71.999C722.486 78.6389 725.081 85.0265 729.285 90.9674C730.619 92.8507 732.191 94.4427 734.037 95.7241C734.512 96.0542 734.75 96.656 734.658 97.2579C733.854 102.112 732.666 106.558 728.243 109.062C726.288 110.169 726.397 110.887 728.609 111.217C728.682 111.217 729.157 110.965 730.053 110.441C735.061 107.528 735.755 103.82 737.053 98.3839C737.108 98.1121 737.382 97.9762 737.619 98.1121C740.087 99.3741 742.609 100.034 745.186 100.054C745.807 100.054 746.356 99.743 746.63 99.2188C746.685 99.1023 746.739 98.9858 746.739 98.8499C746.813 98.0927 746.484 97.7044 745.771 97.6656C743.011 97.5685 740.452 96.9278 738.113 95.7241C737.619 95.4717 737.309 94.9669 737.254 94.4039C736.45 85.1041 732.739 77.707 726.105 72.2126C724.259 70.6788 720.165 68.5238 719.196 66.3881C717.643 62.9905 715.669 59.4376 713.293 55.7876C713.183 55.6128 713.22 55.3798 713.403 55.2633C713.658 55.0886 713.951 55.0498 714.243 55.1857C716.217 56.0594 718.173 56.836 720.147 57.5155C720.75 57.729 721.061 57.4961 721.061 56.8165C721.061 56.7001 721.042 56.603 721.024 56.4865C720.859 55.8846 720.457 55.3604 719.909 55.0886C717.204 53.6325 714.207 52.5064 710.88 51.7104C709.638 51.4192 708.797 50.7203 708.358 49.633C707.28 47.0314 706.22 44.5463 705.141 42.1971C702.053 35.363 697.739 29.558 692.238 24.7819C692.11 24.6654 692.073 24.4713 692.147 24.3159C692.22 24.1606 692.348 24.0247 692.494 23.9276C692.549 23.8888 692.622 23.8694 692.695 23.8694C694.797 23.8111 696.899 23.7917 698.982 23.8111C707.188 23.85 715.047 25.5973 722.541 29.0338C724.113 29.7521 727.549 30.8199 727.75 32.975C728.243 38.217 727.951 43.3037 726.891 48.2157C726.726 48.9923 726.927 49.7883 727.439 50.3125C727.658 50.5455 727.969 50.5261 728.371 50.3125C728.627 50.1766 728.81 49.9242 728.901 49.633C730.345 44.7404 730.766 39.5567 730.144 34.0816C730.089 33.6545 730.546 33.3439 730.893 33.5769C740.05 39.712 751.638 48.1963 762.458 40.7021C763.243 40.1391 764.029 39.4984 764.742 38.7801C766.095 37.421 766.478 36.2755 765.875 35.3436C765.528 34.8 764.797 34.7418 764.377 35.2271C753.776 47.5556 740.927 37.2463 731.021 30.7617C730.199 30.2181 729.541 29.4997 729.285 28.4901C726.215 16.3558 717.88 2.7071 704.959 2.02758C702.619 1.91109 700.554 1.91109 698.178 1.28981C688.235 -1.35062 676.045 3.15364 668.661 9.50233C667.875 10.1819 666.742 10.5702 665.755 10.2207C663.269 9.34701 660.418 8.9393 657.183 9.01696C656.744 9.01696 656.452 8.82281 656.288 8.39568L656.196 8.1627C656.105 7.92972 656.251 7.69674 656.47 7.67732C659.285 7.42493 661.953 7.6385 664.494 8.33743C664.731 8.39568 664.987 8.37626 665.207 8.24036C665.883 7.85206 666.047 7.3861 665.682 6.82307C665.609 6.70658 665.499 6.6095 665.371 6.55126C662.118 4.93982 657.695 4.43503 654.149 5.77466C652.961 6.22121 651.791 6.29886 650.658 5.98823C641.465 3.38662 630.919 7.73557 624.303 14.492C616.133 22.8404 611.729 32.975 611.071 44.9152C611.052 45.1482 610.888 45.3229 610.669 45.3229C610.321 45.3423 609.992 45.2841 609.682 45.1288C591.971 36.5668 573.768 33.9263 555.071 37.188C543.903 39.1489 533.979 43.0902 525.298 48.9923C516.781 54.7974 508.976 63.1458 502.58 71.8631C502.123 72.4844 501.519 72.8339 500.807 72.9504C487.976 74.6783 477.559 78.2506 470.449 89.2589C467.104 94.4427 464.655 100.442 463.083 107.257C462.316 110.615 461.914 113.528 460.36 116.75C459.465 118.614 458.551 120.575 457.655 122.633C454 130.982 451.989 139.932 451.587 149.503C451.679 152.066 451.825 154.163 452.008 155.794C453.543 169.481 459.885 179.635 471.07 186.217C471.436 186.431 471.6 186.761 471.527 187.188C470.102 198.041 473.94 207.438 482.53 213.223C482.658 213.301 482.694 213.476 482.621 213.612C473.446 228.949 467.616 245.918 478.308 262.168C482.621 268.711 488.817 274.264 494.373 279.952C499.893 285.602 497.919 292.087 494.556 298.397C492.619 302.027 490.334 305.308 487.684 308.182C487.41 308.473 487.373 308.939 487.611 309.288L487.794 309.56C488.287 310.279 488.835 310.337 489.42 309.716C493.057 305.949 496.091 301.192 498.559 295.465C501.556 288.476 500.533 282.457 495.433 277.409C487.574 269.604 480.008 261.469 477.686 249.801C475.292 237.764 481.817 225.94 488.945 216.524C489.146 216.252 489.42 216.097 489.749 216.077L496.201 215.65C496.621 215.631 497.005 215.922 497.115 216.369C499.107 225.397 502.104 233.59 506.162 240.909C509.269 246.52 513.637 252.131 517.676 257.451C519.906 260.382 521.752 263.566 523.433 266.906C524.804 269.624 526.285 271.643 527.856 272.983C532.06 276.555 538.786 278.011 543.995 278.438C546.883 278.671 549.789 278.225 552.731 277.079C558.561 274.827 563.715 271.973 568.157 268.498C568.431 268.284 568.815 268.401 568.943 268.75C573.841 281.778 580.823 294.222 586.945 306.434C588.755 310.046 590.418 314.006 591.953 318.355C592.045 318.627 591.953 318.938 591.697 319.074C577.953 327.092 563.825 335.246 549.277 343.517C544.762 346.08 536.757 350.351 525.243 356.331C520.034 359.03 517.219 364.291 514.441 370.834C511.956 376.678 509.543 382.425 507.185 388.074C506.509 389.686 505.613 391.045 504.499 392.171C496.822 399.82 488.707 406.421 480.172 411.974C474.598 415.605 470.632 419.371 467.525 424.885C464.856 429.622 462.115 434.515 459.318 439.543C456.449 444.708 452.355 448.591 447.055 451.212C442.833 453.289 438.775 455.347 434.846 457.347C424.812 462.492 427.827 472.16 429.874 481.072C429.966 481.46 429.673 481.81 429.308 481.771C424.245 481.111 420.316 482.625 415.911 484.994C411.031 487.615 406.096 489.867 401.125 491.789C400.887 491.886 400.631 491.75 400.558 491.498C392.48 462.453 384.511 433.331 376.652 404.15C375.154 398.558 371.261 397.588 365.905 397.607C283.897 397.918 199.989 397.957 114.179 397.704C108.97 397.704 103.816 399.859 103.176 405.878C103.012 407.373 103.359 409.644 104.218 412.692C115.787 454.105 127.631 496.546 139.693 539.977C140.552 543.103 141.393 546.151 142.161 549.141C142.27 549.568 142.124 549.723 141.722 549.568C137.537 547.995 133.954 548.286 130.994 550.403C128.947 554.13 127.686 558.013 127.192 562.052C126.406 568.478 129.257 574.089 134.978 576.419C135.928 576.807 136.897 577.215 137.866 577.622C138.414 577.855 138.834 578.321 139.017 578.923C141.393 587.058 143.349 595.853 152.067 598.571C152.615 598.746 152.981 599.289 152.962 599.911C152.743 605.075 156.161 608.065 160.328 609.676C160.949 609.909 161.242 610.647 161.004 611.288C159.67 614.899 160.109 618.297 162.32 621.5C163.051 621.384 163.618 621.597 164.02 622.121C164.221 622.393 164.166 622.587 163.892 622.723C163.234 623.053 162.613 622.898 162.046 622.257C160.456 622.646 159.231 622.84 158.372 622.84C112.881 622.976 67.372 622.976 21.8811 622.801C15.8314 622.782 9.27006 622.859 2.21521 623.073C1.53897 623.092 1.04549 623.461 0.771341 624.199C0.643403 624.529 0.789617 624.878 1.20998 625.208C1.39275 625.344 1.61207 625.441 1.84967 625.461C6.65647 625.713 12.2126 625.83 18.4998 625.83C67.0065 625.83 115.477 625.791 163.947 625.694C165.683 625.694 167.511 625.655 169.43 625.577C170.143 625.558 170.801 626.043 171.002 626.762C171.605 628.82 172.153 630.916 172.665 633.071C173.341 635.945 174.986 637.673 177.855 637.653C200.665 637.498 229.963 637.479 265.767 637.634C271.305 637.653 277.025 637.634 282.91 637.595C307.968 637.401 332.934 637.828 357.882 637.615C382.702 637.401 406.9 637.44 430.514 637.692C433.457 637.731 435.595 636.255 437.733 634.333C438.446 633.712 439.214 633.382 440.073 633.382C495.013 633.363 549.752 633.324 604.272 633.266C607.58 633.266 610.705 634.256 613.867 634.605C618.838 635.149 623.974 635.634 629.329 636.12C633.898 636.527 638.888 637.848 643.549 639.071C645.029 639.459 646.528 640.274 648.026 641.478C650.329 643.342 653.254 645.419 656.013 646.351C664.329 649.147 673.194 648.545 681.455 645.284C686.828 643.148 697.392 638.857 702.345 642.954C703.679 644.06 704.977 645.148 706.238 646.215C708.687 648.293 711.648 648.118 714.572 648.196C719.873 648.332 724.88 647.691 729.578 646.235C738.972 643.323 748.786 639.265 758.4 638.877C764.102 638.644 769.951 639.847 775.836 640.119C778.888 640.255 781.941 640.119 784.993 639.653C800.583 637.323 814.93 632.916 828.053 626.393C829.095 625.869 830.173 625.616 831.306 625.616C923.038 625.752 1014.7 625.771 1106.32 625.655C1106.74 625.655 1107.09 625.286 1107.09 624.84L1106.88 623.811ZM724.04 73.4746C729.486 77.6876 733.05 83.7839 734.732 91.7246C735.006 93.0254 734.659 93.2584 733.69 92.4236C731.442 90.4626 729.687 88.2105 728.426 85.6866C727.037 82.8908 725.557 79.9203 724.003 76.7169C723.601 75.9014 723.254 75.1442 722.961 74.4065C722.267 72.6786 722.614 72.3679 724.04 73.4746ZM709.583 55.0498C711.081 57.2048 712.452 59.5152 713.677 61.9809C714.024 62.6799 714.481 63.3788 715.066 64.0389C715.797 64.8932 715.632 65.2232 714.554 65.0097L710.003 64.0971C709.473 63.9807 709.089 63.5341 709.053 62.9905L708.395 55.5546C708.34 54.8362 709.199 54.4868 709.583 55.0498ZM698.16 4.86216C703.862 3.96907 709.4 9.34701 713.604 13.9289C714.042 14.4143 714.609 14.6473 715.303 14.6473C715.669 14.6473 715.888 14.3172 715.961 13.6377C715.998 13.3659 715.925 13.0747 715.76 12.8611C713.768 10.1819 711.228 7.87148 708.121 5.91057C708.029 5.85232 708.011 5.77466 708.047 5.697L708.139 5.48344C708.23 5.23104 708.486 5.09514 708.724 5.19221C718.027 8.12387 723.692 17.9867 726.452 27.4417C726.525 27.7135 726.269 27.9465 726.05 27.83C715.23 22.5492 703.862 20.3165 691.927 21.1513C689.241 21.3454 687.541 21.2872 685.622 19.4428C683.684 17.5984 681.199 16.0452 678.731 15.2492C678.165 15.055 678.019 14.259 678.512 13.8707C684.799 8.91988 691.361 5.92998 698.16 4.86216ZM672.024 9.89063C678.055 6.02706 683.831 3.28955 690.904 3.01774C691.178 3.01774 691.397 3.13423 691.507 3.38662C691.562 3.52253 691.507 3.67785 691.379 3.73609C686.006 5.58051 681.053 8.37626 676.483 12.1428C675.57 12.9194 674.308 13.0747 673.23 12.5699L672.17 12.0651C670.799 11.4438 670.744 10.7255 672.024 9.89063ZM479.88 178.645L484.997 179.538C485.454 179.616 485.82 179.966 485.966 180.431L487.428 185.421C487.702 186.334 486.971 187.227 486.076 187.091L476.645 185.479C475.749 185.324 475.311 184.217 475.841 183.441L478.673 179.17C478.966 178.781 479.423 178.568 479.88 178.645ZM471.838 183.305C461.804 177.17 456.211 168.025 455.096 155.852C454.713 154.571 454.511 153.386 454.475 152.299C454.256 143.116 455.791 134.205 459.081 125.565C459.812 123.662 460.159 123.759 460.141 125.798C460.104 130.127 460.415 134.457 461.109 138.767C463.303 152.26 467.488 163.638 476.791 173.5C477.376 174.122 477.376 174.743 476.791 175.345L474.963 177.228L472.788 182.955C472.624 183.48 472.295 183.596 471.838 183.305ZM484.303 210.35C484.047 210.699 483.572 210.777 483.243 210.505C476.17 205.244 473.026 197.769 473.83 188.042C473.867 187.576 474.086 187.421 474.506 187.557C478.052 188.819 481.854 189.712 485.911 190.255C486.624 190.353 487.209 190.916 487.355 191.673C488.561 198.313 488.415 204.817 484.303 210.35ZM616.572 44.2357C616.444 45.42 615.859 45.8277 614.799 45.4394C614.708 45.42 614.598 45.3811 614.507 45.3423C613.465 45.0511 613.008 44.3327 613.154 43.2067C615.603 24.1218 627.995 6.78424 647.679 7.3861C648.008 7.3861 648.264 7.54142 648.465 7.81323C648.849 8.37626 648.721 8.74515 648.099 8.9393C644.682 10.0265 641.666 11.1332 639.052 12.2787C626.496 17.7731 618.016 29.6356 616.572 44.2357Z" fill="#252328"/>
<mask id="mask0_1212_4818" style="mask-type:luminance" maskUnits="userSpaceOnUse" x="454" y="124" width="24" height="60">
<path d="M455.101 155.852C456.216 168.025 461.808 177.189 471.842 183.305C472.299 183.577 472.628 183.46 472.829 182.956L475.004 177.228L476.832 175.345C477.417 174.724 477.417 174.102 476.832 173.5C467.511 163.638 463.325 152.261 461.15 138.767C460.456 134.457 460.127 130.147 460.182 125.798C460.2 123.759 459.853 123.682 459.122 125.565C455.832 134.224 454.278 143.136 454.516 152.299C454.516 153.387 454.717 154.571 455.101 155.852Z" fill="white"/>
</mask>
<g mask="url(#mask0_1212_4818)">
<path d="M455.098 155.852C456.213 168.025 461.805 177.189 471.839 183.305C472.296 183.577 472.625 183.46 472.826 182.955L475.001 177.228" stroke="#91827A" stroke-width="0.388299"/>
</g>
<path d="M638.322 57.5349C638.413 57.4184 638.523 57.3602 638.651 57.3214C639.035 57.2243 639.199 56.9719 639.163 56.5642L638.998 54.7974C638.98 54.5256 639.09 54.4091 639.327 54.3897C639.419 54.3897 639.51 54.3897 639.601 54.3897C639.638 54.3897 639.674 54.4091 639.693 54.5062L640.57 60.9325C640.607 61.2043 640.515 61.2626 640.314 61.0684C640.168 60.9325 640.058 60.7384 640.04 60.5248C640.003 60.1948 639.839 59.923 639.565 59.7288L635.215 56.6612C634.795 56.37 634.539 55.8652 634.52 55.341C633.972 40.9934 636.092 28.8008 644.5 17.0936C647.186 13.3465 648.849 10.5896 653.857 10.9779C656.909 11.2109 660.017 11.5797 663.16 12.0845C663.398 12.1234 663.599 12.2204 663.8 12.3952C664.111 12.667 664.111 13.1524 663.818 13.4242C657.988 19.0157 653.053 25.0537 649.032 31.5383C648.137 32.9944 647.351 34.6059 646.693 36.4115C645.139 40.6439 642.434 44.6046 639.967 48.274C638.651 50.2349 637.81 52.6424 637.225 54.9916C636.988 55.9623 637.171 56.7971 637.737 57.5155C637.956 57.7873 638.139 57.7873 638.322 57.5349Z" fill="#552E35"/>
<path d="M635.837 17.1327C638.249 15.4241 640.808 13.9292 643.458 12.6478C643.933 12.4148 644.244 12.5701 644.354 13.1138C644.372 13.1914 644.281 13.3856 644.061 13.6768C640.497 18.8606 637.646 24.4521 635.508 30.4513C633.863 35.0915 632.638 41.712 631.852 50.274C631.743 51.4777 632.017 52.3902 632.254 53.5357C632.382 54.1181 632.2 54.254 631.724 53.924C627.777 51.1282 623.829 48.8373 619.899 47.0511C618.766 46.5269 618.273 45.6532 618.437 44.4107C619.442 36.6447 622.421 29.83 627.374 23.9667C629.897 20.9962 632.766 19.3265 635.837 17.1327Z" fill="#552E35"/>
<path d="M649.489 37.168C648.246 38.6047 648.008 38.4299 648.758 36.6632C649.306 35.3624 650.001 34.081 650.841 32.8579C655.703 25.6743 660.108 20.0828 665.755 14.8796C667.016 13.7147 668.478 13.3264 670.123 13.6759C670.617 13.7924 671.092 13.9089 671.567 14.0642C673.322 14.6272 673.468 15.5009 672.024 16.7046C670.562 17.9278 669.264 19.3062 668.113 20.8206C665.536 24.257 662.648 27.6158 659.413 30.9358C659.084 31.2852 658.682 31.4988 658.207 31.5765C655.118 32.1007 652.212 33.9645 649.489 37.168Z" fill="#552E35"/>
<path d="M674.621 17.6758C676.668 16.2585 682.115 19.2096 683.814 20.3162C685.13 21.1899 685.039 21.7335 683.504 21.9859C678.167 22.8208 672.848 24.374 667.548 26.6067C667.055 26.8202 666.506 26.4902 666.433 25.9271C666.397 25.7136 666.543 25.4224 666.835 25.0341C669.138 22.1412 671.733 19.6755 674.621 17.6758Z" fill="#552E35"/>
<path d="M688.435 24.7428C695.252 30.7226 701.484 38.3721 704.427 47.5553C704.536 47.9048 704.207 48.2543 703.878 48.099C698.779 45.7109 693.479 44.8178 687.959 45.4585C681.709 46.1769 676.847 47.4583 673.356 49.3027C670.066 51.0306 666.904 52.9915 663.889 55.166C658.753 58.8548 654.622 64.4463 651.004 69.9602C650.766 70.3097 650.327 70.4067 649.98 70.1543C648.098 68.8147 645.74 66.4461 646.635 63.6503C650.291 52.1179 655.152 42.0609 661.239 33.4601C662.463 31.7322 664.163 30.4702 666.356 29.6742C672.899 27.2667 679.716 25.4806 686.826 24.2768C687.393 24.1798 687.978 24.3545 688.435 24.7428Z" fill="#552E35"/>
<path d="M657.13 35.2658C651.848 44.2744 647.553 53.2829 644.263 62.3108C643.642 63.9999 643.276 63.9417 643.13 62.1361C642.856 58.4861 642.545 53.6712 643.55 50.2542C645.305 44.2549 648.247 40.1972 652.926 36.9937C654.187 36.1395 655.467 35.2076 656.728 34.2174C657.039 33.9844 657.441 34.2757 657.367 34.664C657.313 34.8775 657.24 35.0911 657.13 35.2658Z" fill="#552E35"/>
<path d="M592.008 57.787C592.355 58.253 592.922 58.4277 593.726 58.2918C602.024 56.8551 610.12 56.4862 617.961 57.1852C621.306 57.4764 624.193 58.1947 626.606 59.3014C633.039 62.2719 636.676 66.8926 642.123 73.2607C645.139 76.7748 648.191 81.5315 651.261 87.5307C653.747 92.3844 655.885 97.8789 657.676 104.033C659.888 111.663 661.496 118.09 662.52 123.293C663.123 126.361 663.635 129.467 664.055 132.632C665.481 143.096 664.713 154.435 662.611 164.589C658.737 183.285 650.439 198.662 637.682 210.699C633.387 214.757 630.7 218.679 631.34 224.911C631.394 225.435 631.193 225.746 630.718 225.882C630.426 225.959 630.206 225.862 630.06 225.571C625.875 217.203 623.206 207.263 625.308 198.429C625.875 196.06 626.789 193.633 628.05 191.129C633.898 179.519 638.906 168.957 634.282 155.328C631.102 145.97 622.932 140.961 613.556 143.232C611.783 143.659 609.937 144.98 608 147.173C607.726 147.484 607.543 147.426 607.434 147.018C604.253 134.398 598.661 123.079 590.71 113.061C587.896 109.508 584.661 106.014 581.024 102.538C577.478 99.1408 573.969 96.2092 570.514 93.7435C562.253 87.8413 553.937 82.6187 545.548 78.1145C534.619 72.2317 518.316 63.2426 506.673 71.3775C506.472 71.5134 506.18 71.4357 506.107 71.1833C506.034 70.9892 506.07 70.8144 506.217 70.6591C508.318 68.3682 510.384 65.9995 512.394 63.5921C513.107 62.7184 514.167 62.1554 514.916 61.3205C519.778 55.9426 526.083 50.5452 532.334 47.5165C544.232 41.7697 555.948 38.7021 567.517 38.3332C574.426 38.1003 582.504 39.0516 591.752 41.1484C595.371 41.9832 598.935 43.3811 602.353 44.9343C605.313 46.274 605.185 46.8564 601.969 46.6428C593.762 46.0992 584.021 49.3803 576.198 52.4479C574.462 53.1274 572.781 54.0205 571.191 55.1077C570.24 55.7484 570.313 56.2144 571.41 56.5056C571.593 56.5445 571.94 56.4668 572.433 56.2338C577.825 53.7293 583.144 51.7684 588.389 50.3317C592.52 49.2056 597.564 48.5843 603.522 48.4873C610.248 48.3708 615.987 50.3899 620.904 54.6418C621.58 55.2242 621.488 55.4378 620.629 55.2825C618.052 54.8165 615.475 54.3312 612.88 54.3117C605.917 54.2729 599.081 55.0495 592.41 56.6804C591.898 56.7386 591.697 57.3599 592.008 57.787Z" fill="#552E35"/>
<path d="M657.312 64.5824C658.189 63.1652 659.231 61.8644 660.437 60.7383C664.897 56.5447 670.124 53.0306 676.155 50.1571C679.043 48.7787 682.406 48.2545 685.531 47.4779C685.732 47.4391 685.824 47.5167 685.842 47.7303L685.86 48.0797C685.86 48.3515 685.714 48.5651 685.476 48.6428C676.155 51.3026 666.414 56.467 659.432 63.5729C658.811 64.1941 658.445 64.8348 657.458 64.8348C657.312 64.8348 657.239 64.6989 657.312 64.5824Z" fill="#552E35"/>
<path d="M618.217 49.7686C618.089 49.691 618.089 49.4774 618.217 49.3803L618.436 49.225C618.711 49.0115 619.094 48.992 619.387 49.1668C624.431 52.0984 627.575 54.0593 628.854 55.0495C642.123 65.3977 653.912 76.2506 660.912 91.2972C663.69 97.277 664.585 103.587 663.544 110.246C663.452 110.79 663.251 111.275 662.94 111.741C662.794 111.935 662.502 111.877 662.429 111.644C660.455 104.15 657.859 96.6946 654.661 89.2392C651.225 81.2791 646.82 74.4062 641.429 68.6594C638.449 65.4753 635.123 62.2136 631.413 58.8548C629.585 57.1657 625.181 54.1564 618.217 49.7686Z" fill="#552E35"/>
<path d="M679.882 59.3012C673.12 62.7571 666.229 66.9119 660.234 71.8239C658.516 73.2412 656.853 74.5031 655.245 75.5904C655.007 75.7457 654.715 75.7068 654.514 75.4933C653.399 74.2507 653.381 72.9305 654.477 71.5326C659.796 64.7374 666.211 59.3789 673.723 55.4571C682.294 50.9916 694.686 46.6621 703.697 51.0887C705.908 52.1759 705.798 52.7584 703.368 52.8943C695.326 53.2632 687.503 55.3988 679.882 59.3012Z" fill="#552E35"/>
<path d="M704.592 54.2147C705.487 54.0982 705.981 54.5059 706.09 55.4573C706.419 58.4277 706.529 61.2623 706.383 63.9416C706.346 64.5046 705.981 64.9706 705.469 65.0871C703.203 65.6113 700.881 66.2908 698.505 67.1451C685.09 71.9794 672.388 77.7068 660.416 84.3079C660.27 84.3855 660.142 84.3661 660.033 84.2108L656.012 78.4446C655.975 78.3863 655.975 78.3086 656.03 78.2698C658.242 76.4254 660.435 74.6198 662.573 72.8336C674.983 62.5825 688.983 56.3698 704.592 54.2147Z" fill="#552E35"/>
<path d="M559.093 71.5334C566.952 65.9613 576.529 61.5347 585.759 58.8554C585.996 58.7972 586.234 58.9525 586.27 59.2243L586.307 59.5155C586.362 59.9621 586.106 60.3892 585.704 60.5251C576.949 63.7674 568.542 67.7475 560.482 72.4653C560.061 72.7177 559.659 72.6789 559.294 72.3294L559.056 72.1158C558.892 71.9411 558.91 71.6693 559.093 71.5334Z" fill="#252328"/>
<path d="M690.54 102.81C690.119 103.063 689.699 103.315 689.279 103.606C683.503 107.703 676.339 109.276 667.785 108.344C666.871 108.247 666.177 107.373 666.25 106.383C666.816 98.811 664.477 92.8894 661.297 86.1136C661.132 85.7447 661.205 85.4923 661.553 85.3176C673.926 79.1825 686.482 73.7269 699.185 68.9702C701.14 68.2324 703.132 67.6306 705.125 67.184C705.764 67.0481 706.331 67.5917 706.276 68.2907C705.435 76.5614 704.065 84.1333 700.683 91.5692C698.454 96.52 695.072 100.267 690.54 102.81Z" fill="#552E35"/>
<path d="M516.727 161.153C513.584 157.114 511.08 153.115 509.252 149.115C505.706 141.408 502.617 133.913 500.717 125.584C497.847 113.003 499.255 98.2093 503.44 86.2108C504.463 83.2792 505.871 80.7747 507.662 78.7361C508.594 77.6683 508.393 77.2606 507.04 77.5129C504.226 78.0372 502.307 82.2696 501.265 84.9295C498.505 91.9383 495.928 99.2189 493.497 106.752C492.803 108.926 492.547 111.217 492.145 113.489C491.999 114.363 491.889 115.294 491.871 116.265C491.597 123.895 491.816 130.069 492.529 134.787C493.717 142.534 496.275 150.086 500.187 157.464C500.26 157.6 500.296 157.736 500.315 157.891C500.479 158.92 500.369 159.444 499.986 159.463C499.218 159.483 498.487 159.095 498.085 158.415C491.14 146.747 487.082 135.039 485.912 123.293C485.437 118.537 485.602 112.712 486.406 105.839C486.443 105.548 486.406 105.237 486.296 104.966C485.894 103.917 485.492 103.49 485.053 103.645C484.103 103.995 483.5 104.752 483.226 105.917C480.795 116.401 479.369 127.176 478.949 138.282C478.602 147.484 480.594 157.153 482.915 165.87C483.061 166.395 483.153 167.21 483.171 168.317C483.171 168.511 483.116 168.705 482.988 168.86L480.905 171.229C480.704 171.462 480.466 171.578 480.174 171.598C476.555 171.792 470.98 161.036 469.518 157.619C468.074 154.241 466.429 150.707 465.534 147.135C463.688 139.816 462.774 132.593 462.719 125.468C462.683 118.653 464.748 112.382 468.915 106.655C475.677 97.3939 483.445 89.8414 492.236 83.9975C496.02 81.493 500.479 79.4156 503.842 76.2898C505.176 75.0473 506.931 73.8824 509.087 72.7951C513.419 70.6206 517.403 69.844 521.077 70.4459C524.97 71.0866 528.625 72.1544 532.025 73.6882C543.283 78.7361 554.871 85.6672 565.27 92.7925C574.171 98.9082 582.615 106.752 589.542 115.139C597.31 124.536 602.519 135.447 605.169 147.873C605.662 150.222 605.096 152.241 603.469 153.93C603.049 154.357 602.646 154.357 602.263 153.911C599.85 151.193 597.291 150.086 594.623 150.571C594.239 150.63 594.038 150.474 594.002 150.067L593.801 147.62C593.782 147.251 593.581 147.018 593.234 146.941C591.626 146.552 591.169 148.145 591.059 149.445C591.022 149.872 590.693 150.222 590.291 150.261C588.994 150.377 587.733 150.338 586.49 150.164C582.999 149.659 579.855 149.096 577.059 148.436C566.605 146.009 557.43 141.446 549.534 134.768C539.171 125.992 529.576 113.586 524.659 100.17C524.385 99.4324 523.618 99.0053 522.905 99.2189L522.539 99.3353C522.027 99.4712 521.753 100.034 521.881 100.578C523.362 106.208 524.86 111.78 526.359 117.294C527.035 119.799 529.046 123.565 532.372 128.555C532.646 128.963 532.628 129.526 532.336 129.914L532.153 130.166C532.007 130.38 531.714 130.38 531.55 130.186C526.652 124.497 522.631 118.886 519.505 113.392C517.422 109.742 515.539 105.432 513.803 100.461C513.383 99.2383 513.108 97.8986 512.98 96.4231C512.962 96.229 512.907 96.0348 512.834 95.8601C512.231 94.5981 511.628 94.0739 511.025 94.2875C510.33 94.5204 509.983 95.0058 509.946 95.7824C509.508 106.519 509.745 116.906 510.659 126.943C511.738 138.728 514.607 150.397 519.231 161.949C519.67 163.055 519.341 163.482 518.244 163.23C517.988 163.172 517.714 162.861 517.403 162.317C517.239 161.89 516.983 161.521 516.727 161.153Z" fill="#552E35"/>
<path d="M646.592 11C623.792 17.8 619.258 37.6667 620.092 46L633.592 54C631.992 38.4 641.758 18.3333 646.592 11Z" fill="#484992"/>
<path d="M479.256 83.0466C482.016 80.8527 484.904 79.2413 487.956 78.2123C491.319 77.0863 494.627 76.2126 497.844 75.5913C498.922 75.3777 499.068 75.6884 498.301 76.5038C497.954 76.8727 497.588 77.2027 497.186 77.4746C493.512 80.0567 489.747 82.6972 485.909 85.3958C478.397 90.6961 472.275 97.6855 466.938 105.354C466.298 106.267 466.042 106.17 466.188 105.044C466.408 103.355 466.883 101.588 467.632 99.8017C469.698 94.8121 472.147 90.599 474.98 87.1238C476.04 85.823 477.465 84.4639 479.256 83.0466Z" fill="#552E35"/>
<path d="M502.709 161.23C502.928 159.599 502.709 158.046 502.051 156.57C494.576 139.873 491.158 121.118 497.226 103.393C497.263 103.276 497.336 103.257 497.427 103.276L497.628 103.334C497.665 103.334 497.683 103.354 497.665 103.393C496.495 110.343 496.623 117.274 498.067 124.225C500.388 135.544 504.372 146.047 509.983 155.696C512.743 160.414 516.124 164.006 520.127 166.433C520.438 166.627 520.547 167.035 520.383 167.384C518.043 172.005 516.855 176.975 516.837 182.276C516.837 182.722 516.636 182.858 516.252 182.683C512.67 180.994 509.234 181.402 505.487 183.188C504.902 183.46 504.427 183.324 504.025 182.819L499.566 176.995C499.401 176.781 499.328 176.529 499.328 176.257C499.511 172.879 491.122 171.209 488.435 170.957C487.466 170.86 486.936 170.374 486.845 169.481C486.772 168.743 487.229 168.064 487.887 167.908C492.054 166.86 496.038 167.52 499.821 169.889C500.242 170.161 500.808 169.908 500.936 169.403C501.028 169.054 501.009 168.685 500.9 168.316C500.644 167.481 500.096 166.802 499.346 166.452C495.398 164.511 491.049 164.239 486.333 165.656C485.821 165.812 485.511 165.617 485.364 165.093C481.325 150.086 480.558 135.408 483.098 121.021C483.299 119.856 483.445 119.856 483.519 121.041C484.432 134.476 488.27 146.591 495.033 157.405C496.458 159.696 499.291 163.055 502.307 161.832C502.545 161.696 502.673 161.502 502.709 161.23Z" fill="#FEBEA2"/>
<path d="M548.747 161.056C549.13 160.842 549.185 160.279 548.856 159.988C543.391 155.251 533.266 154.921 527.673 159.522C526.485 160.493 525.334 161.541 524.256 162.687C524.091 162.861 523.799 162.822 523.689 162.589C521.88 159.25 520.015 155.736 518.791 152.086C513.582 136.496 512.266 120.284 512.102 103.762C512.102 103.044 512.23 103.005 512.485 103.685C517.128 115.528 523.908 125.876 532.827 134.71C540.888 142.709 549.752 149.64 559.42 155.561C561.979 157.114 564.611 158.338 567.298 159.192C567.499 159.25 567.718 159.27 567.937 159.211C568.997 158.959 569.472 158.493 569.308 157.794C569.18 157.212 568.851 156.784 568.339 156.532C563.021 153.93 557.83 150.708 552.786 146.863C541.253 138.068 533.321 126.148 527.326 112.46C527.29 112.363 527.308 112.285 527.399 112.227C527.436 112.208 527.491 112.208 527.509 112.247C533.869 121.954 541.235 131.467 550.355 138.496C561.961 147.465 575.248 151.523 589.614 153.134C590.125 153.193 590.326 153.853 589.961 154.222C589.358 154.823 588.7 155.328 587.969 155.755C577.295 161.91 568.047 166.938 556.88 169.171C555.82 169.385 554.796 169.424 553.809 169.268C553.553 169.229 553.298 169.074 553.151 168.841C549.459 163.56 545.914 161.017 540.211 159.813C539.681 159.697 539.151 159.522 538.621 159.231C537.817 158.804 537.854 158.648 538.749 158.765C541.29 159.114 543.958 159.891 546.736 161.114C547.449 161.425 548.107 161.405 548.747 161.056Z" fill="#FEBEA2"/>
<path d="M898.418 347.012C897.815 346.934 897.304 347.439 897.304 348.08C897.431 372.038 899.606 395.51 905.309 418.42C912.4 446.882 921.356 478.315 928.813 509.573C928.886 509.845 928.776 510 928.502 510L911.98 509.961C911.614 509.961 911.304 509.69 911.23 509.321C908.8 498.254 906.332 487.304 903.828 476.49C900.74 463.094 896.189 451.115 892.113 438.417C887.324 423.487 885.68 407.412 885.131 390.928C884.802 381.279 884.382 371.475 883.888 361.495C883.45 352.72 881.439 344.721 877.839 337.479C873.105 327.927 867.494 317.909 867.092 306.803C866.873 301.018 867.421 295.349 868.719 289.796C870.583 281.777 872.484 273.72 874.439 265.644C880.251 241.433 881.805 216.543 885.515 191.925C888.732 170.685 892.314 149.756 896.262 129.157C896.883 125.953 897.267 122.556 897.76 119.294C897.925 118.148 898.272 118.09 898.766 119.119C903.097 128.011 905.528 137.99 907.082 147.64C912.528 181.169 916.659 215.456 919.473 250.5C920.241 259.897 920.698 269.468 920.881 279.215C920.954 282.709 920.99 287.194 921.868 290.553C923.549 296.882 924.353 301.891 924.317 305.6C924.207 315.094 923.092 325.286 924.92 334.567C926.291 341.537 927.552 348.293 928.703 354.894C929.617 360.117 930.311 368.135 930.75 378.93C931.097 387.239 932.377 395.452 934.606 403.606C938.426 417.566 942.831 431.7 947.766 445.989C948.515 448.164 949.557 450.454 949.228 452.804C948.296 459.541 947.784 466.278 947.729 473.015C947.674 478.606 948.04 483.576 949.648 489.149C951.494 495.594 952.609 502.39 952.938 509.534C952.956 509.864 952.81 510.039 952.481 510.039L932.267 509.981C931.975 509.981 931.719 509.767 931.646 509.476C928.392 496.449 925.267 483.343 921.813 470.432C918.066 456.434 914.319 442.32 910.591 428.127C907.21 415.255 904.633 402.966 902.841 391.297C901.306 381.163 900.264 366.796 899.734 348.196C899.716 347.614 899.314 347.128 898.766 347.07L898.418 347.012Z" fill="#648B6F"/>
<mask id="mask1_1212_4818" style="mask-type:luminance" maskUnits="userSpaceOnUse" x="895" y="275" width="6" height="68">
<path d="M900.714 308.842L900.622 295.718C900.184 290.709 899.471 285.195 898.502 279.157C898.374 278.438 898.228 277.739 898.045 277.021C897.753 275.895 897.168 275.468 896.309 275.662C895.815 275.778 895.486 276.283 895.578 276.827C897.643 288.845 898.411 300.144 897.881 310.725C897.259 322.937 896.967 333.13 896.967 341.304C896.967 341.731 897.186 342.139 897.533 342.352C897.954 342.624 898.338 342.702 898.685 342.585C899.215 342.41 899.507 342.022 899.526 341.401L900.714 308.842Z" fill="white"/>
</mask>
<g mask="url(#mask1_1212_4818)">
<path d="M900.627 295.718L900.718 308.842" stroke="#3D292F" stroke-width="0.388299"/>
</g>
<path d="M976.259 459.89C975.93 459.832 975.601 459.89 975.29 460.104C975.053 460.259 974.888 460.531 974.87 460.842C973.426 476.937 972.585 493.109 972.329 509.379C972.329 509.69 972.183 509.865 971.873 509.865L955.954 510.059C955.716 510.059 955.533 509.865 955.515 509.612C955.277 502.04 954.071 494.566 951.859 487.227C950.818 483.79 950.324 479.383 950.379 474.005C950.489 460.279 952.627 447.776 955.021 434.845C957.251 422.73 958.823 410.576 957.763 397.782C957.105 389.88 955.862 380.697 954.016 370.271C951.677 357.03 950.818 341.925 953.852 328.975C955.021 323.947 956.977 316.608 959.7 306.939C963.465 293.621 966.298 275.973 970.045 261.528C976.35 237.182 988.029 214.291 1000.26 192.508C1008.76 177.364 1017.66 162.104 1026.67 147.038C1029.12 142.961 1031.99 138.806 1035.27 134.554C1035.38 134.418 1035.6 134.457 1035.66 134.632C1036.01 135.913 1034.76 137.971 1034.2 139.097C1034.11 139.291 1034.07 139.505 1034.07 139.719C1034.12 140.573 1034.4 141.039 1034.93 141.097C1035.46 141.155 1035.86 140.922 1036.1 140.398C1037.19 138.029 1038.07 135.7 1038.77 133.37C1039.13 132.108 1039.57 132.089 1040.1 133.253C1040.54 134.205 1040.81 135.331 1040.96 136.612C1042.86 154.26 1041.29 173.947 1040.68 192.585C1040.37 202.293 1040.68 215.67 1041.65 232.697C1041.96 238.172 1041.82 244.307 1041.23 251.122C1040.25 262.382 1037.43 272.4 1032.73 281.195C1027.47 291.097 1021.15 300.804 1021.31 312.473C1021.4 318.22 1023.12 325.461 1024.47 331.732C1027.25 344.566 1029.13 355.166 1030.14 363.573C1032.28 381.415 1030.5 398.578 1024.82 415.061C1022.59 421.507 1019.96 427.875 1016.91 434.127C1011.99 444.203 1007.11 454.435 1002.29 464.802C996.82 476.529 991.136 491.362 985.233 509.301C985.105 509.69 984.849 509.884 984.447 509.884L975.565 510.039C975.272 510.039 975.034 509.787 975.016 509.476C974.98 506.816 975.016 504.118 975.108 501.38C975.455 490.702 976.204 477.403 977.374 461.502C977.465 460.609 977.081 460.065 976.259 459.89Z" fill="#648B6F"/>
<path d="M603.813 161.21C604.873 158.978 605.677 156.59 606.225 154.046C606.627 152.182 607.395 150.668 608.51 149.484C613.701 143.989 621.889 143.62 627.262 148.94C635.011 156.59 634.92 168.782 630.917 178.548C629.108 182.955 627.097 187.168 624.886 191.187C624.703 191.498 624.484 191.556 624.21 191.323C619.385 187.188 613.372 189.614 610.849 195.167C608.565 200.215 608.345 205.496 610.191 211.049C610.283 211.32 610.301 211.612 610.21 211.883C609.607 214.116 609.113 216.349 608.711 218.582C607.541 225.008 604.763 230.696 600.395 235.667C594.62 242.229 588.058 248.616 580.766 254.771C580.638 254.887 580.437 254.829 580.364 254.654C579.285 251.917 578.262 249.141 577.348 246.287C576.014 242.19 576.471 238.21 578.737 234.346C584.092 225.183 589.52 215.805 595.04 206.175C596.685 203.283 598.586 200.739 600.706 198.506C605.074 193.944 607.34 189.847 607.797 183.227C608.345 175.325 607.87 168.161 603.831 161.463C603.776 161.385 603.758 161.307 603.813 161.21Z" fill="#FEBEA2"/>
<path d="M616.901 156.241C618.309 157.464 619.935 158.26 621.16 159.755C623.59 162.745 622.731 169.384 622.092 172.801C621.964 173.423 621.434 173.83 620.867 173.772L620.41 173.714C619.734 173.656 619.478 173.267 619.606 172.568C620.154 169.753 621.233 163.036 618.619 160.997C617.559 160.162 616.426 159.425 615.22 158.745C614.434 158.299 613.904 157.464 613.849 156.512C613.758 155.114 614.233 153.891 615.275 152.823C617.486 150.533 621.452 151.057 623.938 152.28C624.468 152.532 624.925 152.882 625.327 153.309C626.113 154.163 626.35 154.784 626.021 155.173C625.619 155.677 625.144 155.755 624.614 155.445C622.64 154.26 619.295 152.882 617.102 154.124C616.335 154.551 616.225 155.658 616.901 156.241Z" fill="#252328"/>
<path d="M599.422 156.43C599.733 156.14 599.29 155.062 598.433 154.021C597.575 152.98 596.627 152.371 596.316 152.661C596.004 152.95 596.447 154.029 597.305 155.069C598.163 156.11 599.11 156.719 599.422 156.43Z" fill="#FF8F70"/>
<path d="M1033.25 155.91C1026.45 178.471 1020.75 200.798 1015.87 223.979C1015.79 224.29 1015.63 224.562 1015.39 224.756C1014.82 225.202 1014.33 225.319 1013.91 225.086C1013.31 224.775 1013.07 224.251 1013.22 223.552C1017.93 200.817 1023.76 177.946 1030.72 154.94C1030.98 154.047 1031.55 153.717 1032.41 153.969C1032.52 154.008 1032.63 154.066 1032.72 154.124C1033.23 154.532 1033.45 155.25 1033.25 155.91Z" fill="#252328"/>
<path d="M600.982 189.887C601.768 186.218 602.316 183.325 602.609 181.228C603.34 175.889 601.731 171.268 598.898 166.201C597.327 163.405 595.7 160.551 594 157.658C593.817 157.348 593.872 156.92 594.128 156.687C594.494 156.357 594.841 156.28 595.188 156.513C597.71 158.202 599.593 160.085 600.854 162.124C606.154 170.627 605.734 178.976 603.76 188.547C603.212 191.246 601.53 193.343 599.794 195.265C599.118 196.022 598.88 195.886 599.045 194.857C599.173 194.061 599.465 193.323 599.922 192.605C600.397 191.867 600.763 190.955 600.982 189.887Z" fill="#552E35"/>
<path d="M521.642 219.999C522.227 219.999 522.519 219.688 522.501 219.067V218.465C522.501 217.902 522.099 217.456 521.587 217.417C511.846 216.621 507.953 214.33 509.963 203.438C511.005 197.788 510.475 192.138 508.373 186.489C507.843 185.071 508.3 184.353 509.744 184.373C510.95 184.373 512.138 184.431 513.289 184.528C515.446 184.722 516.799 185.926 517.365 188.139C518.827 193.983 521.35 199.031 525.791 202.972C536.464 212.427 551.689 207.845 556.843 194.507C559.749 186.974 559.201 179.363 555.235 171.675C555.143 171.5 555.253 171.287 555.436 171.267C560.608 170.763 565.561 169.462 570.277 167.346C576.619 164.492 583.399 160.978 590.6 156.784C590.783 156.667 591.002 156.784 591.057 156.997C591.24 157.832 591.532 158.648 591.935 159.424C594 163.327 596.029 167.229 598.057 171.151C599.72 174.354 600.177 178.14 599.465 182.528C598.788 186.625 597.747 190.527 596.303 194.235C591.971 205.399 586.397 216.621 579.579 227.901C578.209 230.172 577.075 232.657 575.942 235.104C572.488 242.559 575.686 249.277 578.574 256.052C578.702 256.363 578.629 256.751 578.373 256.965C573.146 261.372 567.864 265.313 562.545 268.789C557.793 271.895 550.885 275.506 545.128 275.564C537.817 275.623 529.903 273.196 526.028 266.109C523.031 260.615 519.942 255.703 516.049 250.869C507.788 240.598 502.159 228.561 499.18 214.737C499.088 214.33 499.271 213.903 499.6 213.708C502.049 212.155 504.608 210.757 506.289 208.233C506.966 207.204 507.276 207.321 507.203 208.583C506.893 214.388 509.433 217.902 514.861 219.145C517.42 219.727 519.668 220.018 521.642 219.999Z" fill="#FEBEA2"/>
<mask id="mask2_1212_4818" style="mask-type:luminance" maskUnits="userSpaceOnUse" x="515" y="233" width="29" height="18">
<path d="M518.048 241.005C517.262 241.258 516.494 241.84 515.763 242.811C515.58 243.063 515.544 243.316 515.69 243.607C515.909 244.034 516.366 244.248 517.115 244.248C519.638 248.674 523.823 250.771 528.739 250.402C535.136 249.936 539.596 246.131 542.1 239.025C542.465 238.016 542.136 237.278 541.862 236.288C542.666 235.822 543.105 235.162 543.178 234.268C543.215 233.725 542.739 233.317 542.264 233.453L537.183 234.831C535.264 233.841 532.852 233.259 529.909 233.045C524.115 232.618 520.168 235.278 518.048 241.005Z" fill="white"/>
</mask>
<g mask="url(#mask2_1212_4818)">
<path d="M537.144 234.812C531.021 237.628 524.643 239.686 518.045 241.006" stroke="#92594C" stroke-width="0.388299"/>
<path d="M541.842 236.269C534.348 239.394 527.367 241.452 517.113 244.229" stroke="#92594C" stroke-width="0.388299"/>
</g>
<path d="M520.053 176.704C521.844 168.433 526.559 161.774 535.296 161.793C541.729 161.812 546.737 164.375 550.338 169.443C550.52 169.695 550.466 169.87 550.191 169.986C548.437 170.588 546.719 171.093 545.056 171.481C537.233 173.287 529.027 175.15 520.418 177.073C520.089 177.131 519.98 177.014 520.053 176.704Z" fill="#FEBEA2"/>
<path d="M548.399 180.277C548.161 180.005 547.814 179.888 547.357 179.947C547.065 179.966 546.772 180.141 546.608 180.413C543.427 185.208 538.456 189.693 532.809 188.489C528.861 187.635 527.161 182.199 526.832 178.374C526.814 178.083 526.997 177.83 527.253 177.791C535.313 176.53 543.226 174.646 550.994 172.103C551.597 171.909 552.072 172.103 552.438 172.666C555.655 177.947 556.66 183.694 555.49 189.906C553.589 200.022 544.159 207.36 534.545 204.72C524.328 201.924 519.119 190.877 519.448 180.024C519.467 179.325 519.814 178.918 520.472 178.82L523.689 178.335C524.273 178.238 524.584 178.51 524.584 179.151C524.584 182.839 526.028 187.674 529.153 189.829C536.537 194.896 544.451 188.8 548.563 182.043C548.929 181.403 548.874 180.82 548.399 180.277Z" fill="#FEBEA2"/>
<path d="M493.259 175.386C493.358 174.882 492.148 174.188 490.558 173.835C488.967 173.482 487.597 173.604 487.498 174.108C487.399 174.612 488.608 175.306 490.199 175.659C491.79 176.012 493.16 175.89 493.259 175.386Z" fill="#FEBEA2"/>
<path d="M499.544 183.693L492.124 185.79C491.868 185.868 491.612 185.713 491.521 185.46L489.255 179.034C489.127 178.665 489.401 178.277 489.766 178.296L496.072 178.684C496.2 178.684 496.328 178.762 496.419 178.859L499.8 182.8C500.056 183.111 499.91 183.596 499.544 183.693Z" fill="#FEBEA2"/>
<path d="M500.35 206.37C499.82 207.554 500.094 207.768 501.099 207.049C501.885 206.486 502.689 206.04 503.511 205.729C504.096 205.496 504.243 205.671 503.932 206.253C502.981 208.137 501.428 209.651 499.271 210.835C498.632 211.185 498.248 210.971 498.12 210.233C496.95 203.128 495.122 195.886 492.637 188.547C492.545 188.295 492.692 188.003 492.947 187.945L500.697 186.004C501.227 185.868 501.775 186.101 502.068 186.586C504.389 190.353 507.039 197.303 503.712 201.147C502.287 202.778 501.154 204.525 500.35 206.37Z" fill="#FEBEA2"/>
<path d="M894.016 269.177C892.901 262.479 892.17 255.354 891.768 248.559C890.836 232.774 889.958 212.33 889.173 187.227C889.154 186.508 889.483 186.12 890.16 186.101L890.854 186.062C891.585 186.023 891.951 186.392 891.969 187.169C892.499 203.943 893.212 221.824 894.071 240.831C894.491 250.112 895.295 259.567 896.502 269.158C896.538 269.43 896.465 269.701 896.282 269.915C896.026 270.245 895.734 270.42 895.405 270.42C894.619 270.4 894.144 269.993 894.016 269.177Z" fill="#252328"/>
<path d="M616.626 216.407C617.156 216.252 617.357 215.572 617.01 215.126C613.227 210.33 610.705 206.525 612.149 199.769C612.934 196.06 616.078 190.663 620.263 192.022C622.183 192.643 623.023 194.061 622.786 196.216C622.31 200.565 621.762 204.875 622.31 209.282C623.37 217.961 626.441 225.998 631.504 233.376C632.162 234.347 632.564 235.492 632.82 236.657C637.023 257.004 646.198 274.613 660.308 289.505C663.342 292.689 666.358 295.64 669.337 298.358C669.666 298.63 669.647 299.173 669.318 299.445C649.89 315.559 626.66 327.927 603.613 335.615C602.206 336.081 600.762 336.45 599.3 336.761C598.953 336.838 598.624 336.586 598.587 336.198C597.527 328.257 595.699 320.976 593.086 314.336C590.874 308.725 588.242 303.017 585.172 297.193C580.402 288.165 576.07 279.195 572.159 270.264C571.647 269.119 571.208 267.915 570.825 266.692C570.697 266.323 570.861 265.896 571.19 265.721C574.224 264.013 576.911 261.858 579.232 259.256C579.433 259.023 579.799 259.062 579.963 259.334C581.955 262.654 584.733 265.488 588.297 267.818C588.846 268.187 589.376 268.129 589.869 267.663C590.07 267.449 590.143 267.158 590.088 266.75C590.052 266.517 589.942 266.323 589.741 266.187C586.579 263.993 583.966 261.45 581.974 258.538C581.663 258.091 581.736 257.451 582.138 257.101C590.289 250.034 599.282 242.21 605.295 233.687C609.042 228.386 611.29 222.038 612.075 214.66C612.094 214.388 612.423 214.233 612.624 214.408C613.574 215.262 615.292 216.815 616.626 216.407Z" fill="#FEBEA2"/>
<path d="M495.232 207.535L496.145 211.437C496.2 211.69 496.054 211.923 495.835 211.981L492.947 212.641C492.6 212.719 492.326 212.35 492.472 212.02L494.446 207.457C494.61 207.069 495.14 207.127 495.232 207.535Z" fill="#FDE1CB"/>
<path d="M537.14 234.814C531.018 237.629 524.639 239.687 518.041 241.007C520.161 235.28 524.091 232.62 529.866 233.027C532.809 233.222 535.239 233.823 537.14 234.814Z" fill="#FF8F70"/>
<path d="M541.838 236.269C534.345 239.395 527.363 241.453 517.11 244.229C516.379 244.229 515.903 244.035 515.684 243.588C515.556 243.317 515.574 243.045 515.757 242.792C516.488 241.841 517.238 241.239 518.042 240.987C524.64 239.667 531.018 237.609 537.141 234.793L542.222 233.415C542.715 233.279 543.172 233.687 543.136 234.23C543.081 235.143 542.661 235.803 541.838 236.269Z" fill="#252328"/>
<path d="M541.837 236.269C542.111 237.259 542.44 237.997 542.074 239.007C539.57 246.112 535.111 249.898 528.714 250.384C523.797 250.753 519.63 248.656 517.09 244.229C527.361 241.453 534.343 239.395 541.837 236.269Z" fill="#FF8F70"/>
<path d="M1011.66 237.298L1011.72 237.317C1012.41 237.492 1012.85 238.23 1012.68 238.968L1009.25 254.791C1009.08 255.529 1008.39 255.995 1007.69 255.82L1007.64 255.8C1006.95 255.626 1006.51 254.888 1006.67 254.15L1010.11 238.327C1010.25 237.589 1010.97 237.123 1011.66 237.298Z" fill="#252328"/>
<path d="M900.628 295.717L900.719 308.842L899.531 341.42C899.513 342.022 899.221 342.41 898.691 342.604C898.343 342.721 897.96 342.643 897.539 342.371C897.192 342.158 896.973 341.75 896.973 341.323C896.973 333.149 897.283 322.957 897.887 310.745C898.417 300.144 897.649 288.844 895.584 276.846C895.492 276.302 895.821 275.798 896.315 275.681C897.192 275.468 897.759 275.914 898.051 277.04C898.234 277.739 898.38 278.457 898.508 279.176C899.477 285.194 900.189 290.708 900.628 295.717Z" fill="#252328"/>
<path d="M978.324 451.736C978.25 452.551 977.647 453.192 976.88 453.289C976.532 453.328 976.203 453.153 975.893 452.726C975.746 452.512 975.655 452.26 975.692 451.988C978.451 421.293 982.143 391.336 986.767 362.155C990.825 336.508 995.485 308.919 1000.75 279.409C1000.91 278.477 1001.44 278.03 1002.34 278.089C1002.47 278.089 1002.58 278.127 1002.67 278.186C1003.31 278.554 1003.55 279.118 1003.42 279.855C999.415 302.726 995.54 325.325 991.812 347.652C986.146 381.628 981.65 416.323 978.324 451.736Z" fill="#252328"/>
<path d="M712.8 346.333C713.056 345.789 712.965 345.323 712.526 344.916C712.179 344.605 711.685 344.644 711.027 345.052C710.826 345.168 710.662 345.343 710.57 345.556C706.495 353.517 702.785 362.409 699.422 372.271C694.359 387.143 690.758 401.821 688.602 416.246C686.244 431.972 685.568 448.669 689.698 463.463C691.069 468.356 690.411 471.831 689.79 476.471C689.753 476.84 689.552 477.093 689.223 477.209C680.158 480.587 677.946 488.8 676.996 497.944C676.502 502.74 676.082 507.594 675.753 512.486C675.735 512.874 675.516 513.088 675.15 513.107C672.153 513.263 669.155 513.379 666.176 513.418C661.79 513.476 663.197 520.427 663.617 523.067C663.928 525.067 664.33 527.086 664.824 529.105C664.933 529.532 664.769 529.707 664.367 529.61C660.273 528.678 656.27 528.057 652.377 527.727C642.325 526.892 633.515 531.26 631.212 542.463C631.176 542.618 631.085 542.696 630.957 542.735L625.291 543.589C625.071 543.608 624.98 543.511 624.998 543.298C626.022 523.96 626.79 502.759 626.223 485.266C625.894 474.918 625.656 464.589 625.51 454.3C625.327 440.903 626.643 427.856 629.458 415.14C630.92 408.5 633.259 400.54 636.421 391.259C641.027 377.766 645.889 363.942 651.006 349.769C656.453 334.703 662.63 320.22 670.38 306.532C678.111 292.884 688.309 281.079 704.667 282.264C718.978 283.332 733.471 292.398 743.085 303.484C750.798 312.396 757.816 323.016 764.14 335.344C775.471 357.438 784.116 379.94 793.236 401.374C796.654 409.432 800.547 417.431 804.404 425.74C805.098 427.255 804.934 427.352 803.91 426.07C798.244 418.964 790.769 414.577 781.521 412.907C769.458 410.713 758.182 409.567 747.691 409.47C733.91 409.335 721.061 413.043 710.644 422.983C700.555 432.594 694.395 445.349 692.348 459.93C692.184 461.056 691.983 461.056 691.727 459.949C690.594 455.193 689.826 450.009 689.662 445.116C689.351 435.234 689.863 425.818 691.215 416.868C694.779 393.104 701.98 369.592 712.8 346.333Z" fill="#FF7700"/>
<path d="M619.643 491.401C619.624 490.993 619.314 490.663 618.912 490.663H618.473C617.687 490.663 617.285 491.09 617.303 491.925C617.34 499.555 616.371 506.719 614.397 513.417C613.246 517.32 611.071 521.455 606.904 522.251C598.807 523.804 592.246 515.844 589.157 508.952C586.233 502.448 584.058 494.682 582.65 485.654C581.517 478.432 580.786 471.927 580.439 466.122C578.757 437.932 578.867 408.479 580.75 377.784C581.243 369.65 582.084 360.777 583.29 351.205C583.637 348.371 584.35 345.905 585.41 343.847C588.298 338.275 590.893 332.897 593.214 327.733C593.598 326.878 593.927 326.898 594.201 327.81C595.152 330.994 595.828 334.606 596.212 338.644C596.267 339.246 596.76 339.673 597.327 339.615C599.41 339.382 601.512 338.935 603.632 338.256C624.778 331.422 645.852 320.627 664.366 307.017C665.792 305.969 666.87 304.512 668.35 303.483C668.899 303.095 669.008 303.212 668.679 303.813C660.875 317.773 654.058 332.839 648.264 349.011C643.329 362.757 639.034 375.028 635.361 385.822C632.382 394.559 630.499 400.286 629.731 402.985C624.669 420.594 622.384 438.456 622.896 456.551C623.261 469.248 623.554 481.926 623.792 494.585C624.029 507.632 623.463 524.018 622.092 543.743C622.073 544.151 621.872 544.403 621.525 544.539C612.953 547.665 606.008 552.402 598.478 558.771C597.802 559.334 596.285 560.168 595.426 560.168C592.209 560.207 588.938 560.033 585.648 559.625C578.392 558.751 571.081 557.761 563.697 556.693C563.222 556.615 562.838 556.247 562.747 555.742C557.958 530.425 554.833 505.03 555.363 479.46C555.692 463.521 556.99 447.018 559.238 430.011C561.084 416.148 563.496 402.577 567.408 389.453C570.588 378.813 574.499 368.174 579.16 357.593C579.836 356.04 580.092 356.117 579.909 357.826C578.776 367.941 577.99 378.056 577.569 388.23C576.582 411.683 576.18 435.039 577.314 458.279C577.789 468.006 578.812 477.733 580.402 487.479C582.632 501.147 588.517 523.474 603.833 524.872C609.919 525.435 614.288 521.882 616.353 515.669C618.893 508.039 620.008 499.924 619.643 491.401Z" fill="white"/>
<path d="M430.221 488.275C430.221 488.76 430.477 489.013 430.934 489.032L431.793 489.052C432.323 489.052 432.597 488.78 432.579 488.217C432.487 481.946 431.373 476.296 430.349 470.336C429.38 464.686 432.195 461.366 436.655 459.153C440.895 457.036 445.044 454.94 449.101 452.843C454.767 449.911 459.226 445.368 462.48 439.194C464.892 434.612 467.433 430.088 469.973 425.642C472.331 421.507 475.566 418.071 479.678 415.294C487.683 409.897 495.488 404.538 501.976 397.646C502.926 396.637 503.127 396.772 502.542 398.073L493.55 418.168C493.294 418.731 493.587 419.41 494.172 419.566L494.775 419.721C495.305 419.857 495.853 419.585 496.109 419.061C502.195 406.208 508.227 392.462 514.203 377.823C515.738 374.057 517.42 370.271 519.229 366.485C521.075 362.641 523.597 359.884 526.832 358.214C548.655 346.915 568.211 335.654 590.71 322.316C590.984 322.161 591.295 322.083 591.605 322.103C592.007 322.141 592.245 322.569 592.099 322.957C591.258 325.131 590.381 327.17 589.485 329.092C586.013 336.47 582.54 343.828 579.067 351.128C569.838 370.582 562.911 391.317 559.146 412.79C556.898 425.623 555.563 437.039 554.522 449.892C554.522 450.086 554.412 450.164 554.248 450.164H554.028C553.992 450.164 553.973 450.144 553.973 450.105C553.845 441.835 553.535 435.796 553.041 432.03C551.853 422.963 550.501 414.226 548.947 405.82C547.375 397.355 547.522 389.628 549.349 382.638C550.373 378.736 551.926 374.445 554.028 369.805C557.117 362.952 560.516 356.195 564.227 349.555C564.702 348.72 564.519 348.06 563.697 347.614L563.459 347.478C562.929 347.206 562.308 347.4 562.015 347.924C557.83 355.613 554.174 362.855 551.049 369.65C546.169 380.231 544.049 391.259 545.822 402.713C547.01 410.363 548.308 418.362 549.715 426.769C550.373 430.671 550.574 434.69 550.939 438.67C551.086 440.34 551.177 441.97 551.195 443.543C551.305 455.716 552.383 467.928 552.438 479.732C552.475 489.207 552.712 497.089 553.133 503.36C554.248 520.329 556.532 537.764 559.968 555.645C560.023 555.936 559.804 556.189 559.53 556.15C541.71 553.218 524.548 549.044 508.044 543.627C505.631 542.831 503.018 541.783 500.185 540.424C499.216 539.958 497.425 539.861 496.383 540.171C492.892 541.297 489.109 541.414 484.997 540.559C479.038 539.298 473.3 538.171 467.798 537.162C456.32 535.065 450.143 540.54 441.937 547.646C434.589 553.995 428.138 561.12 422.527 569.002C422.453 569.119 422.289 569.08 422.252 568.964C421.393 566.323 420.406 563.819 419.675 561.178C413.735 539.492 407.631 517.378 401.362 494.798C401.252 494.43 401.453 494.041 401.801 493.925C407.101 492.1 412.511 489.634 417.976 486.547C421.521 484.547 425.012 483.751 428.485 484.178C429.527 484.314 430.057 484.916 430.093 486.042L430.221 488.275Z" fill="#FF7700"/>
<path d="M116.537 400.112C179.117 399.957 245.114 399.84 309.467 400.015C328.054 400.073 346.258 400.073 364.114 400.015C369.104 399.996 372.503 399.588 374.167 405.742C388.002 456.843 403.026 510.933 419.475 569.76C424.757 588.689 429.984 607.192 435.175 625.267C435.65 626.937 435.997 628.471 436.235 629.927C436.436 631.15 436.034 632.101 435.047 632.781L432.927 634.198C431.885 634.897 431.172 634.625 430.825 633.363C410.099 559.489 390.671 489.596 372.522 423.662C369.597 413.004 368.318 408.286 356.402 408.325C285.25 408.596 201.944 408.596 106.448 408.344C105.79 408.344 105.296 407.742 105.388 407.063C106.247 400.559 111.255 400.132 116.537 400.112Z" fill="#FEFAFB"/>
<path d="M175.167 619.054C175.825 616.666 175.277 614.453 173.485 612.395C173.047 611.89 173.156 611.637 173.796 611.579C179.261 611.21 192.347 607.424 187.504 598.591C186.462 596.707 184.47 595.348 182.569 594.494C177.415 592.203 171.822 591.989 165.773 593.912C165.444 594.009 165.352 593.911 165.48 593.562C166.778 590.32 166.248 587.349 163.908 584.631C163.305 583.932 162.446 583.525 161.806 582.864C161.478 582.515 161.514 582.224 161.916 581.991C167.454 578.807 169.318 570.633 163.89 566.323C160.143 563.352 154.386 562.498 149.872 561.314C148.903 561.061 148.117 560.265 147.843 559.236L106.629 411.605C106.574 411.392 106.72 411.178 106.921 411.178C178.219 411.062 251.929 411.042 328.052 411.12C337.977 411.12 348.376 411.178 359.233 411.295C364.99 411.353 367 414.498 368.517 419.954C386.611 485.382 405.985 555.004 426.638 628.781C427.113 630.47 427.515 632.198 427.844 633.945C427.899 634.275 427.661 634.586 427.35 634.586L177.342 634.625C176.501 634.625 175.752 634.042 175.496 633.188L172.608 623.17C172.517 622.859 172.59 622.568 172.809 622.335C173.778 621.384 174.765 620.491 175.167 619.054Z" fill="#FEFAFB"/>
<path d="M784.24 458.881C784.222 458.764 784.167 458.648 784.113 458.57C783.674 457.91 783.126 457.755 782.431 458.085C769.308 464.375 758.269 469.637 745.256 473.423C731.128 477.519 716.927 478.393 702.616 476.063C699.272 475.519 696.128 475.539 693.149 476.121C692.747 476.199 692.582 476.024 692.619 475.617C693.35 465.288 695.196 455.91 698.138 447.445C700.624 440.32 704.243 434.049 708.995 428.671C718.188 418.245 729.593 412.79 743.227 412.324C753.919 411.955 765.324 412.77 777.441 414.809C787.823 416.537 796.285 420.381 803.029 429.331C808.658 436.787 810.943 447.504 812.789 456.512C815.896 471.772 819.058 485.674 822.256 498.254C824.961 508.855 827.264 518.737 829.201 527.901C834.648 553.801 835.964 579.37 833.131 604.609C832.674 608.628 831.961 612.453 830.974 616.103C829.75 620.666 827.063 623.83 822.951 625.636C810.029 631.266 797.126 634.974 784.222 636.78C779.58 637.421 774.81 637.421 769.93 636.741C761.376 635.557 753.371 635.712 745.201 638.294C736.575 641.032 728.46 643.964 719.376 645.575C714.935 646.371 709.762 646.119 706.564 642.896C704.206 640.527 701.593 638.644 698.248 638.45C691.23 638.023 683.919 641.187 677.266 643.381C669.389 645.983 659.41 645.633 651.971 640.721C642.321 634.353 638.41 620.996 639.104 609.308C639.287 606.124 639.506 603.017 639.726 599.989C640.42 590.359 627.078 587.621 631.94 577.079C635.083 570.226 638.373 563.411 636.217 555.587C634.243 548.384 631.94 541.627 637.386 535.356C644.021 527.726 656.486 530.056 665.057 532.599C665.386 532.696 665.624 532.929 665.77 533.26C667.854 538.54 667.433 545.666 664.381 550.5C664.034 551.044 664.363 551.762 664.966 551.878C664.984 551.878 665.13 551.898 665.368 551.956C666.209 552.092 666.83 551.781 667.232 550.985C669.663 546.073 670.303 541.123 669.115 536.114C667.616 529.745 665.862 523.94 665.752 517.165C665.752 516.543 666.026 516.194 666.611 516.155C672.734 515.728 679.222 515.301 686.057 514.874C694.849 514.33 703.201 516.466 710.311 521.863C728.789 535.881 733.504 561.062 751.945 573.973C752.512 574.38 753.097 574.4 753.682 573.992C753.974 573.779 754.084 573.429 753.937 572.885C753.883 572.633 753.737 572.4 753.535 572.245C748.674 568.517 744.434 563.993 740.815 558.635C730.708 543.627 722.903 525.319 706.893 516.563C698.23 511.825 689.274 511.864 679.094 512.544C678.71 512.563 678.546 512.388 678.564 511.981C678.765 506.778 679.167 501.613 679.788 496.449C680.154 493.42 680.83 490.566 681.835 487.887C684.705 480.218 693.076 477.636 700.295 478.432C706.765 479.131 713.345 480.024 719.961 479.83C732.243 479.461 744.141 477.092 755.692 472.724C764.666 469.326 773.969 465.191 783.601 460.337C784.149 460.026 784.368 459.541 784.24 458.881Z" fill="#FF7700"/>
<path d="M830.865 622.724C832.748 619.307 833.954 615.967 834.484 612.686C838.286 589.311 837.957 565.12 834.356 541.822C832.455 529.532 829.768 516.971 826.68 505.069C822.275 488.062 818.693 472.627 815.933 458.745C814.526 451.639 812.862 445.31 810.943 439.738C810.943 439.699 810.943 439.66 810.98 439.66L811.181 439.563C811.291 439.524 811.364 439.544 811.419 439.66C815.677 448.106 819.753 456.357 823.628 464.395C828.361 474.219 832.912 485.266 837.317 497.517C842.434 511.787 847.15 525.164 851.426 537.667C855.758 550.248 862.831 561.8 870.745 574.478C880.34 589.796 888.309 605.677 894.669 622.141C894.761 622.374 894.596 622.646 894.359 622.646L830.883 622.801C830.865 622.782 830.847 622.743 830.865 622.724Z" fill="#FF7700"/>
<path d="M480.19 458.279C481.14 473.772 488.469 485.945 497.845 497.594C510.803 513.747 524.95 528.076 539.736 542.21C539.882 542.346 539.991 542.501 540.083 542.695C540.649 543.84 540.704 544.656 540.247 545.102C539.845 545.51 539.224 545.51 538.803 545.122C523.286 530.405 508.299 515.339 495.067 498.468C486.788 487.925 479.861 476.199 478.124 462.667C477.905 460.958 477.942 459.327 478.198 457.755C478.234 457.522 478.362 457.347 478.563 457.269C479.111 457.017 479.55 457.095 479.879 457.502C480.062 457.755 480.171 458.007 480.19 458.279Z" fill="#252328"/>
<path d="M448.096 524.173C440.401 517.708 432.762 513.417 423.934 509.923C423.386 509.709 423.038 509.282 422.892 508.68C422.801 508.253 423.075 507.904 423.733 507.632C424.044 507.496 424.372 507.496 424.683 507.593C433.84 510.583 442.101 515.437 449.467 522.174C449.997 522.659 450.125 523.455 449.759 524.076C449.741 524.115 449.704 524.173 449.649 524.193C449.192 524.542 448.553 524.542 448.096 524.173Z" fill="#252328"/>
<path d="M916.75 538.19C916.75 538.326 916.75 538.443 916.768 538.559C916.823 539.219 917.17 539.588 917.791 539.647C919.345 539.782 920.679 539.88 921.867 539.899C953.504 540.656 986.878 541.161 1022.01 541.413C1022.26 541.413 1022.48 541.666 1022.44 541.938L1014.42 621.927C1014.38 622.277 1014.11 622.548 1013.76 622.548L912.235 622.277C911.65 622.277 911.12 621.869 910.938 621.286C903.901 598.338 896.81 575.661 889.663 553.237C888.329 549.063 886.885 544.714 885.332 540.151C885.204 539.821 885.46 539.472 885.789 539.472L910.097 539.685C910.828 539.685 911.248 539.317 911.358 538.559C911.376 538.346 911.376 538.152 911.34 537.938C911.267 537.589 910.974 537.336 910.627 537.317C902.768 537.006 894.415 536.851 885.515 536.87C884.765 536.87 884.272 536.501 884.034 535.764L876.431 513.106C876.321 512.815 876.541 512.524 876.833 512.524C880.123 512.582 883.175 512.621 885.99 512.621C933.436 512.699 979.64 512.718 1024.55 512.64C1024.97 512.64 1025.3 513.029 1025.26 513.475L1022.86 537.88C1022.83 538.249 1022.55 538.54 1022.21 538.559C1020.65 538.676 1019.1 538.715 1017.55 538.715C991.447 538.559 962.076 538.171 929.397 537.55C925.413 537.472 921.41 537.472 917.371 537.53C916.914 537.53 916.713 537.763 916.75 538.19Z" fill="#847D70"/>
<path d="M469.041 540.016C473.903 540.89 478.764 541.725 483.206 543.103C484.01 543.355 484.01 543.588 483.187 543.783C477.229 545.18 471.271 545.976 465.349 546.19C458.788 546.442 453.926 549.063 448.571 552.966C441.242 558.305 433.931 563.722 426.621 569.216C425.963 569.702 425.323 570.265 424.683 570.866C424.519 571.022 424.427 571.002 424.446 570.75C424.446 570.633 424.482 570.517 424.555 570.439C430.952 562.324 438.044 554.791 445.83 547.84C448.553 545.413 451.294 543.375 454.054 541.705C458.788 538.793 463.595 539.045 469.041 540.016Z" fill="#FEBEA2"/>
<path d="M521.311 567.487L521.274 567.138C521.219 566.653 520.781 566.322 520.342 566.439C514.786 567.915 510.564 568.711 507.676 568.846C498.392 569.274 488.504 569.021 479.073 570.633C468.381 572.438 459.992 574.302 453.942 576.224C449.117 577.758 439.924 580.204 435.611 578.01C434.679 577.544 434.715 577.175 435.72 576.923C447.144 574.069 457.817 567.934 468.582 562.187C473.097 559.78 477.903 558.343 482.948 557.896C491.574 557.139 500.201 556.421 508.864 555.741C509.358 555.703 509.723 555.275 509.723 554.771V554.46C509.723 553.761 509.175 553.217 508.517 553.276C501.206 553.858 492.963 554.479 483.752 555.12C479.238 555.431 475.144 556.401 471.433 558.071C460.412 563.003 447.856 570.769 436.415 574.186C433.345 575.098 427.88 575.739 425.083 573.487C424.809 573.254 424.827 573.059 425.138 572.904C425.668 572.632 426.198 572.399 426.692 572.05C435.245 565.876 443.781 559.663 452.298 553.412C457.324 549.723 462.021 548.888 468.381 548.5C475.034 548.092 480.097 547.432 483.624 546.5C488.047 545.316 492.525 544.015 497.057 542.636C497.807 542.403 498.593 542.5 499.269 542.869C501.809 544.267 504.569 545.451 507.567 546.364C524.071 551.431 538.509 555.081 550.864 557.314C565.833 560.013 578.956 561.857 590.269 562.886C591 562.944 591.731 562.983 592.444 562.964C593.23 562.964 593.321 563.236 592.737 563.779C586.596 569.642 585.316 580.942 585.956 589.387C586.321 594.125 587.034 598.745 588.094 603.25C588.149 603.463 587.948 603.677 587.747 603.599C576.306 600.396 564.206 597.425 551.723 597.173C548.196 597.115 543.572 596.28 540.556 595.212C535.42 593.406 530.924 591.95 527.05 590.844C515.188 587.388 503.217 585.679 491.154 585.679C485.945 585.679 480.243 585.679 474.065 585.64C466.316 585.621 460.412 582.942 453.924 579.408C453.705 579.292 453.65 578.981 453.815 578.806C453.906 578.709 453.997 578.651 454.125 578.612C462.788 576.146 471.543 574.283 480.389 573.001C489.198 571.72 498.648 572.205 507.53 571.39C511.313 571.04 515.535 570.283 520.232 569.099C521.037 568.905 521.384 568.361 521.311 567.487Z" fill="#FEBEA2"/>
<path d="M588.517 587.116C587.987 577.777 590.235 568.458 597.546 562.867C607.708 555.12 617.504 546.616 630.426 545.704C630.773 545.684 630.993 545.84 631.066 546.209C631.797 549.781 632.638 553.062 633.588 556.071C635.799 563.022 632.711 568.769 629.951 574.826C625.254 585.155 631.267 588.009 635.982 595.464C637.865 598.454 636.987 603.269 636.677 606.647C635.69 617.228 637.737 626.781 642.818 635.323C643.055 635.731 642.964 635.867 642.525 635.75C635.763 633.751 628.891 632.566 621.909 632.236C617.303 632.023 612.606 631.615 607.964 630.256C601.055 628.217 595.828 620.102 593.507 613.21C590.674 604.861 589.011 596.144 588.517 587.116Z" fill="#FF7700"/>
<path d="M144.483 559.683C145.178 562.013 146.951 563.314 149.071 563.916C152.013 564.75 155.047 565.566 158.191 566.362C161.061 567.08 164.204 568.925 164.533 572.38C165.027 577.409 160.768 581.37 156.199 580.263C150.624 578.923 144.264 576.924 137.154 574.264C127.577 570.672 128.912 562.479 131.781 554.674C133.353 550.383 137.648 550.15 141.029 552.014C142.93 553.082 143.844 557.586 144.483 559.683Z" fill="#FEBEA2"/>
<path d="M915.817 556.402L922.799 556.382C923.31 556.382 923.731 556.829 923.749 557.373V557.741C923.749 558.285 923.329 558.751 922.817 558.751L915.835 558.77C915.323 558.77 914.885 558.324 914.885 557.78V557.411C914.885 556.848 915.305 556.402 915.817 556.402Z" fill="#252328"/>
<path d="M943.6 556.616L957.162 556.713C957.692 556.713 958.13 557.179 958.13 557.761V558.111C958.13 558.674 957.692 559.14 957.143 559.14L943.582 559.043C943.052 559.043 942.613 558.577 942.613 557.994V557.645C942.613 557.062 943.052 556.616 943.6 556.616Z" fill="#252328"/>
<path d="M455.714 583.33C461.399 586.592 467.265 588.242 473.279 588.281C478.487 588.3 483.806 588.32 489.234 588.3C505.135 588.281 519.519 590.746 534.396 596.008C541.469 598.512 547.537 599.736 554.958 599.949C559.435 600.085 564.096 600.648 568.446 601.619C574.806 603.036 581.13 604.55 587.417 606.162C587.947 606.298 588.404 606.608 588.733 607.074C588.916 607.346 588.733 607.715 588.441 607.715L433.417 607.851C433.033 607.851 432.795 607.657 432.704 607.288L431.626 603.386C431.516 602.997 431.644 602.784 432.028 602.706C437.584 601.735 443.103 598.959 445.443 593.426C446.741 590.358 445.845 586.281 441.696 587.679C438.169 588.863 434.221 590.378 429.853 592.241C429.213 592.513 428.774 592.3 428.537 591.62C426.874 586.999 425.412 582.068 424.132 576.845C424.077 576.593 424.278 576.36 424.516 576.418C427.02 576.981 430.694 577.117 432.795 578.767C435.244 580.709 437.109 581.777 440.435 581.524C443.432 581.291 446.229 580.845 448.824 580.224C449.372 580.088 449.939 580.165 450.451 580.418C452.26 581.408 454.033 582.379 455.714 583.33Z" fill="#FF7700"/>
<path d="M162.997 593.155C162.12 594.941 160.438 595.951 157.971 596.164C154.315 596.475 149.911 595.718 147.516 592.514C144.848 588.923 143.039 584.709 142.07 579.817C142.015 579.506 142.271 579.254 142.563 579.312C147.571 580.613 152.305 581.953 156.765 583.312C160.822 584.554 165.592 587.835 162.997 593.155Z" fill="#FEBEA2"/>
<path d="M438.338 597.852L432.617 600.124C431.831 600.434 430.954 600.027 430.625 599.211L429.601 596.726C429.236 595.852 429.656 594.823 430.497 594.493L441.207 590.183C442.779 589.562 444.058 591.601 442.925 592.901L438.959 597.425C438.776 597.619 438.575 597.775 438.338 597.852Z" fill="#FF7700"/>
<path d="M158.096 598.881C160.363 598.435 162.757 597.678 165.279 596.649C167.125 595.892 170.251 595.484 174.655 595.406C179.005 595.348 182.441 596.649 184.927 599.309C187.76 602.318 184.854 605.288 182.24 606.55C174.546 610.22 166.888 610.123 159.266 606.24C157.146 605.152 155.775 603.522 155.154 601.308C154.898 600.415 155.41 599.483 156.287 599.27C156.908 599.134 157.512 598.998 158.096 598.881Z" fill="#FEBEA2"/>
<path d="M931.92 596.96L944.677 597.037C945.189 597.037 945.591 597.484 945.591 598.008V598.513C945.591 599.056 945.17 599.484 944.677 599.484L931.92 599.406C931.408 599.406 931.006 598.959 931.006 598.435V597.93C931.006 597.387 931.426 596.94 931.92 596.96Z" fill="#252328"/>
<path d="M584.257 618.704C584.184 618.102 583.855 617.791 583.289 617.791L436.745 617.85C436.197 617.85 435.703 617.461 435.557 616.879L434.132 611.54C433.949 610.841 434.187 610.511 434.863 610.511L588.626 610.453C589.375 610.453 589.868 610.822 590.106 611.559C592.592 618.898 595.498 625.092 601.492 629.809C601.895 630.139 601.858 630.295 601.346 630.295C545.913 630.12 492.179 630.12 440.108 630.295C439.542 630.295 439.03 629.887 438.884 629.305L436.928 621.247C436.855 620.956 437.056 620.665 437.348 620.665L583.161 620.645C583.654 620.645 583.983 620.393 584.148 619.908C584.276 619.5 584.294 619.112 584.257 618.704Z" fill="#FEFAFB"/>
<path d="M172.103 620.033C173.638 618.041 172.881 614.687 170.413 612.541C167.944 610.395 164.7 610.269 163.165 612.261C161.631 614.252 162.388 617.606 164.856 619.752C167.324 621.898 170.569 622.024 172.103 620.033Z" fill="#FEBEA2"/>
<path d="M162.175 621.306C162.906 621.19 163.472 621.403 163.874 621.928C164.075 622.199 164.02 622.394 163.746 622.529C163.088 622.86 162.467 622.704 161.9 622.063L162.175 621.306Z" fill="#FDE1CB"/>
</svg>
