<svg width="60" height="60" viewBox="0 0 60 60" fill="none" xmlns="http://www.w3.org/2000/svg">
<g clip-path="url(#clip0_1383_3982)">
<path d="M30 60C46.5687 60 60 46.5687 60 30C60 13.4312 46.5687 0 30 0C13.4312 0 0 13.4312 0 30C0 46.5687 13.4312 60 30 60Z" fill="#25D366"/>
<path fill-rule="evenodd" clip-rule="evenodd" d="M30.0586 43.8934H30.0527C27.7199 43.8925 25.4271 43.3073 23.3903 42.1956L16 44.1347L17.9782 36.9106C16.756 34.7911 16.1141 32.387 16.1172 29.9404C16.1202 22.2541 22.3743 16 30.0576 16C33.7884 16.002 37.2886 17.4536 39.9204 20.0883C41.2187 21.3811 42.2478 22.9186 42.948 24.6117C43.6482 26.3048 44.0058 28.1199 43.9999 29.9521C43.997 37.6364 37.7458 43.8895 30.0596 43.8925L30.0586 43.8934ZM23.7331 39.6723L24.1561 39.9233C25.9416 40.9807 27.9786 41.5384 30.0537 41.5381H30.0586C36.4456 41.5381 41.6436 36.341 41.6466 29.9511C41.6514 28.4283 41.3542 26.9197 40.7722 25.5125C40.1902 24.1053 39.3348 22.8275 38.2558 21.753C37.1829 20.6727 35.9064 19.8161 34.5002 19.2327C33.0939 18.6493 31.5859 18.3508 30.0635 18.3543C23.6716 18.3543 18.4735 23.5524 18.4706 29.9413C18.4706 32.1306 19.0821 34.2632 20.2427 36.1085L20.5182 36.5462L19.3469 40.823L23.7331 39.6723ZM36.6048 32.9531C36.849 33.0704 37.0122 33.1495 37.0825 33.2667C37.1694 33.4123 37.1694 34.1098 36.8793 34.9235C36.5892 35.7373 35.1971 36.4797 34.5279 36.5794C33.9281 36.6693 33.1681 36.7064 32.3338 36.4426C31.6593 36.233 30.9963 35.9878 30.3477 35.708C27.082 34.2973 24.8751 31.1322 24.458 30.5343C24.4287 30.4923 24.4092 30.463 24.3965 30.4484L24.3945 30.4445C24.2099 30.1983 22.9751 28.5493 22.9751 26.8446C22.9751 25.2395 23.7625 24.3984 24.1259 24.0116L24.1942 23.9383C24.3105 23.8056 24.453 23.6984 24.6127 23.6234C24.7724 23.5485 24.9459 23.5073 25.1223 23.5026C25.3548 23.5026 25.5873 23.5046 25.7905 23.5143C25.8159 23.5163 25.8413 23.5163 25.8687 23.5153C26.0709 23.5153 26.3249 23.5133 26.574 24.1132C26.6707 24.3437 26.8104 24.6856 26.9589 25.0471C27.2588 25.7768 27.5899 26.5828 27.6486 26.699C27.7355 26.8739 27.7931 27.0771 27.6779 27.3096L27.629 27.4092C27.5411 27.587 27.4766 27.7179 27.3291 27.8908C27.2705 27.9592 27.2109 28.0315 27.1503 28.1058C27.0302 28.2513 26.911 28.3969 26.8065 28.5014C26.6316 28.6743 26.4509 28.8628 26.6531 29.2116C26.8573 29.5604 27.5558 30.7014 28.5913 31.6245C29.7049 32.6181 30.6721 33.0381 31.1625 33.2501C31.2582 33.2921 31.3364 33.3253 31.393 33.3537C31.7408 33.5285 31.944 33.5002 32.1472 33.2667C32.3504 33.0342 33.0186 32.2498 33.2511 31.901C33.4826 31.5523 33.7151 31.6109 34.0346 31.7261C34.354 31.8434 36.0665 32.6855 36.4143 32.8594L36.6048 32.9531Z" fill="#FDFDFD"/>
</g>
<defs>
<clipPath id="clip0_1383_3982">
<rect width="60" height="60" fill="white"/>
</clipPath>
</defs>
</svg>
