<svg width="35" height="555" viewBox="0 0 35 555" fill="none" xmlns="http://www.w3.org/2000/svg">
<path d="M25.1379 37.9655V0H0.724138H0V111H25.1379V73.1379L33.4994 57.0801C33.9647 56.1865 33.9673 55.1226 33.5063 54.2267L25.1379 37.9655Z" fill="url(#paint0_linear_1383_3755)"/>
<path d="M25.1379 148.966V111H0.724138H0V222H25.1379V184.138L33.4994 168.08C33.9647 167.186 33.9673 166.123 33.5063 165.227L25.1379 148.966Z" fill="url(#paint1_linear_1383_3755)"/>
<path d="M25.1379 259.966V222H0.724138H0V333H25.1379V295.138L33.4994 279.08C33.9647 278.186 33.9673 277.123 33.5063 276.227L25.1379 259.966Z" fill="url(#paint2_linear_1383_3755)"/>
<path d="M25.1379 370.966V333H0.724138H0V444H25.1379V406.138L33.4994 390.08C33.9647 389.186 33.9673 388.123 33.5063 387.227L25.1379 370.966Z" fill="url(#paint3_linear_1383_3755)"/>
<path d="M25.1379 481.966V444H0.724138H0V555H25.1379V517.138L33.4994 501.08C33.9647 500.186 33.9673 499.123 33.5063 498.227L25.1379 481.966Z" fill="url(#paint4_linear_1383_3755)"/>
<defs>
<linearGradient id="paint0_linear_1383_3755" x1="17.1207" y1="0" x2="17.1207" y2="111" gradientUnits="userSpaceOnUse">
<stop stop-color="#B0D146"/>
<stop offset="1" stop-color="#8CB01D"/>
</linearGradient>
<linearGradient id="paint1_linear_1383_3755" x1="17.1207" y1="111" x2="17.1207" y2="222" gradientUnits="userSpaceOnUse">
<stop stop-color="#65BB64"/>
<stop offset="1" stop-color="#15B013"/>
</linearGradient>
<linearGradient id="paint2_linear_1383_3755" x1="17.1207" y1="222" x2="17.1207" y2="333" gradientUnits="userSpaceOnUse">
<stop stop-color="#50D4E1"/>
<stop offset="1" stop-color="#18B2C8"/>
</linearGradient>
<linearGradient id="paint3_linear_1383_3755" x1="17.1207" y1="333" x2="17.1207" y2="444" gradientUnits="userSpaceOnUse">
<stop stop-color="#389BD1"/>
<stop offset="1" stop-color="#0D78C3"/>
</linearGradient>
<linearGradient id="paint4_linear_1383_3755" x1="17.1207" y1="444" x2="17.1207" y2="555" gradientUnits="userSpaceOnUse">
<stop stop-color="#8775D4"/>
<stop offset="1" stop-color="#553CC0"/>
</linearGradient>
</defs>
</svg>
